<?xml version="1.0" encoding="utf-8"?>
<!-- Generator: Adobe Illustrator 27.4.0, SVG Export Plug-In . SVG Version: 6.00 Build 0)  -->
<svg version="1.1" id="Modo_de_aislamiento" xmlns="http://www.w3.org/2000/svg" xmlns:xlink="http://www.w3.org/1999/xlink"
	 x="0px" y="0px" viewBox="0 0 1875.9 1634.6" style="enable-background:new 0 0 1875.9 1634.6;" xml:space="preserve">
<style type="text/css">
	.st0{fill:#FFFFFF;}
	.st1{fill:#FEC045;}
	.st2{fill:#390075;}
	.st3{opacity:0.3;}
	.st4{fill:#390176;}
	.st5{fill:#F648E1;}
	.st6{opacity:0.55;}
	.st7{fill:#FFCD55;}
	.st8{opacity:0.2;}
	.st9{opacity:0.25;}
	.st10{opacity:0.3;fill:#390176;}
	.st11{fill:none;stroke:#390176;stroke-width:40;stroke-linecap:round;stroke-miterlimit:10;}
</style>
<path class="st0" d="M259.8,961.5l40.6-91.5c4.9-11.1,17.9-16.1,29-11.2l0,0c11.1,4.9,16.1,17.9,11.2,29L300,979.3
	c-4.9,11.1-17.9,16.1-29,11.2l0,0C259.9,985.5,254.9,972.6,259.8,961.5z"/>
<g>
	<g>
		<path class="st1" d="M1793.6,1022.7c-1.5,4.7-3.1,9.3-4.6,13.8c-20,57.3-46.7,108.8-79.5,154.4c-76.6,106.7-186,181.3-318.4,221.6
			c-2.7,0.9-5.4,1.7-8.1,2.5c-28.6,8.4-58.3,15.2-89,20.4c-14.8,2.6-29.9,4.7-45.2,6.5c-153.5,17.9-328.6-2.2-514.2-62.4
			C229,1215.4-43.9,849.9,81.7,463c10.6-32.6,23.4-63.5,38.3-92.7C282,52.7,691-62.8,1154.1,87.6c353.3,114.7,586.4,336.7,651.9,592
			C1834.3,789.8,1831.4,906.1,1793.6,1022.7z"/>
		<path class="st2" d="M1138.9,1451c-127,0-265-23.3-405.1-68.8c-250.6-81.4-445.9-211.3-564.7-375.8
			C48.6,839.7,17.4,651.5,78.9,462.1c10.5-32.3,23.4-63.6,38.5-93.1c80.1-157.1,220.5-267.2,406-318.3C709.6-0.7,928,11.1,1155,84.9
			c174.1,56.5,320.4,138.6,434.9,243.9c110.5,101.6,186.2,222.7,218.9,350.1c29.1,113.4,24.9,229.3-12.5,344.7l0,0
			c-1.1,3.6-2.3,7.1-3.5,10.6l-1.1,3.2c-19.9,56.9-46.7,109.1-79.9,155.1c-76.3,106.4-184,181.3-319.9,222.7
			c-2.4,0.8-4.8,1.5-7.3,2.3l-0.8,0.2c-28.5,8.4-58.6,15.3-89.3,20.5c-14.8,2.6-30.1,4.7-45.3,6.5
			C1213.5,1449,1176.7,1451,1138.9,1451z M769.1,26.2c-292.1,0-532.5,122-646.6,345.5c-14.9,29.2-27.8,60.3-38.2,92.3
			c-60.9,187.5-30,373.9,89.4,539.2c118.1,163.5,312.3,292.7,561.8,373.7c181,58.8,358.4,80.3,513,62.3c15.1-1.7,30.3-3.9,45-6.5
			c30.5-5.2,60.4-12.1,88.7-20.4l0.8-0.2c2.4-0.7,4.8-1.4,7.2-2.2c134.8-41,241.4-115.2,317-220.6c32.8-45.6,59.5-97.3,79.1-153.6
			l1.1-3.2c1.2-3.5,2.4-7,3.5-10.5l0,0c37.1-114.3,41.2-229.1,12.4-341.4c-67.4-262.7-304.4-477.7-650-590
			C1019.9,47.1,890.1,26.2,769.1,26.2z"/>
	</g>
	<g class="st3">
		<path class="st4" d="M1793.6,1022.7c-1.5,4.7-3.1,9.3-4.6,13.8c-20,57.3-46.7,108.8-79.5,154.4c-76.6,106.7-186,181.3-318.4,221.6
			c-2.7,0.9-5.4,1.7-8.1,2.5c-28.6,8.4-58.3,15.2-89,20.4c-14.8,2.6-29.9,4.7-45.2,6.5c-153.5,17.9-328.6-2.2-514.2-62.4
			c-128.6-41.7-242.1-96.5-337.9-161.4c43.3,18.8,88.7,36,136.3,51.5c139.3,45.2,272.6,67.8,395.4,68.7c13.7,0.1,22.4-14.5,16-26.6
			l0,0c-12.1-22.9-19.8-48.2-34.1-69.8c-1.1-1.6-2.3-3.3-3.5-4.9c-20.4-26.9-55.8-36-88-26.2c-30.3,9.2-66.6-0.7-85.7-26.4
			c-19.2-25.8-22-63.3-47.6-82.8c-17.2-13.1-40.2-14.5-61.5-17.6c-21.4-3.1-44.8-10-55.4-28.7c-8.5-15.1-6.4-33.5-7.2-50.8
			c-0.9-17.3-18.9-41.8-34.9-48.2c-32.5-12.8-66.6-0.4-82.2,30.8c-9.1,18.2-9.9,39.3-13.5,59.4c-4.3,24.4-15,50.6-41.9,56.5
			c-16.8,3.7-34.2-2.4-46.6-14.4c-23.8-23.1-25.8-57.8-19.8-88.8c5.1-26.1,15.4-50.9,21.3-76.8c5.8-26,6.9-54.4-5.6-77.9
			c-11.7-21.9-42.9-33.7-67.2-27.4c-25.4,6.5-51.2-10.8-54.9-36.7c-3.4-23.5,6.2-46.6,13.3-69.2c7.1-22.8,11.4-49.2-1.6-69.3
			c-13.5-20.9-40.4-27.4-61.4-40.9c-41.9-26.9-57.4-87.9-33.5-131.5c3.4-9.5,6.8-19,10.3-28.3c162-317.6,571-433.1,1034.1-282.7
			c98.4,32,187.4,72.2,266.1,119.2c-47.4-52.5-103.7-101.3-168-145.3c285.3,122.7,473,321.6,530.7,546.5
			C1834.3,789.8,1831.4,906.1,1793.6,1022.7z"/>
	</g>
	<g>
		<path class="st5" d="M1793.6,1022.7c-1.5,4.7-3.1,9.3-4.6,13.8c-17.3,31.4-44.4,57.5-76.9,72.6c-23,10.6-48.6,16.2-69.5,30.7
			c-23.6,16.4-40.3,43.7-67.6,52.4c-28.2,9-58-4.5-85.9-14.5c-27.9-10.1-62-3.4-89.1,8.5c-31.4,13.7-45.8,51.3-45,85.5
			c0.7,34.2,13.2,66.9,20.8,100.1c3.3,14.3,5.6,28.7,7.1,43.3c-42.5,12.5-87.3,21.5-134.2,26.9c3.1-11.4,6.4-22.6,9.8-33.8
			c10.8-36.5,21.7-73.8,20.9-111.8c-0.7-38.1-17.2-81.8-50.2-101c-51.1-29.8-90.8-11.8-114.1,4.8c-23.3,16.5-40.2,40.6-60.9,60.1
			c-20.7,19.7-48.8,35.6-76.8,29.9c-25.4-5.2-44.1-27.1-56.3-50c-12.1-22.9-19.8-48.2-34.1-69.8c-1.1-1.6-2.3-3.3-3.5-4.9
			c-20.4-26.9-55.8-36-88-26.2c-30.3,9.2-66.6-0.7-85.7-26.4c-19.2-25.8-22-63.3-47.6-82.8c-17.2-13.1-40.2-14.5-61.5-17.6
			c-21.4-3.1-44.8-10-55.4-28.7c-8.5-15.1-6.4-33.5-7.2-50.8c-0.9-17.3-18.9-41.8-34.9-48.2c-32.5-12.8-66.6-0.4-82.2,30.8
			c-9.1,18.2-9.9,39.3-13.5,59.4c-4.3,24.4-15,50.6-41.9,56.5c-16.8,3.7-34.2-2.4-46.6-14.4c-23.8-23.1-25.8-57.8-19.8-88.8
			c5.1-26.1,15.4-50.9,21.3-76.8c5.9-26,6.9-54.4-5.6-77.9c-11.7-21.9-42.9-33.7-67.2-27.4c-25.4,6.5-51.2-10.8-54.9-36.7
			c-3.4-23.5,6.2-46.6,13.3-69.2c7.1-22.8,11.4-49.2-1.6-69.3c-13.5-20.9-40.4-27.4-61.4-40.9c-41.9-26.9-57.4-87.9-33.5-131.5
			c3.4-9.5,6.8-19,10.3-28.3C282,52.7,691-62.8,1154.1,87.6C1659.8,251.8,1919.2,635.9,1793.6,1022.7z"/>
	</g>
	<g class="st3">
		<path class="st4" d="M388.9,971.6c8.5-1.9,15.4-5.8,21-11.1c-0.7,4.8-1.4,9.7-2.2,14.5c-4.3,24.4-15,50.6-41.9,56.5
			c-16.8,3.7-34.2-2.4-46.6-14.4c-23.8-23.1-25.8-57.8-19.8-88.8c5.1-26.1,15.4-50.9,21.3-76.8c5.9-26,6.9-54.4-5.6-77.9
			c-11.7-21.9-42.9-33.7-67.2-27.4c-25.4,6.5-51.2-10.8-54.9-36.7c-3.4-23.5,6.2-46.6,13.3-69.2c7.1-22.8,11.4-49.2-1.6-69.3
			c-13.5-20.9-40.4-27.4-61.4-40.9c-41.9-26.9-57.4-87.9-33.5-131.5c3.4-9.5,6.8-19,10.3-28.3c1.3-2.5,2.6-5,3.9-7.4
			c-8.9,39.8,7.8,85.2,42.4,107.4c21,13.5,47.9,20,61.4,40.9c13,20,8.7,46.5,1.6,69.3c-7,22.6-16.6,45.7-13.3,69.2
			c3.6,26,29.4,43.3,54.9,36.7c24.3-6.3,55.5,5.5,67.2,27.4c12.5,23.5,11.4,51.9,5.6,77.9c-5.9,25.9-16.2,50.7-21.3,76.8
			c-6,31-4,65.7,19.8,88.8C354.6,969.3,372.1,975.4,388.9,971.6z"/>
	</g>
	<g class="st3">
		<path class="st4" d="M1302.6,1236.4c0.8,38.1-10.1,75.3-20.9,111.8c-1.3,4.3-5.8,10.2-11.1,16.7c5.5-22.6,9.4-45.4,8.9-68.6
			c-0.7-38.1-17.2-81.8-50.2-101c-51.1-29.8-90.8-11.8-114.1,4.8c-23.3,16.5-40.2,40.6-60.9,60.1c-20.7,19.7-48.8,35.6-76.8,29.9
			c-25.4-5.2-44.1-27.1-56.3-50c-12.1-22.9-19.8-48.2-34.1-69.8c-1.1-1.6-2.3-3.3-3.5-4.9c-20.4-26.9-55.8-36-88-26.2
			c-30.3,9.2-66.6-0.7-85.7-26.4c-19.2-25.8-22-63.3-47.6-82.8c-17.2-13.1-40.2-14.5-61.5-17.6c-21.4-3.1-44.8-10-55.4-28.7
			c-8.5-15.1-6.4-33.5-7.2-50.8c-0.9-17.3-18.9-41.8-34.9-48.2c-25.7-10.1-52.3-4.5-70.1,13.7c2.1-14.8,4.3-29.5,11-42.8
			c15.6-31.2,49.8-43.7,82.2-30.8c16,6.4,34,30.9,34.9,48.2c0.9,17.3-1.3,35.7,7.2,50.8c10.6,18.7,34.1,25.7,55.4,28.7
			c21.4,3.1,44.4,4.4,61.5,17.6c25.6,19.5,28.4,57,47.6,82.8c19.1,25.7,55.4,35.6,85.7,26.4c32.3-9.8,67.6-0.7,88,26.2
			c1.2,1.6,2.4,3.3,3.5,4.9c14.3,21.6,22,46.9,34.1,69.8c12.2,22.9,30.9,44.8,56.3,50c28,5.7,56.1-10.2,76.8-29.9
			c20.8-19.6,37.6-43.6,60.9-60.1c23.3-16.6,62.9-34.6,114.1-4.8C1285.4,1154.5,1301.9,1198.3,1302.6,1236.4z"/>
	</g>
	<g class="st3">
		<path class="st4" d="M1802.9,991.4c-2.8,10.5-5.9,20.8-9.3,31.3c-1.5,4.7-3.1,9.3-4.6,13.8c-17.3,31.4-44.4,57.5-76.9,72.6
			c-23,10.6-48.6,16.2-69.5,30.7c-23.6,16.4-40.3,43.7-67.6,52.4c-28.2,9-58-4.5-85.9-14.5c-27.9-10.1-62-3.4-89.1,8.5
			c-8.5,3.7-15.7,9.1-21.7,15.8c1.9-31.2,16.4-63.3,44.8-75.7c27.1-11.9,61.2-18.5,89.1-8.5c27.9,10,57.6,23.6,85.9,14.5
			c27.4-8.7,44-36,67.6-52.4c20.8-14.5,46.5-20,69.5-30.7C1762.5,1036.5,1785.9,1016.2,1802.9,991.4z"/>
	</g>
	<g class="st6">
		<path class="st0" d="M1824.3,856.1c-13.6-305.3-261.4-581.7-670.2-714.4C691-8.7,282,106.8,120,424.4c-3.5,9.3-6.9,18.8-10.3,28.3
			c-3.3,6.1-5.8,12.4-7.7,19c-6.5-24.4-4.5-50.9,7.7-73.1c3.4-9.5,6.8-19,10.3-28.3C282,52.7,691-62.8,1154.1,87.6
			C1586.9,228.2,1839.2,529.6,1824.3,856.1z"/>
	</g>
	<g>
		<path class="st4" d="M1137.6,1468.4c-127.8,0-265.6-23.4-409.1-69.9c-254.1-82.5-452.3-214.6-573.2-382
			C31.6,845-0.4,651.6,62.8,456.9C125.4,264,269.6,119.4,468.8,49.9c199.8-69.7,438.9-63.2,691.4,18.8
			c513.4,166.7,781.6,561.5,652.2,960.1c-63.2,194.8-201.4,332.3-399.6,397.8C1328.6,1454.5,1236.1,1468.4,1137.6,1468.4z
			 M765.2,42.6c-101.6,0-197.4,14.9-283.3,44.9C292,153.7,160.1,285.7,100.6,469.2c-59.1,182.1-29.1,363.3,87,524
			c116,160.6,307.3,287.6,553.3,367.5c245.8,79.8,473.9,89.6,659.6,28.2c185.7-61.3,315.1-190.1,374.3-372.3l0,0
			c122.2-376.3-135.5-750.5-626.7-910C1016.8,64,886.9,42.6,765.2,42.6z M1793.6,1022.7L1793.6,1022.7L1793.6,1022.7z"/>
	</g>
	<g>
		<path class="st4" d="M1485.9,691.9c6.2-0.5,12.7,1.3,18.5,4.6c5.7,3.3,10.6,8.2,14.5,13.6c7.8,10.9,12,24.7,11.6,38.6
			c-0.2,13.6-3.5,26.7-7.1,38.7c-3.6,12.1-7.7,23.5-10.1,34.5c-5.1,22-5.1,44.6,3.4,62c7.8,16.5,26.8,29,41.9,27
			c15.1-1,29.7-17.3,34.5-36.2c2.5-9.5,2.9-20.3,2.2-31.4c-0.8-11.1-2.8-22.7-5.2-34.6c-4.6-23.7-10.7-49.7-7.1-76.3
			c1.9-13.3,6.4-26.2,13.9-37.1c3.7-5.4,8.1-10.3,13.2-14.4c5.1-4,10.8-7.1,16.8-8.8c-10.4,7-17.4,17-21.7,27.7
			c-4.2,10.8-6,22.3-5.5,33.5c0.9,22.9,9,45,16.3,68.8c3.7,12,7.1,24.5,9.1,37.8c2,13.3,2.3,27.5-0.6,42
			c-3.1,14.6-9.7,28.4-19.9,40.2c-5.2,5.8-11.4,11-18.6,15c-7.2,4-15.4,6.7-23.9,7.6c-17.1,1.7-33.4-3.8-46-12.5
			c-12.7-8.9-22.9-20.8-28.9-35.2c-5.8-13.9-7.9-28.6-7.3-42.6c0.5-14,3.5-27.4,7.7-40c8.8-25.3,22.2-45.4,26.3-67.4
			c2.2-10.6,1.1-21.9-3.2-32.5c-2.2-5.2-5.3-10.1-9.4-14.1C1497.3,696.5,1492,693.4,1485.9,691.9z"/>
	</g>
	<g class="st3">
		<path class="st4" d="M1609.7,874.8c-0.3,1.9-0.7,3.7-1.2,5.6c-5.7,21.8-21.2,41.9-43,46.7c-26,5.8-53.1-12.7-63.7-37.1
			c-1.5-3.4-2.7-6.9-3.6-10.5c-5.5-20.3-3.2-42.4,3-62.9c0.2,0.5,0.4,1.1,0.6,1.6c10.6,24.5,37.7,42.9,63.7,37.2
			c19.1-4.2,33.4-20.2,40.4-38.7C1610.3,835.8,1613.2,855.6,1609.7,874.8z"/>
	</g>
	<g>
		<g>
			<path class="st5" d="M364.2,350c23.5,2,37.7,28.8,36.6,52.4c-1.1,23.5-12.6,45.1-20,67.5c-8.4,25.3-11.4,53.7-0.8,78.2
				c10.6,24.5,37.7,42.9,63.7,37.2c23.6-5.2,40-28.5,44.2-52.3c4.3-23.8-1.1-48.3-7.1-71.7c-6-23.5-12.7-47.3-11-71.5
				c1.7-24.2,13.5-49.2,35.5-59.5"/>
		</g>
		<g class="st3">
			<path class="st4" d="M487.9,532.9c-4.3,23.8-20.6,47.1-44.2,52.3c-26,5.7-53.1-12.7-63.7-37.2c-9.7-22.3-8.1-47.8-1.3-71.3
				c0.4,1.1,0.9,2.2,1.3,3.2c10.6,24.4,37.7,42.9,63.7,37.1c19.5-4.3,34.1-21,41-40.2C488.7,495.5,491.2,514.4,487.9,532.9z"/>
		</g>
		<g>
			<path class="st4" d="M364.2,350c6.2-0.5,12.7,1.3,18.5,4.6c5.7,3.3,10.6,8.2,14.5,13.6c7.8,10.9,12,24.7,11.6,38.6
				c-0.2,13.6-3.5,26.7-7.1,38.7c-3.6,12.1-7.7,23.5-10.1,34.5c-5.1,22-5.1,44.6,3.4,62c7.8,16.5,26.8,29,41.9,27
				c15.1-1,29.7-17.3,34.5-36.2c2.5-9.5,2.9-20.3,2.2-31.4c-0.8-11.1-2.8-22.7-5.2-34.6c-4.6-23.7-10.7-49.7-7.1-76.3
				c1.9-13.3,6.4-26.2,13.9-37.1c3.7-5.4,8.1-10.3,13.2-14.4c5.1-4,10.8-7.1,16.8-8.8c-10.4,7-17.4,17-21.7,27.7
				c-4.2,10.8-6,22.3-5.5,33.5c0.9,22.9,9,45,16.3,68.8c3.7,12,7.1,24.5,9.1,37.8c2,13.3,2.3,27.5-0.6,42
				c-3.1,14.6-9.7,28.4-19.9,40.2c-5.2,5.8-11.4,11-18.6,15c-7.2,4-15.4,6.7-23.9,7.6c-17.1,1.7-33.4-3.8-46-12.5
				c-12.7-8.9-22.9-20.8-28.9-35.2c-5.8-13.9-7.9-28.6-7.3-42.6c0.5-14,3.5-27.4,7.7-40c8.8-25.3,22.2-45.4,26.3-67.4
				c2.2-10.6,1.1-21.9-3.2-32.5c-2.2-5.2-5.3-10.1-9.4-14.1C375.5,354.6,370.2,351.5,364.2,350z"/>
		</g>
	</g>
	<g>
		<path class="st5" d="M1264.8,1386.7c-50,131.6-53,224.9,55.5,227.4c62.4-16.5,85.7-138.1,55.6-242.4"/>
	</g>
	<g class="st3">
		<path class="st4" d="M1389,1469c-0.9,71.7-25.3,133.7-68.6,145.1c-92.6-2.2-104-70.4-74.3-172c0.3,52.7,25.7,84.9,88.8,86.4
			C1359.1,1522.1,1377.4,1499.9,1389,1469z"/>
	</g>
	<g>
		<g class="st6">
			<path class="st0" d="M629.5,514.6c-69.2,236.4,681,455.8,750.1,219.5l-17.5,57C1292.9,1027.5,542.8,808,612,571.6"/>
		</g>
	</g>
	<g>
		<path class="st7" d="M1341.1,784.1c-21,4.4-48.1,6.9-49.9-44.5c-0.3-9.3-7.2-20.7-20.7-24.9c-9-2.8-18.7-0.9-26.8,3.9
			c-35.5,21.3-87.4,43.5-80.5-81.9c0,0-18.1,151.4-47.6,198.9C1115.5,835.6,1271,847,1341.1,784.1z"/>
	</g>
	<g>
		<path class="st7" d="M811.8,555.8c-30.2-53.4-72.8-36.1-93.8,0c-24.9,38.6-55.3,38.9-88.5,21.3c0,0,53.9,107.3,116,124.2
			C745.5,701.4,794.6,620.6,811.8,555.8z"/>
	</g>
	<g>
		<path class="st4" d="M1308.6,1632.6c-22.8,0-46.3-10.9-62.5-30.4c-16.9-20.3-26-48.7-26.2-82.2c-0.3-40.6,11.2-79.2,22.3-116.5
			c9.9-33.2,21-70.7,20.3-106.9c-0.6-31.4-13.8-70.3-41.7-86.6c-33.3-19.4-64.6-18.1-95.6,4c-13.1,9.3-24.2,21.6-36,34.5
			c-7.3,8-14.9,16.4-23.1,24.2c-29.7,28.1-62.4,40.2-92,34.1c-34.1-7-55.8-35.8-67.9-58.7c-5.2-9.7-9.5-19.7-13.7-29.4
			c-6.1-14-11.8-27.2-19.6-38.9c-0.9-1.3-1.9-2.7-2.9-4c-15.5-20.4-42.8-28.3-69.5-20.2c-38.5,11.7-81.4-1.7-104.4-32.5
			c-9.2-12.4-14.8-26.2-20.2-39.6c-6.5-16-12.7-31.2-24-39.8c-11.3-8.6-27.6-10.8-44.9-13.1c-2.9-0.4-5.8-0.8-8.7-1.2
			c-34.3-4.9-56.4-17.1-67.8-37.3c-8.8-15.5-9-32.5-9.2-47.5c0-3.6-0.1-7.3-0.3-10.8c-0.5-10.6-14.1-29.2-24.1-33.2
			c-24.3-9.6-49.3-0.3-60.7,22.6c-5.6,11.2-7.5,24.6-9.5,38.9c-0.7,5.3-1.5,10.6-2.4,15.8c-8.9,49.9-34.8,65.7-55,70.2
			c-21.8,4.8-45.1-2.2-62.2-18.8c-24.4-23.7-33.2-60.8-24.7-104.3c2.9-15,7.4-29.4,11.8-43.3c3.6-11.7,7.1-22.7,9.6-34
			c6.2-27.3,4.9-49.5-4-66.1c-7.7-14.4-30.6-23.4-48-18.9c-16.8,4.3-34.7,1.2-49.3-8.5c-14.6-9.7-24.3-25.2-26.7-42.4
			c-3.4-23.8,4.1-46.4,10.6-66.4c1.1-3.4,2.2-6.8,3.3-10.2c7.9-25.2,8-43.2,0.3-55c-6.6-10.2-19.6-16.6-33.3-23.3
			c-7.6-3.7-15.5-7.6-23-12.4c-49.6-31.9-67.6-102.4-39.2-154.1c4.5-8.3,14.9-11.3,23.1-6.7c8.2,4.5,11.3,14.9,6.7,23.1
			c-19.7,35.9-6.8,86.9,27.7,109c5.9,3.8,12.6,7,19.6,10.5c16.5,8.1,35.2,17.3,46.9,35.4c13.5,20.8,14.6,48.2,3.6,83.6
			c-1.1,3.5-2.3,7.1-3.4,10.7c-5.9,18.1-11.5,35.1-9.3,51c1.1,7.6,5.4,14.5,11.9,18.8c6.6,4.4,14.3,5.7,21.8,3.8
			c32.7-8.4,71.5,7.7,86.5,35.9c12.8,24,15.2,54.1,7.1,89.6c-2.9,12.6-6.6,24.8-10.3,36.6c-4.2,13.7-8.3,26.6-10.8,39.8
			c-4.4,22.5-5.4,53.5,15,73.3c8.8,8.6,20.5,12.3,31.1,10c5.4-1.2,22-4.9,28.8-42.9c0.9-4.8,1.5-9.7,2.2-14.6
			c2.3-16.3,4.7-33.2,12.8-49.4c19.4-38.8,63-55.2,103.8-39c22.2,8.8,44.4,39.5,45.6,63.1c0.2,4,0.3,8.1,0.3,12.1
			c0.1,11.9,0.3,23.2,4.8,31.1c5.8,10.3,19.9,17,43,20.3c2.7,0.4,5.5,0.8,8.3,1.1c20,2.6,42.7,5.6,61.2,19.8
			c18.7,14.3,27.3,35.4,34.9,54.1c4.8,11.9,9.4,23.2,16,32.1c14.3,19.2,42.5,27.7,67.1,20.2c40.5-12.3,82.3,0.3,106.5,32.2
			c1.5,1.9,2.9,3.9,4.2,5.9c9.4,14.2,16,29.5,22.4,44.2c4.1,9.5,8,18.4,12.5,27c7.1,13.4,22.4,36.7,44.6,41.2
			c25.7,5.3,51.7-16.1,61.7-25.5c7.3-6.9,14.1-14.4,21.3-22.3c12.5-13.7,25.4-28,41.5-39.4c41.9-29.8,87.7-31.7,132.5-5.7
			c42.1,24.5,57.9,77.5,58.6,115.4c0.8,41.5-11.1,81.6-21.7,117c-10.5,35.2-21.2,71.3-21,106.8c0.1,17.8,3.4,42.7,18.3,60.6
			c12.6,15.2,33.6,22,48.7,15.8c14.7-6,25.7-22.6,33.8-50.8c15.7-55.2,17.3-113.9,4.5-169.8c-2.2-9.4-4.8-19.1-7.4-28.4
			c-6.6-24-13.3-48.9-13.9-75.1c-0.8-35.3,13.2-83.1,55.2-101.5c36.2-15.9,73.3-19.1,101.7-8.9c3.2,1.2,6.5,2.4,9.7,3.6
			c23.5,8.7,45.8,17,65.2,10.8c13.2-4.2,24.3-15.1,36.1-26.7c8.3-8.1,16.9-16.5,27-23.6c15.1-10.5,31.6-16.6,47.6-22.4
			c8.6-3.2,16.7-6.1,24.4-9.7c43-19.9,75.4-61.2,84.6-107.8c1.8-9.2,10.8-15.3,20-13.4c9.2,1.8,15.3,10.8,13.4,20
			c-11.2,57.1-50.9,107.7-103.7,132.1c-9,4.1-18.1,7.5-27,10.8c-14.6,5.4-28.4,10.4-39.9,18.4c-7.8,5.4-15,12.5-22.6,19.9
			c-14.1,13.8-28.7,28.1-49.6,34.8c-30.6,9.8-60.8-1.4-87.4-11.3c-3.2-1.2-6.3-2.3-9.4-3.5c-20-7.2-48.6-4.2-76.5,8
			c-24.9,10.9-35.4,42.8-34.8,69.5c0.5,22.1,6.4,43.9,12.7,66.9c2.6,9.7,5.4,19.7,7.7,29.8c14.1,61.5,12.4,126.1-4.9,186.8
			c-11.1,39-28.7,62.9-53.8,73.1C1325.8,1631,1317.2,1632.6,1308.6,1632.6z"/>
	</g>
	<g>
		<path class="st4" d="M667.8,605.3c-13.4,0-28.8-3.8-46.3-13.1c-8.3-4.4-11.5-14.7-7.1-23c4.4-8.3,14.7-11.5,23-7.1
			c30,15.9,48.6,11.6,66-15.2c15.5-26.3,38.9-42,62.8-42c0.1,0,0.2,0,0.4,0c16.5,0.1,40.2,7.6,60,42.5c4.6,8.2,1.7,18.6-6.4,23.2
			c-8.2,4.6-18.6,1.7-23.2-6.4c-6.5-11.5-17-25.1-30.5-25.2c0,0-0.1,0-0.1,0c-11.4,0-24.6,10-33.6,25.4c-0.1,0.2-0.3,0.4-0.4,0.7
			C719.2,585.4,698.5,605.3,667.8,605.3z"/>
	</g>
	<g>
		<path class="st4" d="M1324.3,803.3c-9.4,0-20-2.1-29.3-9.3c-13.2-10.3-20-27.9-20.9-53.8c-0.1-1.7-1.8-7.1-8.8-9.3
			c-3.8-1.2-8.6-0.4-13,2.3c-14.6,8.8-48.8,29.3-76.5,12.6c-23.7-14.3-33.1-49.2-29.8-110c0.5-9.4,8.6-16.6,17.9-16.1
			c9.4,0.5,16.6,8.5,16.1,17.9c-3.5,63.6,9.4,76.5,13.4,78.9c6.7,4.1,20.6-0.2,41.4-12.6c12.7-7.6,27.5-9.6,40.6-5.6
			c21.7,6.8,32.2,25.8,32.7,40.6c0.7,20.4,5.7,26.5,7.9,28.2c4.3,3.3,13.3,2,21.5,0.3c9.2-1.9,18.2,3.9,20.2,13.1
			c1.9,9.2-3.9,18.3-13.1,20.2C1339.7,801.8,1332.5,803.3,1324.3,803.3z"/>
	</g>
	<g>
		<path class="st5" d="M1184.6,269c27.3-2.3,47.6,20.7,49.8,41.6c2.2,20.9-6.3,42-3.3,62.8c3,20.9,25.3,43.2,52.3,39.2
			c20.8-3.1,32.9-20.5,35-36.7c2.1-16.1-2.7-32.4-0.9-48.6c1.7-16.2,12.9-33.7,33.5-37.7"/>
	</g>
	<g class="st3">
		<path class="st4" d="M1318.5,376c-2.1,16.1-14.1,33.5-35,36.7c-27,4-49.4-18.3-52.4-39.2c-1.9-13.4,1-26.9,2.7-40.3
			c7.2,17.6,26.8,33.2,49.7,29.7c18.2-2.7,29.6-16.3,33.7-30.4C1316.7,346.9,1320.4,361.5,1318.5,376z"/>
	</g>
	<g>
		<path class="st4" d="M1184.6,269c7.4-2.5,15.9-2.6,24.1-0.3c8.3,2.1,15.8,7,22.2,13.2c6.3,6.3,11.3,14.1,14,23.4
			c2.5,9.4,2.7,17.9,2.5,26.2c-0.3,8.2-1,15.8-1.3,22.7c-0.1,3.4-0.1,6.7,0.1,9.8c0.1,2.9,0.5,6.2,1.2,8.3
			c2.1,8.5,10.2,17.8,18.9,21.5c4.3,2.1,8.9,2.8,13.5,2.4c4.7-0.2,8.9-1.7,12.6-4.2c3.8-2.5,7.1-6.4,9.4-10.9c1.2-2.3,2-4.6,2.6-7.1
			c0.7-2.8,1.1-5.9,1.3-9.2c0.5-6.7,0.2-14.2,0.6-22.4c0.2-4.1,0.5-8.3,1.3-12.6c0.7-4.2,2-9,3.8-13c3.7-8.2,9.3-15.4,16.5-20.2
			c3.6-2.4,7.4-4.2,11.3-5.4c4-1,8-1.5,11.9-1.3c-7.1,3.3-12.9,8-16.7,13.6c-3.9,5.6-6.2,11.9-7,18.2c-0.4,3.2-0.4,6-0.1,9.3
			c0.3,3.3,0.7,6.6,1.4,10.1c1.2,7,3,14.5,3.8,22.9c0.4,4.2,0.6,8.7,0.3,13.5c-0.4,5-1.5,10-3.1,14.8c-3.2,9.6-9.2,18.4-17.4,25.2
			c-8.1,6.9-18.7,11.1-29.1,12.2c-10.5,1.2-21.4-0.5-30.9-4.8c-18.7-8.9-32.6-25.1-36.6-46.4c-0.9-5.3-0.9-9.7-0.8-14.4
			c0.1-4.6,0.7-8.8,1.4-12.9c1.3-8.2,3.2-15.5,4.5-22.4c0.6-3.4,1.3-6.7,1.7-10c0.3-3.1,0.5-6.6,0.5-9.1c-0.3-5.6-2-11.7-5.2-17.3
			c-3.1-5.6-7.4-10.9-13-15C1199.2,273.1,1192.4,270.3,1184.6,269z"/>
	</g>
	<g>
		<g>
			<path class="st0" d="M765.3,239.8c-3.9,0-7.7-1.3-10.9-4l-73.6-61.6c-7.2-6-8.2-16.8-2.1-24c6-7.2,16.8-8.2,24-2.1l73.6,61.6
				c7.2,6,8.2,16.8,2.1,24C775,237.7,770.2,239.8,765.3,239.8z"/>
		</g>
		<g>
			<path class="st0" d="M1421.9,551.3c-8.4,0-15.7-6.2-16.9-14.7c-1.3-9.3,5.2-17.9,14.6-19.2l95-13.1c9.3-1.3,17.9,5.2,19.2,14.6
				c1.3,9.3-5.2,17.9-14.6,19.2l-95,13.1C1423.5,551.3,1422.7,551.3,1421.9,551.3z"/>
		</g>
		<g>
			<path class="st0" d="M983.6,1090.1c-4.1,0-8.3-1.5-11.6-4.5c-6.9-6.4-7.3-17.2-0.9-24.1l65.3-70.3c6.4-6.9,17.2-7.3,24.1-0.9
				c6.9,6.4,7.3,17.2,0.9,24.1l-65.3,70.3C992.7,1088.3,988.2,1090.1,983.6,1090.1z"/>
		</g>
		<g>
			<path class="st0" d="M1431.3,1036.9c-3.9,0-7.7-1.3-10.9-4l-52.8-44.1c-7.2-6-8.2-16.8-2.2-24c6-7.2,16.8-8.2,24-2.2l52.8,44.1
				c7.2,6,8.2,16.8,2.2,24C1441.1,1034.8,1436.2,1036.9,1431.3,1036.9z"/>
		</g>
		<g>
			<path class="st0" d="M594.7,404.6c-5.7,0-11.2-2.8-14.4-7.9c-5-8-2.6-18.5,5.3-23.5l58.2-36.7c8-5,18.5-2.6,23.5,5.3
				c5,8,2.6,18.5-5.3,23.5L603.8,402C600.9,403.8,597.8,404.6,594.7,404.6z"/>
		</g>
		<g>
			<path class="st0" d="M1050.6,227.7c-1.7,0-3.3-0.2-5-0.8l-65.8-20.2c-9-2.8-14-12.3-11.3-21.3c2.8-9,12.3-14,21.3-11.3l65.8,20.2
				c9,2.8,14,12.3,11.3,21.3C1064.6,223,1057.9,227.7,1050.6,227.7z"/>
		</g>
		<g>
			<path class="st0" d="M792.9,902.8c-1.7,0-3.3-0.2-5-0.8l-65.8-20.2c-9-2.8-14-12.3-11.3-21.3c2.8-9,12.3-14,21.3-11.3l65.8,20.2
				c9,2.8,14,12.3,11.3,21.3C806.9,898.1,800.2,902.8,792.9,902.8z"/>
		</g>
		<g>
			<path class="st0" d="M1750.3,825.5c-1.7,0-3.3-0.2-5-0.8l-65.8-20.2c-9-2.8-14-12.3-11.3-21.3c2.8-9,12.3-14,21.3-11.3l65.8,20.2
				c9,2.8,14,12.3,11.3,21.3C1764.3,820.8,1757.6,825.5,1750.3,825.5z"/>
		</g>
		<g>
			<path class="st0" d="M410.2,732.8c-8.7,0-16.2-6.7-17-15.5c-0.8-9.4,6.1-17.6,15.5-18.5l95.6-8.5c9.4-0.9,17.6,6.1,18.5,15.5
				c0.8,9.4-6.1,17.6-15.5,18.5l-95.6,8.5C411.2,732.8,410.7,732.8,410.2,732.8z"/>
		</g>
	</g>
	<g class="st3">
		<path class="st4" d="M625,509c0,0,60.5-108.9,226.6-99.4c0,0-47.5,188.5-97.2,284C677.1,654.9,622.3,601.2,625,509z"/>
	</g>
	<g class="st3">
		<path class="st4" d="M1133.1,466c169.9,71.3,271.8,170.7,236.6,291.5c-64.6,63.9-150.4,87.9-254.2,78.1
			C1167.7,717.9,1181,595.6,1133.1,466z"/>
	</g>
	<g class="st8">
		<path class="st0" d="M1275,973.5c11,0.3,23.1,0.9,31.4,8.2c12.1,10.6,10.1,31.1-0.1,43.5c-10.2,12.4-26.1,18.4-41.5,23
			c-76.8,23.1-160.2,24.2-237.6,2.9c-18.4-5.1-37.2-11.8-50.4-25.6c-13.5-14.2-22.3-44.9-1.5-56.5c21.7-12.1,69.9-1.2,94.2-0.6
			C1138.1,970.1,1206.5,971.8,1275,973.5z"/>
	</g>
	<g class="st8">
		<path class="st0" d="M857.1,932.4c-16.8,1-34.3,9.3-41.4,24.5c-6.6,14.2-2.7,31.8,7.1,44c16.4,20.3,48.8,25.3,70.4,10.8
			c16.3-10.9,28.7-37,21.7-56.6C907.7,934.3,877.3,931.3,857.1,932.4z"/>
	</g>
	<g class="st9">
		<path class="st0" d="M621,149.6c13.7-0.2,27.9,0.8,40.3,6.6c12.4,5.8,22.9,17.5,23.9,31.2c1,13.6-7.5,26.5-18.5,34.6
			s-24.4,12.1-37.5,16c-47.7,14.3-95.4,28.6-143.2,42.9c-24.3,7.3-58.7,11.9-68-19.7c-7.5-25.5,22.5-45.2,40.1-57.7
			C505.4,169.7,562.9,150.3,621,149.6z"/>
	</g>
	<g class="st9">
		<path class="st0" d="M824.2,159.3c11.7,3.6,24.2,10.2,27.2,22c3.3,12.8-6.5,25.5-17.6,32.7c-24.1,15.6-57.7,14.9-81.1-1.7
			c-17.3-12.3-29.8-42.3-6.7-55.4C765.8,145.6,804.4,153.2,824.2,159.3z"/>
	</g>
	<path class="st4" d="M1138.8,735.2"/>
	<path class="st1" d="M849.3,569.3c0,0,105.9-57.9,173.4,8.4c74.1,72.8,92.2,141.5,137.8,132.5s99.2,14.4,99.2,14.4v90.7
		c0,0-168.9,7.7-188.7,3.4c-19.7-4.3-275-74.1-281.9-78.2c-6.9-4.1-60.5-55.8-61.6-69.6c-1.2-13.8,30.2-85.9,30.2-85.9l64.2-41.2
		L849.3,569.3z"/>
	<path class="st10" d="M849.3,569.3c0,0,105.9-57.9,173.4,8.4c74.1,72.8,92.2,141.5,137.8,132.5s99.2,14.4,99.2,14.4v90.7
		c0,0-168.9,7.7-188.7,3.4c-19.7-4.3-275-74.1-281.9-78.2c-6.9-4.1-60.5-55.8-61.6-69.6c-1.2-13.8,30.2-85.9,30.2-85.9l64.2-41.2
		L849.3,569.3z"/>
	<g>
		<path class="st4" d="M1169.6,855.5c-175.5,0-403.9-80.3-507.6-188.8C613,615.5,595.2,561,610.4,509c3.1-10.5,14.1-16.6,24.7-13.5
			c10.5,3.1,16.6,14.1,13.5,24.7c-11.1,38.1,3,78.2,42.1,119c95.8,100.3,315,176.5,479.2,176.6c33.1,0,63.9-3.1,91.1-9.7
			c54.9-13.4,88.5-39.5,99.6-77.6c3.1-10.5,14.1-16.6,24.7-13.5c10.5,3.1,16.6,14.1,13.5,24.7c-15.2,52-59.6,88.3-128.3,105.1
			C1240.1,852.1,1206,855.5,1169.6,855.5z"/>
	</g>
	<path class="st11" d="M782.3,522c0,0-0.5,82.9,62,55.2s144-64.2,221.6,49.2s96.8,0,96.8,0"/>
</g>
</svg>
