<?xml version="1.0" encoding="utf-8"?>
<!-- Generator: Adobe Illustrator 27.4.0, SVG Export Plug-In . SVG Version: 6.00 Build 0)  -->
<svg version="1.1" id="Capa_1" xmlns="http://www.w3.org/2000/svg" xmlns:xlink="http://www.w3.org/1999/xlink" x="0px" y="0px"
	 viewBox="0 0 1634 1691" style="enable-background:new 0 0 1634 1691;" xml:space="preserve">
<style type="text/css">
	.st0{fill:#263239;}
	.st1{fill:#4F46FF;stroke:#FFFFFF;stroke-miterlimit:10;}
	.st2{opacity:0.6;fill:#FFFFFF;enable-background:new    ;}
	.st3{opacity:0.2;enable-background:new    ;}
	.st4{fill:none;stroke:#FFFFFF;stroke-miterlimit:10;}
	.st5{fill:#FFFFFF;}
	.st6{opacity:0.2;fill:#FFFFFF;enable-background:new    ;}
	.st7{opacity:0.8;fill:#FFFFFF;enable-background:new    ;}
	.st8{fill:#FBCB38;}
	.st9{opacity:0.5;fill:#FFFFFF;enable-background:new    ;}
	.st10{opacity:0.7;fill:#FFFFFF;enable-background:new    ;}
</style>
<path class="st0" d="M355.8,0h922.5c4.9,0,8.8,4,8.8,8.8v1673.3c0,4.9-4,8.8-8.8,8.8H355.8c-4.9,0-8.8-4-8.8-8.8V8.8
	C346.9,4,350.9,0,355.8,0z"/>
<path class="st1" d="M1255.3,56.7v1574.7c0,12.9-10.4,23-23.4,23H399.5c-11.9,0-20.9-9.2-20.9-21.1V54.8c0-10.3,7.6-19.3,17.9-19.3
	h208.1c5.9,0,11.2,3.8,13.4,9.4l8.6,21.2c2.2,5.5,7.5,9.3,13.4,9.3h354.3c5.9,0,11.2-3.6,13.4-9.1l8.6-21.3
	c2.2-5.5,7.5-9.4,13.4-9.4h205.1C1246.3,35.4,1255.4,45.3,1255.3,56.7L1255.3,56.7z"/>
<rect x="378.6" y="133.8" class="st2" width="876.7" height="1432"/>
<g>
	<g>
		<rect x="475.3" y="84.4" class="st2" width="10.8" height="14.4"/>
		<rect x="457.6" y="79.6" class="st2" width="10.8" height="19.2"/>
		<rect x="440" y="74.8" class="st2" width="10.8" height="24.1"/>
		<rect x="422.3" y="70" class="st2" width="10.8" height="28.9"/>
	</g>
	<g>
		<rect x="1149.7" y="79.2" class="st2" width="6.4" height="14.4"/>
		<rect x="1160.5" y="73.9" class="st2" width="51.1" height="25"/>
	</g>
</g>
<rect x="389.7" y="1064.6" class="st2" width="854.6" height="173"/>
<g>
	<circle class="st2" cx="804.8" cy="37.5" r="12"/>
	<path class="st2" d="M841.2,37.5c0,4.3-3.5,7.7-7.7,7.7s-7.7-3.5-7.7-7.7s3.5-7.7,7.7-7.7S841.2,33.2,841.2,37.5z"/>
</g>
<rect x="389.7" y="1270.8" class="st2" width="854.6" height="100.6"/>
<path class="st0" d="M821.6,1301.8v40.2h-5.7v-35.2h-9.1v-5H821.6L821.6,1301.8z"/>
<g>
	<g>
		<path class="st0" d="M1044.4,1177.4v8.2h-4.6v-8.2c-7.1-0.4-13.8-2.8-17.6-6.3l2.7-5.7c3.4,3.1,9.1,5.4,14.9,5.8v-16.8
			c-8-2-16.4-4.5-16.4-14.3c0-7.2,5.1-13.4,16.4-14.3v-8.3h4.6v8.2c5.4,0.2,10.9,1.8,14.7,4.4l-2.4,5.8c-3.9-2.5-8.3-3.8-12.3-4.1
			v16.9c8.1,2,16.8,4.4,16.8,14.3C1061.3,1170.2,1055.9,1176.4,1044.4,1177.4L1044.4,1177.4z M1039.8,1147.5v-15.7
			c-6.4,0.8-9.3,4.1-9.3,7.9C1030.5,1144.3,1034.6,1146.1,1039.8,1147.5z M1054.1,1163.5c0-4.6-4.3-6.4-9.7-7.9v15.6
			C1051.2,1170.5,1054.1,1167.4,1054.1,1163.5z"/>
		<path class="st0" d="M1082.7,1126.2v50.7h-7.2v-44.4h-11.4v-6.3H1082.7L1082.7,1126.2z"/>
		<path class="st0" d="M1093.7,1172.3c0-2.9,2.2-4.9,4.9-4.9s4.8,2,4.8,4.9c0,2.9-2.2,5-4.8,5S1093.7,1175.2,1093.7,1172.3z"/>
		<path class="st0" d="M1148,1150.9c0,17.3-9.8,26.6-24,26.6c-4.8,0-9.3-0.9-12.6-3l2.8-5.7c2.7,1.7,6.1,2.4,9.8,2.4
			c10.3,0,16.8-6.4,16.8-19.1v-1.8c-3,4.4-8.3,6.7-14.6,6.7c-10.1,0-17.3-6-17.3-15.4c0-9.4,7.8-16,17.9-16
			C1140.3,1125.5,1148,1134.7,1148,1150.9L1148,1150.9z M1139.1,1141.2c0-5.2-4.2-9.8-12.1-9.8c-6.6,0-11.2,3.8-11.2,9.8
			s4.4,9.8,11.5,9.8S1139.1,1146.8,1139.1,1141.2L1139.1,1141.2z"/>
		<path class="st0" d="M1192.7,1150.9c0,17.3-9.8,26.6-24,26.6c-4.8,0-9.3-0.9-12.6-3l2.8-5.7c2.7,1.7,6.1,2.4,9.8,2.4
			c10.3,0,16.8-6.4,16.8-19.1v-1.8c-3,4.4-8.3,6.7-14.6,6.7c-10.1,0-17.3-6-17.3-15.4c0-9.4,7.8-16,17.9-16
			C1185.1,1125.5,1192.7,1134.7,1192.7,1150.9L1192.7,1150.9z M1183.8,1141.2c0-5.2-4.2-9.8-12.1-9.8c-6.6,0-11.2,3.8-11.2,9.8
			s4.4,9.8,11.5,9.8S1183.8,1146.8,1183.8,1141.2z"/>
	</g>
	<g>
		<path class="st0" d="M455.8,1198.4v2.9H439v-2.3l9.5-9.2c2.5-2.4,2.9-3.9,2.9-5.3c0-2.4-1.7-3.9-5-3.9c-2.5,0-4.5,0.8-6,2.5
			l-2.3-2c1.8-2.2,4.9-3.5,8.5-3.5c4.9,0,8,2.5,8,6.5c0,2.3-0.7,4.3-3.8,7.3l-7.1,6.9L455.8,1198.4L455.8,1198.4z"/>
		<path class="st0" d="M458.4,1189.6c0-7.6,4.1-12,9.5-12s9.5,4.3,9.5,12c0,7.7-4.1,12-9.5,12S458.4,1197.2,458.4,1189.6z
			 M474.1,1189.6c0-6-2.5-9-6.2-9s-6.2,3-6.2,9s2.5,9,6.2,9S474.1,1195.5,474.1,1189.6z"/>
		<path class="st0" d="M480.3,1184c0-3.8,2.2-6.4,5.4-6.4s5.4,2.5,5.4,6.4s-2.2,6.4-5.4,6.4S480.3,1187.9,480.3,1184z M489,1184
			c0-2.8-1.2-4.5-3.3-4.5s-3.3,1.7-3.3,4.5s1.3,4.5,3.3,4.5S489,1186.8,489,1184z M499.8,1177.9h2.6l-16,23.4h-2.6L499.8,1177.9z
			 M495.1,1195.1c0-3.8,2.2-6.4,5.4-6.4s5.4,2.6,5.4,6.4s-2.2,6.4-5.4,6.4S495.1,1198.9,495.1,1195.1z M503.8,1195.1
			c0-2.8-1.3-4.5-3.3-4.5s-3.3,1.7-3.3,4.5c0,2.8,1.2,4.5,3.3,4.5S503.8,1197.8,503.8,1195.1z"/>
		<path class="st0" d="M509.3,1192.4c0-5.3,3.9-9,9.2-9s9.2,3.7,9.2,9s-3.9,9-9.2,9S509.3,1197.7,509.3,1192.4z M524.5,1192.4
			c0-3.8-2.5-6.2-5.9-6.2s-6,2.4-6,6.2s2.6,6.2,6,6.2S524.5,1196.2,524.5,1192.4z"/>
		<path class="st0" d="M535.8,1182v1.5h5.1v2.6h-5.1v15.1h-3.2v-15h-3v-2.6h3v-1.6c0-3.4,2.1-5.7,5.8-5.7c1.4,0,2.7,0.3,3.6,1
			l-1,2.4c-0.7-0.5-1.5-0.8-2.5-0.8C536.7,1178.9,535.8,1180,535.8,1182L535.8,1182z"/>
		<path class="st0" d="M547.5,1182v1.5h5.1v2.6h-5.1v15.1h-3.2v-15h-3v-2.6h3v-1.6c0-3.4,2.1-5.7,5.8-5.7c1.4,0,2.7,0.3,3.6,1
			l-1,2.4c-0.7-0.5-1.5-0.8-2.5-0.8C548.5,1178.9,547.5,1180,547.5,1182L547.5,1182z"/>
	</g>
	<g>
		<path class="st0" d="M440.5,1126.5c0-11.9,9.1-20.6,21.3-20.6c6.2,0,11.6,2.1,15.3,6.3l-3.7,3.6c-3.1-3.3-6.9-4.8-11.3-4.8
			c-9.1,0-15.8,6.5-15.8,15.5s6.7,15.5,15.8,15.5c4.4,0,8.2-1.5,11.3-4.8l3.7,3.6c-3.7,4.1-9.1,6.3-15.3,6.3
			C449.6,1147.1,440.5,1138.4,440.5,1126.5L440.5,1126.5z"/>
		<path class="st0" d="M480.4,1131.4c0-9.1,6.7-15.5,15.9-15.5s15.8,6.4,15.8,15.5s-6.7,15.6-15.8,15.6S480.4,1140.5,480.4,1131.4z
			 M506.5,1131.4c0-6.5-4.4-10.7-10.2-10.7s-10.3,4.2-10.3,10.7s4.4,10.7,10.3,10.7S506.5,1137.9,506.5,1131.4z"/>
		<path class="st0" d="M570.3,1129.1v17.5h-5.5v-16.9c0-6-2.9-8.9-7.9-8.9c-5.5,0-9.1,3.5-9.1,10.1v15.7h-5.5v-16.9
			c0-6-2.9-8.9-7.9-8.9c-5.5,0-9.1,3.5-9.1,10.1v15.7h-5.5v-30.4h5.3v4.5c2.2-3.1,5.9-4.8,10.5-4.8s8.6,1.8,10.6,5.6
			c2.3-3.5,6.5-5.6,11.7-5.6C565.2,1115.9,570.3,1120.2,570.3,1129.1L570.3,1129.1z"/>
		<path class="st0" d="M612,1131.4c0,9.3-6.5,15.6-15.4,15.6c-4.5,0-8.4-1.7-10.9-5.2v4.8h-5.3V1104h5.5v16.8
			c2.5-3.3,6.3-4.9,10.6-4.9C605.5,1115.9,612,1122.1,612,1131.4L612,1131.4z M606.4,1131.4c0-6.5-4.4-10.7-10.3-10.7
			s-10.2,4.2-10.2,10.7s4.4,10.7,10.2,10.7S606.4,1137.9,606.4,1131.4z"/>
		<path class="st0" d="M616.8,1131.4c0-9.1,6.7-15.5,15.9-15.5s15.8,6.4,15.8,15.5s-6.7,15.6-15.8,15.6S616.8,1140.5,616.8,1131.4z
			 M642.9,1131.4c0-6.5-4.4-10.7-10.2-10.7s-10.3,4.2-10.3,10.7s4.4,10.7,10.3,10.7S642.9,1137.9,642.9,1131.4z"/>
		<path class="st0" d="M697.4,1141.7v5h-28.9v-3.9l16.4-15.8c4.2-4.1,5-6.7,5-9.2c0-4.1-2.9-6.7-8.6-6.7c-4.3,0-7.8,1.4-10.3,4.4
			l-3.9-3.4c3.1-3.8,8.4-6.1,14.7-6.1c8.4,0,13.8,4.3,13.8,11.2c0,3.9-1.2,7.4-6.6,12.6l-12.3,11.8L697.4,1141.7L697.4,1141.7z"/>
	</g>
</g>
<g>
	<g>
		<path class="st3" d="M938.9,1295.7h49.6c0.3,0,0.5,0.2,0.5,0.5v49.6c0,0.3-0.2,0.5-0.5,0.5h-49.6c-0.3,0-0.5-0.2-0.5-0.5v-49.6
			C938.4,1295.9,938.6,1295.7,938.9,1295.7z"/>
		<g>
			<line class="st4" x1="963.7" y1="1308.4" x2="963.7" y2="1333.4"/>
			<line class="st4" x1="976.2" y1="1320.9" x2="951.1" y2="1320.9"/>
		</g>
	</g>
	<g>
		<path class="st3" d="M645.6,1295.7h49.6c0.3,0,0.5,0.2,0.5,0.5v49.6c0,0.3-0.2,0.5-0.5,0.5h-49.6c-0.3,0-0.5-0.2-0.5-0.5v-49.6
			C645.1,1295.9,645.3,1295.7,645.6,1295.7z"/>
		<g>
			<line class="st4" x1="670.3" y1="1308.4" x2="670.3" y2="1333.4"/>
			<line class="st4" x1="682.9" y1="1320.9" x2="657.8" y2="1320.9"/>
		</g>
	</g>
</g>
<path class="st1" d="M420,1407.1h794c1.9,0,3.5,1.6,3.5,3.5v114.2c0,1.9-1.6,3.5-3.5,3.5H420c-1.9,0-3.5-1.6-3.5-3.5v-114.2
	C416.5,1408.6,418.1,1407.1,420,1407.1z"/>
<g>
	<path class="st5" d="M681.7,1467.9c0-15,11.6-26.2,27.3-26.2s27.2,11.1,27.2,26.2s-11.6,26.2-27.2,26.2S681.7,1483,681.7,1467.9z
		 M728.9,1467.9c0-11.4-8.5-19.7-19.9-19.7s-20,8.4-20,19.7s8.5,19.7,20,19.7S728.9,1479.3,728.9,1467.9z"/>
	<path class="st5" d="M781.7,1493.6l-11.1-15.8c-1,0.1-2.1,0.2-3.2,0.2h-12.7v15.6h-7.3v-51.3h20c13.3,0,21.4,6.8,21.4,17.9
		c0,7.9-4.1,13.6-11.3,16.2l12.2,17.2L781.7,1493.6L781.7,1493.6z M781.5,1460.2c0-7.3-4.9-11.5-14.3-11.5h-12.5v23.1h12.5
		C776.6,1471.8,781.5,1467.5,781.5,1460.2z"/>
	<path class="st5" d="M800.7,1442.3h21.6c16.5,0,27.7,10.4,27.7,25.7s-11.2,25.7-27.7,25.7h-21.6V1442.3L800.7,1442.3z
		 M821.8,1487.2c12.7,0,20.8-7.8,20.8-19.3s-8.1-19.3-20.8-19.3H808v38.6L821.8,1487.2L821.8,1487.2z"/>
	<path class="st5" d="M898.4,1487.2v6.4h-37.2v-51.3h36.2v6.4h-28.9v15.8h25.7v6.2h-25.7v16.6L898.4,1487.2L898.4,1487.2z"/>
	<path class="st5" d="M944.6,1493.6l-11.1-15.8c-1,0.1-2.1,0.2-3.2,0.2h-12.7v15.6h-7.3v-51.3h20c13.3,0,21.4,6.8,21.4,17.9
		c0,7.9-4.1,13.6-11.3,16.2l12.2,17.2L944.6,1493.6L944.6,1493.6z M944.4,1460.2c0-7.3-4.9-11.5-14.3-11.5h-12.5v23.1h12.5
		C939.5,1471.8,944.4,1467.5,944.4,1460.2z"/>
</g>
<path class="st6" d="M1160.8,620.4c5,31.2-2,64.6-20.1,90.3c-33.8,48.2-94.5,64.4-135.3,104.9c-37,36.7-56.1,95.3-107.5,115.9
	c-23.5,9.4-49.9,8.2-74.7,3.3c-53.8-10.7-102-37.7-150.7-61.5c-65-31.7-140.2-45.6-202.5-81.4c-28.6-16.4-53.8-41.2-63.9-72.6
	c-21.5-66.8,25-132.1,74-172.3c36.7-30.2,79.1-55.3,109.7-92.3c28.1-34,39.8-79.7,72.2-110.5c26.3-25,63.7-36,100-35.1
	c99.8,2.4,144,64.7,201.8,134.1c47.9,57.5,132.8,67.8,177.1,128.2C1151.4,585.9,1158,602.8,1160.8,620.4L1160.8,620.4z"/>
<g>
	<g>
		<path class="st0" d="M920.2,375.3l-23.9,328c0,0,86.9,59.4,184.2,34.2l94.3-295.9C1174.7,441.6,1113.4,346.8,920.2,375.3
			L920.2,375.3z"/>
		<path class="st0" d="M917.2,363.8l-2.5,35c0,0,74.4,69.8,257.1,64.8l17-38.9C1188.8,424.6,1079.8,317.5,917.2,363.8L917.2,363.8z"
			/>
		<path class="st7" d="M917.2,363.8l-2.5,35c0,0,74.4,69.8,257.1,64.8l17-38.9C1188.8,424.6,1079.8,317.5,917.2,363.8L917.2,363.8z"
			/>
		<path class="st3" d="M1181.8,425.3c-110.4,14.9-205.4-26.9-241.9-46.1l-0.1-0.1c-10.3-5.3-15.9-8.9-15.9-8.9
			c3.2-0.9,6.3-1.7,9.4-2.5c16.4-4.1,32.2-6.4,47.3-7.7c59.5-4.6,108.8,10.9,143.8,27.9C1161.1,405.6,1181.8,425.1,1181.8,425.3
			L1181.8,425.3z"/>
		<path class="st8" d="M1230.6,299.5c-4,36.8-5.6,92.2-48.8,125.7c-43.4,5.8-84.3,3-120.2-4c-25-4.7-47.5-11.4-66.8-18.3
			c-23.8-8.4-42.6-17.5-54.9-23.9l-0.1-0.1c-0.6-1-3.7-5.7-6.4-11.4c-4.2-8.9-7.2-20.1,3-22.1c17.4-3.5,13.8-5.5,12.6-14
			c-1.2-8.4,2.2-17.4,5.8-8.9c3.5,8.4,0.6,27.5,4.5,29.9c3.7,2.2,22.8-8.9,21.4,7.6c-0.6,7.1-1,14.3,0.5,20.1
			c0.2,0.7,0.5,1.5,0.7,2.2c0,0.2,0,0.4,0.1,0.5c2.5,6.2,7.7,10.4,18.1,11c20.8,1.1,35.1-11.8,56.4-17.8c21.3-5.9,46.9-4.6,50.8,18
			c4,22.4,21.9,14.3,18-1.2c-0.4-1.5-0.7-3.1-1-4.7c-2.6-15.4-0.7-34.5,7.6-24.4c9,11-3.5,14,3.5,20.9c7.1,7.1,17-4.7,20.6-25.3
			c3.6-20.6,19.5-65.6,0-90.5c-19.5-24.9-13-30,0-26.9c12.9,3,5.9,25.4,19,32c13,6.4,17-26.5,10-42.5c-6.9-16-16-42.9,4-39.4
			c20,3.5,15.5,30,15.5,47.5s5,28.9,10.9,22.4c2.2-2.4,5.3-2.9,8.3-0.6h0.1C1228.7,264.4,1233.2,275.9,1230.6,299.5L1230.6,299.5z"
			/>
		<g>
			<polygon class="st8" points="1038.7,276.3 1066.7,252.2 1099,276.3 1099,308.1 1071.1,318.7 1038.7,304.5 			"/>
			<polygon class="st7" points="1038.7,276.3 1066.7,252.2 1099,276.3 1099,308.1 1071.1,318.7 1038.7,304.5 			"/>
			<polygon class="st9" points="1066.7,252.2 1066.7,291.5 1099,308.1 1099,276.3 			"/>
		</g>
		<path class="st3" d="M1223.5,260.8c-7.1,4.6-13.1,15.2-14,29.9c-1.6,27.5-10.4,26.5-27.6,14.9c-17.2-11.7-11.3,13.9-7.1,64.5
			c4.2,50.6-41.6,58.4-61.9,51.4c-20.2-7.1-3.8-12.9-16.5-20.7c-11-6.8-9.4,16.9-35,20.7c-3.8,0.5-8.4,0.6-13.8,0.1
			c-24.9-2.6-42-8.3-53-18.3c-5.9-5.5-10.2-12.1-12.8-20.3c2.5,6.2,7.7,10.4,18.1,11c20.8,1.1,35.1-11.8,56.4-17.8
			c21.3-5.9,46.9-4.6,50.8,18c4,22.4,21.9,14.3,18-1.2c-0.4-1.5-0.7-3.1-1-4.7c-2.6-15.4-0.7-34.5,7.6-24.4c9,11-3.5,14,3.5,20.9
			c7.1,7.1,17-4.7,20.6-25.3c3.5-20.6,19.5-65.6,0-90.5s-13-30,0-26.9c12.9,3,5.9,25.4,19,32c13,6.4,17-26.5,10-42.5
			c-6.9-16-16-42.9,4-39.4c20,3.5,15.5,30,15.5,47.5s5,28.9,10.9,22.4C1217.4,259.2,1220.5,258.7,1223.5,260.8L1223.5,260.8z"/>
		<g>
			<polygon class="st8" points="1022.9,401.8 997.9,396.4 997.6,368.4 1015.3,355 1032.8,366.1 1038.7,389.9 			"/>
			<polygon class="st7" points="1022.9,401.8 997.9,396.4 997.6,368.4 1015.3,355 1032.8,366.1 1038.7,389.9 			"/>
			<polygon class="st9" points="997.9,396.4 1019.7,380 1015.3,355 997.6,368.4 			"/>
		</g>
		<path class="st7" d="M1068.9,508.2c75,0,68.9,142.2-20.8,141.9C958.2,649.7,984.2,508.2,1068.9,508.2z"/>
		<path class="st3" d="M1066.9,519.3c63.2,0,58.1,119.9-17.6,119.6C973.6,638.7,995.5,519.2,1066.9,519.3L1066.9,519.3z"/>
	</g>
	<g>
		<g>
			<path class="st0" d="M461.7,747.6c0,0-20.9,33.7-20.9,42.6c0,8.9,15.7,53.2,26.2,62.8c10.4,9.7,136.2,39.7,289.7,16.5
				c153.4-23.2,196.1-94.3,203.6-111.6c7.4-17.2,5-83.2-11.5-86.1S490.9,724.5,461.7,747.6L461.7,747.6z"/>
			<path class="st9" d="M960.3,758.2c-7.4,17.2-50.2,88.4-203.6,111.6C603.2,893,477.4,863,466.9,853.4c-10.4-9.8-26.2-53.9-26.2-63
				c0-2.9,2.1-8.2,5-14.1c6.3-12.8,16.1-28.5,16.1-28.5c29.3-23.2,470.5-78.6,487-75.6c5.2,0.9,8.9,7.8,11.4,17.6
				C965.8,711.2,965.4,746.3,960.3,758.2L960.3,758.2z"/>
			<path class="st3" d="M960.1,689.6c-15.1,24.8-66.4,83.3-209.5,103.9c-161.1,23.3-293.1-6.7-304-16.4c-0.2-0.2-0.6-0.5-0.9-0.9
				c6.3-12.8,16.1-28.5,16.1-28.5c29.3-23.2,470.5-78.6,487-75.6C953.9,672.9,957.6,680,960.1,689.6L960.1,689.6z"/>
		</g>
		<path class="st8" d="M456.5,746.5c-16.5-1.1-24.7,11.7-15,19.8c9.7,8.2,27.6,1.5,28.5,18c0.7,16.5,1.5,37.4,11.3,26.2
			c9.8-11.3,0.7-23.9,26.9-19.5c16,2.7,36.8,12.8,52.2,2.6c2.7-1.9,5.1-4.3,7.9-5.9c3-1.7,6.4-2.5,9.7-3.7c4.5-1.6,8.6-4.1,12.5-6.6
			c5.2-3.1,11.2-7.4,10.9-13.5c-0.2-5.5-5.6-9.5-11-10.2c-5.5-0.7-10.8,1-16.1,2.5c-5.3,1.5-10.7,2.6-16.1,3.5
			c-9.9,1.6-18.7-2.7-28.4-4.5c-11.3-2-22.7-3.6-34.1-5C482.5,748.9,469.5,747.5,456.5,746.5L456.5,746.5z"/>
		<path class="st8" d="M607.7,767.1c0,0,41.2,33,57.6,32.2c16.5-0.7,20.6-2.2,26.8,6.7c6.2,8.9,34.1,27.6,38.2,8.9
			s19-28.5,28.8-25.4c9.7,3,28.5,7.7,35.9-5.9c3.6-6.4,5.9-8.4,12.5-10.9c5-1.9,10-3.8,15-5.6c6.1-2.1,13.5-1.1,19.2-4.3
			c6.6-3.7,9-11.8,13.4-17.8c4.6-6.3,11.7-10.9,19.3-12.4c6.4-1.2,13.3-0.4,19.8-1c6.6-0.6,13.6-3.1,16.9-8.8
			c2.9-5.1,2.1-11.5,4.3-16.9c3.1-7.3,12.4-11.2,19.8-8.4c2.2,0.9,4.3,2.1,6.7,2c5.5-0.4,10.3-8.2,14.6-4.7
			c3.3,2.6,2.2,8.7,7.4,10.9c0.5-8.7,0.2-17.5,0.4-26.2c0-3.1,0-6.3-1.6-8.9c-9.3-14.5-17.4-19.7-35.3-20.5
			c-17.2-0.6-35.6-0.7-50,8.8c-14,9.4-21.1,26.3-33.3,37.8c-6.8,6.4-15,11-23.3,15.4c-20.9,11.2-42.6,21.1-64.8,29.5
			c-20.2,7.7-45.6,7.6-67.1,11C661.7,757.2,634.7,761.9,607.7,767.1L607.7,767.1z"/>
		<path class="st0" d="M950.8,684.7c-2.7,10.8-13.1,18.3-21.7,24.5c-2.6,1.9-5.3,3.8-7.9,5.7c-5.1,3.6-10.2,7.3-16.1,9.4
			c-5.9,2.1-12.1,2.6-18.2,3.5c-24.9,3.5-49,13-69.4,27.5c-5.6,4-11.2,8.3-17.7,9.5c-5.8,1.1-11.8-0.5-17.7-0.5
			c-5.9-0.1-12.6,1.6-15.2,7.1c-0.7,1.6-1.1,3.6-2.5,4.7c-1.2,1.1-3,1.4-4.7,1.6c-19.7,2.5-39.5,3.8-59.2,4
			c-20.2,0.1-40.4-1.1-60.5-2.2c-13.1-0.7-26.2-1.5-39.2-2.2c-6.4-0.4-13.1-0.7-19.6,0.1c-6.3,0.9-12.4,2.9-18.6,4
			c-7.7,1.4-15.5,1.6-23.2,1.9c-7.8,0.2-15.9,0.4-23.7,0.6c-20.6,0.5-38.3-9.8-57.3-17.1c-2.4-0.9-4.8-1.9-6.4-3.7
			c-4.6-5.3,0-14.1-2.6-20.8c-0.6-1.6-1.6-3-1.9-4.7c-0.2-2.4,1.1-4.3,1.9-6.6c0.2-0.7,0.5-1.5,0.6-2.2c0.4-3.2-1.5-6.3-2.6-9.3
			c-1.2-3.2-1.6-6.6-1.9-10c-0.1-1.9-0.1-3.8,0.1-5.7c0.2-1.5,0.6-2.9,1.2-4.1c3.7-7.7,21.4-7.3,29-9.2
			c54.2-13.9,109.6-23.6,164.7-33.3c64.5-11.5,129.2-22.1,194.1-31.2c23.8-3.3,47.6-6.6,71.5-9c7.6-0.7,17-3.2,25.2-2.1
			c4.3,0.5,8.3,2.1,11.4,5.3c0.9,0.9,1.6,1.7,2.1,2.9c1.4,3.1-0.1,6.7-0.9,10c-1.2,5.2-0.9,10.5-0.4,15.9c0.1,2.6,0.5,5.3,1.9,7.6
			c0.9,1.4,2.4,2.5,3,4c1.5,3.5-0.5,8.3,0.2,12.1C949.5,677,952.3,678.9,950.8,684.7L950.8,684.7z"/>
		<path class="st3" d="M938.3,647.5c-2.6,10.8-13,18.5-21.7,24.5c-2.6,1.9-5.3,3.7-7.9,5.7c-5.1,3.6-10.2,7.3-16.1,9.4
			c-5.8,2.2-12.1,2.6-18.2,3.6c-24.9,3.5-49,12.9-69.4,27.5c-5.6,4-11,8.3-17.7,9.5c-5.8,1-11.8-0.5-17.7-0.6
			c-5.9-0.1-12.6,1.7-15.2,7.1c-0.7,1.6-1.1,3.6-2.5,4.7c-1.2,1.1-3,1.5-4.7,1.6c-19.7,2.5-39.4,3.7-59.2,4
			c-20.2,0.1-40.4-1.1-60.5-2.2c-13.1-0.7-26.2-1.5-39.2-2.2c-6.4-0.4-13.1-0.6-19.6,0.1c-6.3,0.9-12.4,2.9-18.6,4
			c-7.6,1.5-15.4,1.6-23.2,1.9c-7.8,0.2-15.9,0.5-23.7,0.6c-19.2,0.5-36.1-8.6-53.8-15.9c0.2-0.7,0.5-1.5,0.6-2.2
			c0.4-3.2-1.5-6.3-2.6-9.3c-1.2-3.2-1.6-6.6-1.9-10c-0.1-1.9-0.1-3.8,0.1-5.7c0.2-1.5,0.6-2.9,1.2-4.1c3.7-7.7,21.4-7.3,29-9.2
			c54.2-13.9,109.6-23.6,164.7-33.3c64.5-11.5,129.2-22.1,194.1-31.2c23.8-3.3,47.6-6.6,71.5-9c7.6-0.7,17-3.2,25.2-2.1
			c0.2,1.6,0.6,3,1.5,4.3c1,1.5,2.4,2.5,3,4.1c1.5,3.5-0.4,8.3,0.2,12C937.1,639.8,939.7,641.5,938.3,647.5L938.3,647.5z"/>
		<path class="st8" d="M434,689.6c-3.1,8.4,62.1,94.7,62.1,94.7s93.6-74.1,157.2-84.5c63.6-10.5,273.9,0.7,273.9,0.7
			s12.3-73.4,10.3-91.1C935.5,591.8,469.1,594.9,434,689.6L434,689.6z"/>
		<path class="st10" d="M434,689.6c-3.1,8.4,62.1,94.7,62.1,94.7s93.6-74.1,157.2-84.5c63.6-10.5,273.9,0.7,273.9,0.7
			s12.3-73.4,10.3-91.1C935.5,591.8,469.1,594.9,434,689.6L434,689.6z"/>
		<path class="st8" d="M494.3,684.1l20.6,43.6c0,0,43.5-15.5,58.5,0c15,15.5,15,30.5,15,30.5s11.2-48.7,30.2-37.1
			c19.1,11.7,35.6,29.6,35.6,29.6s26.9-44.1,50.9-29.6l23.8,14.6c0,0,19.5-44.1,49.5-46c30-1.9,42.4,2.6,44.9-5.6
			c2.6-8.3,70.4-55.3,101.8-53.4l31.5,1.9c0,0,5.9-41.9,23.9-41.9c0,0-35.9-20.8-35.2-46.7c0.2-9.9-23.2,14.7-39.7,0
			c-16.5-14.7-488.7,79.8-488.7,79.8s3.6-3.8-18.8,6.9c-22.4,10.8,8.9,8.1,0,31.1c-8.9,23.1,33-1.4,44.9,15.4
			C455,693.7,494.3,684.1,494.3,684.1L494.3,684.1z"/>
		<path class="st9" d="M494.3,684.1l20.6,43.6c0,0,43.5-15.5,58.5,0c15,15.5,15,30.5,15,30.5s11.2-48.7,30.2-37.1
			c19.1,11.7,35.6,29.6,35.6,29.6s26.9-44.1,50.9-29.6l23.8,14.6c0,0,19.5-44.1,49.5-46c30-1.9,42.4,2.6,44.9-5.6
			c2.6-8.3,70.4-55.3,101.8-53.4l31.5,1.9c0,0,5.9-41.9,23.9-41.9c0,0-35.9-20.8-35.2-46.7c0.2-9.9-23.2,14.7-39.7,0
			c-16.5-14.7-488.7,79.8-488.7,79.8s3.6-3.8-18.8,6.9c-22.4,10.8,8.9,8.1,0,31.1c-8.9,23.1,33-1.4,44.9,15.4
			C455,693.7,494.3,684.1,494.3,684.1L494.3,684.1z"/>
		<path class="st8" d="M613.1,679.7c-34,52.4-187.7,65.4-199.4,20.8c-2.9-10.9-3.2-20.6-1.9-28.9c3.6-25.7,21.7-38.8,21.7-38.8
			c64.2-33.3,167.5-15.5,183.1,21.1C619.8,661.9,619.1,670.6,613.1,679.7L613.1,679.7z"/>
		<path class="st3" d="M616.5,653.9c-0.9,2.1-2,4.2-3.3,6.3c-34,52.4-187.7,65.4-199.4,20.8c-0.9-3.2-1.5-6.4-1.9-9.4
			c3.6-25.7,21.7-38.8,21.7-38.8C497.6,599.4,601,617.4,616.5,653.9L616.5,653.9z"/>
		<path class="st8" d="M932.2,648.6c-34,52.4-187.7,65.4-199.4,20.8c-2.9-10.9-3.2-20.6-1.9-28.9c3.6-25.7,21.7-38.8,21.7-38.8
			c64.2-33.3,167.5-15.5,183.1,21.1C938.9,630.6,938.3,639.4,932.2,648.6L932.2,648.6z"/>
		<path class="st3" d="M935.5,622.8c-0.9,2.1-2,4.2-3.3,6.3c-34,52.4-187.7,65.4-199.4,20.8c-0.9-3.2-1.5-6.4-1.9-9.4
			c3.6-25.7,21.7-38.8,21.7-38.8C816.8,568.3,920,586.3,935.5,622.8L935.5,622.8z"/>
		<path class="st0" d="M663.6,398.9c161.3-13.5,300.7,127,269.6,199.8c-31.1,72.8-467.5,134.4-508.6,51.2S494,413,663.6,398.9z"/>
		<path class="st9" d="M663.6,398.9c161.3-13.5,300.7,127,269.6,199.8c-31.1,72.8-467.5,134.4-508.6,51.2S494,413,663.6,398.9z"/>
		<g>
			<path class="st6" d="M651.8,489.6c0,0-7.4,18.5,0,18.5S651.8,489.6,651.8,489.6z"/>
			<path class="st6" d="M710.9,467.6c0,0,13.5,18,14.3,9.8C725.9,469.1,710.9,467.6,710.9,467.6z"/>
			<path class="st6" d="M622.7,461c0,0-20.2,3.7-15,8.9C612.9,475.1,622.7,461,622.7,461z"/>
			<path class="st6" d="M558.2,483.4c0,0-15,1.1-12.8,6.2C547.7,494.7,558.2,483.4,558.2,483.4z"/>
			<path class="st6" d="M596.4,422c0,0-16.5-2.2-16.5,3S596.4,422,596.4,422z"/>
			<path class="st6" d="M655.2,431c0,0-2.6,14.3,3.5,12.8C664.6,442.2,655.2,431,655.2,431z"/>
			<path class="st6" d="M749.4,443.9c0,0,13.3,6.1,13.3,0C762.6,437.8,749.4,443.9,749.4,443.9z"/>
			<path class="st6" d="M702.9,413c0,0,7.3-8.2,11.2-5.9C717.7,409.3,702.9,413,702.9,413z"/>
			<path class="st6" d="M636.8,413c8.2-1.5,3.7,8.6,3.7,8.6S628.6,414.6,636.8,413z"/>
			<path class="st6" d="M588.2,521.6c0,0-9.7,5.9-8.2,10.5C581.4,536.6,588.2,521.6,588.2,521.6z"/>
			<path class="st6" d="M795.6,487.2c0,0,16.5,6.2,10.5,11.7C800,504.3,795.6,487.2,795.6,487.2z"/>
			<path class="st6" d="M702.9,533c0,0,4.6,9.2,0,10.9C698.3,545.6,702.9,533,702.9,533z"/>
		</g>
		<path class="st3" d="M933.2,598.7c-31.1,72.6-467.5,134.4-508.4,51.1c-4.5-9-7.1-19-8.1-29.5c0.9,2.5,2,5,3.1,7.3
			c41,83.3,477.4,21.6,508.6-51.2c3.7-8.7,5-18.2,4.2-28.5C938.7,566.4,939.5,583.9,933.2,598.7L933.2,598.7z"/>
	</g>
</g>
</svg>
