<?xml version="1.0" encoding="utf-8"?>
<!-- Generator: Adobe Illustrator 27.4.0, SVG Export Plug-In . SVG Version: 6.00 Build 0)  -->
<svg version="1.1" id="Modo_de_aislamiento" xmlns="http://www.w3.org/2000/svg" xmlns:xlink="http://www.w3.org/1999/xlink"
	 x="0px" y="0px" viewBox="0 0 1634.1 1691.9" style="enable-background:new 0 0 1634.1 1691.9;" xml:space="preserve">
<style type="text/css">
	.st0{fill:#A97C50;}
	.st1{fill:#784331;}
	.st2{fill:#B38B64;}
	.st3{fill:#D1A66F;}
	.st4{fill:#965A41;}
	.st5{opacity:0.35;fill:#E0C39C;}
	.st6{fill:#93533F;}
	.st7{fill:#A8745E;}
	.st8{fill:#E0C39C;}
	.st9{opacity:0.47;fill:#965A41;}
	.st10{opacity:0.57;fill:#E0C39C;}
	.st11{fill:#A35C47;}
	.st12{fill:#E1C5A0;}
	.st13{fill:#653B27;}
	.st14{fill:#462411;}
</style>
<g>
	<path class="st0" d="M1618.7,1022.9c-26.7,109.4-134.3,323.4-179.8,364.9c-45.6,41.5-49.3,33.4-64.2,53.3
		c-14.9,20.1-35.4,73.3-35.4,73.3s-27.2,28.4-32.1,32.3c-4,3.1-18.8,19.1-24.1,25.1c-17.1,8.3-61.6,29.2-115.7,50.3
		c-69.2,26.9-192.1,42.3-192.1,42.3l-165.2,3.8l-96.1,7.7l-96.1-99.9l-76.8-3.8l-88.4-30.7c0,0-30.7,11.5-50,15.4
		c-19.2,3.8-61.5-34.6-61.5-34.6l-99.9-134.5l-103.7-165.2l-46.1-42.3c0,0-30.7-38.4-50-76.8s3.8-65.3,3.8-65.3l7.7-53.8l-42.3-65.3
		l15.4-203.7l15.4-111.4L103,488.5l38.4-26.9l3.8-30.7l26.9-42.3l-3.8-23.1l19.2-69.2c0,0,15.4-30.7,57.6-69.2S395,108.1,395,108.1
		l88.4-42.3c0,0,19.2,11.5,30.7,23.1s30.7-7.7,30.7-7.7L541,46.6l92.2-26.9l73-3.8l153.7,57.6l88.4-42.3l65.3,23.1
		c0,0,11.5-23.1,149.9,34.6s203.7,123,203.7,123l15.4,50c0,0,80.7,57.6,138.3,142.2s80.7,230.5,80.7,230.5s-3.8,19.2-3.8,65.3
		s15.4,76.8,15.4,76.8l4.9-1.2C1624.1,811.8,1641.2,931.3,1618.7,1022.9z"/>
	<path class="st1" d="M523.5,1548.2l39.5,60.7c0,0,21.3,33.4,51.6,36.4c30.4,3,100.2,9.1,100.2,9.1l-94.1-90.8L523.5,1548.2z"/>
	<path class="st1" d="M94.3,1167.9c0,0-11.2,43.1-5.1,73.5c6.1,30.4,45.6,75.9,45.6,75.9l54.7-12.1l-45.6-106.3L94.3,1167.9z"/>
	<path class="st2" d="M497.5,138.1c4.7,7.6,9.4,15.2,14.1,22.7c-10.7-3.8-21.3-7.6-32-11.5c12.8,24.5,25.6,49.1,38.4,73.6
		c-5.8-24.8-34.6-38.5-60-36.1c-25.4,2.3-47.9,16.5-69.4,30.2c-21,13.5-42,26.9-63,40.4c-8.6,5.5-16.9,19.4-7.6,23.5
		c-10.4-11.8-29.7-3.4-41.9,6.4c-57.4,45.7-99,110.9-116.2,182.2c7.1-3,14.2-6.1,21.2-9.1c-5.5,14.4,17.4,21.7,32.7,19.2
		c15.2-2.5,38,0.3,36.5,15.6C167.4,556.4,126,669,149.6,769.3c-4.9-7.4-14.2-11.5-22.9-10.1c-34,111.9,21.8,229.3,75.9,332.9
		c7,13.4,14.3,27.1,25.9,36.7c6.8,5.6,14.8,9.5,22.1,14.5c23.4,16.2,37.6,42.8,59.7,60.5c22.2,17.8,61,22.1,74.6-2.8
		c-11.5,51.2,27,101.1,71.3,129.2c44.3,28.2,96.2,43.6,137.7,75.7c23.8,18.4,46.4,43.1,76.5,44.8c13.6,0.8,26.9-3.5,40.3-6.1
		c20.2-3.9,42.6-3.6,59.6,8c17,11.7,25,37.6,12.1,53.7c47.4,6.6,95.3,13.3,142.8,8.5c47.6-4.8,95.5-22.3,128.1-57.3
		c8.6-9.2,16.9-20.2,29.2-23.2c-3.2,10.8-6.5,21.7-9.7,32.5c112.9-78.1,206.7-183.6,271-304.9c15.2-28.6,28.7-58,42.2-87.4
		c9.5-20.7,19.1-41.4,28.6-62.2c17.5-38.1,35.2-76.7,41.8-118.1c4.4-28,3.7-56.7-2.3-84.4c-15.3,41.8-30.5,83.5-45.8,125.3
		c39-131.8,18.6-280-54.7-396.2c-5.1-8.1-16.3-16.7-22.6-9.6c15-20,10.5-48.4,1-71.5c-29.1-71-101.3-122.3-177.9-126.4
		c-5.6-20.9-14.7-40.8-26.8-58.7c-42-62.3-115-95-184.1-124.6c-44.7-19.1-89.8-38.4-137.5-47.9c-104.1-20.7-211.3,6.6-313.5,35.2
		c19.6,10.2,39.2,20.3,58.8,30.5L497.5,138.1z"/>
	<path class="st3" d="M813.4,173.1c-8.6-0.4-16.5-0.9-23.6-1.6c-9.5-0.9-20.3-2.6-25.8-10.5c-2.1-3.1-3.2-7-6-9.5
		c-3.2-2.9-7.9-3.3-12.2-3.6c-22.5-1.4-45-2.3-67.6-2.6c-25.2-0.3-51.3,0.2-74.2,10.9c-12.6,5.9-24.5,15-38.5,15.5
		c-51.7,2.1-11.5,76.8-6.9,98.1c-17.4-42-75.5-60.7-114.1-36.7c-5.5,3.4-11,8.3-11.6,14.7c-0.9,9.8,9.9,17.6,9.4,27.3
		c-0.3,5.8-4.5,10.6-8.8,14.5c-21.6,19-51.4,25-77,38.1c-38.4,19.7-66.2,54.7-92.8,88.6c-8.1,10.4-14.2,29.1-1.8,33.5
		c3.2,1.1,6.8,0.7,10,1.9c24,9.3-36.8,57.8-43.6,69.4c-18.5,31.1-27.2,67.3-37.6,101.6c-28,92-34.9,181.7-26,276.8
		c0.9,9.2,2.1,19.1,8.6,25.6c6.6,6.5,20.3,5.6,22.5-3.3c27.8,58.5,55.5,117,83.3,175.4c3.1,6.6,6.5,13.5,12.6,17.6
		c4.9,3.3,10.9,4.3,16.6,5.5c39,7.5,76.7,22,110.8,42.4c9.3,5.6,19.3,13,20.4,23.9c0.7,7.2-2.8,14-4.4,21
		c-4.5,19.3,5.1,39.1,17.5,54.6c36.3,45.4,93.1,64.9,147.5,78.5c35.1,8.8,71.6,17.3,100.4,40.4c9.1,7.3,22,13.9,31.8,7.5
		c3.6-2.4,6.1-6.2,9.6-8.7c9.7-6.7,23.2-0.9,32.2,6.8c8.6,7.3,16,16.3,25.8,22c16.8,9.8,37.6,8.6,57,7c12.8-1,25.6-2.1,38.4-3.1
		c34.2-2.8,80-7.1,111.5-20.9c50-22,160.8-69.8,170.1-132.6c-4.3,5.3-13.8-0.6-13.8-7.4c0-6.8,5.4-12.3,10.3-16.9
		c38.1-35.5,83-64.7,119-102c10.8-10.9,102.8-160.8,82.7-163.5c-6.9-0.9-13.8-1.9-20.8-2.8c23.8-97,47-202.7,6-293.7
		c-7.3-16.1-27.4-33.3-39.7-20.5c-2.7-52.3-5.6-105.6-23.7-154.8c-14.6-39.7-43.5-84.5-78.7-108.8c-8.7-6-21.1-10.8-29-3.9
		c-2.2,1.9-3.9,4.6-6.7,5.3c-2.4,0.6-4.9-0.5-7.1-1.5c-11.2-5.2-22.6-10.5-32.2-18.3c-9-7.3-16.2-16.6-25.8-23
		c-35.4-23.7-112.8,7.2-129.1-49.3c-6.7-23.1-6.7-48.1,0-71.2c0.4-1.2,0.7-2.5,0.6-3.8c-0.3-2.6-2.5-4.4-4.7-5.9
		C932.6,179.7,875.4,176.1,813.4,173.1z"/>
	<path class="st3" d="M126.1,482.2c-3.3,23.1-4.7,46.4-4.2,69.7c-11.6-5.2-22.1,9-26.6,20.9c-21.7,58.1-30.3,121-25.2,182.9
		c0.8,9.2,1.8,18.8-2,27.2c-2.3,5.3-6.3,9.6-9.9,14.2c-37.5,48.2-23.5,118.5,2.1,174c-40.6-26.4-41.9-84.3-38.7-132.7
		c3.2-49.4,6.5-98.8,9.7-148.2c2-30.7,4.1-61.7,12.6-91.2c16.7-58.2,56.9-106.3,96.1-152.5c-4,12.1-8,24.2-12,36.4L126.1,482.2z"/>
	<path class="st3" d="M157.9,1197.9c46.7,92.4,106.6,178.1,177.3,253.8c-0.7-5.4,7-7.2,12.4-6.4c50.1,7.4,88.5,46.7,132.3,72.1
		c36.5,21.3,77.6,33.2,118.2,44.9c-57.4,3.5-112.3-37-168.9-27c-17,3-34.6,10.5-50.8,4.5c-12.7-4.7-21.1-16.6-28.7-27.8
		c-54.7-81.1-109.5-162.1-164.2-243.2c-13.6-20.2-27.8-42.4-26.2-66.7L157.9,1197.9z"/>
	<path class="st3" d="M657.1,1569.5c40.9,19.6,86,30.3,131.3,31c3.9-15.4,7.8-30.8,11.7-46.2c-10.8,18.5,5.1,43.5,25.6,49.8
		c20.5,6.3,42.6-0.3,62.9-7.4c83.1-29.1,163.1-66.7,238.5-112.2c9.5,25.9-8.9,54.9-32.7,68.7c-23.9,13.8-52.1,17.2-78.7,24.4
		c-32.5,8.8-63.3,23.7-90.3,43.8c-7.5,5.6-15.1,11.7-24.2,14c-13.5,3.4-27.4-2.4-40.9-5.7c-29.3-7.2-61.3-2.6-87.4,12.4
		c-9.2,5.3-18.1,12-28.6,13.2c-15.3,1.7-29.2-8.6-40.6-18.8c-24.3-21.7-46.2-46-65.4-72.3c8.4,1.8,16.8,3.6,25.2,5.4L657.1,1569.5z"
		/>
	<path class="st3" d="M1176.4,1401.5c22.6,2.9,43.8-10.5,62.7-23.3c28.3-19.2,56.6-38.4,84.9-57.6c25.8-17.5,53.2-36.9,64.1-66.1
		c-17.5-21-0.9-52.6,17.9-72.5c18.7-19.9,41.7-43.3,35.5-69.9c-2.7-11.7-10.9-21.4-15.6-32.5c-19.5-46.4,26.3-97.5,18.1-147.1
		c-48.1,135.2-98.6,274.5-196.2,379.8c-42.1,45.4-92,83.3-130.8,131.4c15.4-8.3,29.4-19.3,41.2-32.2L1176.4,1401.5z"/>
	<path class="st3" d="M875.2,65.4c30.2,8.4,58.5,23.6,82.3,44c13.8,11.9,26.4,25.7,42.9,33.4c16.5,7.6,38.8,7,50-7.3
		c0.7,17.3,1.3,34.6,2,51.9c22-2.8,42.1,13.1,55.1,31c13,17.9,22,38.9,37.7,54.5c22.2,21.9,54.1,29.7,82.7,42
		c49.8,21.4,92.5,59,120.2,105.7c-5.5-49.9-17.9-99.1-36.6-145.7c-4.1-10.3-8.8-20.8-17.1-28.1c-18.1-16-45.8-11.5-69.4-6.1
		c-6.4-48.1-49.4-81.5-89-109.5c-46.8-33.1-93.5-66.2-140.3-99.3c-12.4-8.8-26.2-18-41.4-16.5c-12.3,1.2-22.7,9.1-32.3,16.8
		c-14.3,11.3-28.6,22.6-42.8,33.9L875.2,65.4z"/>
	<path class="st4" d="M1626.9,811c-5.9-33.2-18.6-65-24.7-98c-5.2-28.3-2.7-58.1-5-87.2c-5-63.1-20-125.5-44.3-183.9
		c-30.9-74.2-80.5-145.4-153.9-178.1c45.5,48.4-64.9,53.4-23.8,81.5c23.2,15.9,30.7,46.9,30.7,75.1c0,28.2-5.6,56.6-0.7,84.3
		c3.4,19.6,11.9,37.8,20.2,55.9c23,50.6,44.7,102.3,57.1,156.6c18.2,80,15.5,163.3,8.1,245.1c-2,21.9-4.4,44.2-14.1,63.9
		c-9.6,19.7-28,36.6-49.9,38.4c17.6,16.8,21.4,44.5,14.3,67.8c-7.1,23.3-23.5,42.6-41.5,59c-5.5,5-11.3,10.1-13.6,17.1
		c-4.3,13.3,5.8,27.3,4.3,41.2c-1,9.2-6.9,16.9-12.7,24.2c-36.8,46.7-73.7,93.5-110.5,140.2c-14.6,18.6-30.3,37.9-52.3,46.6
		c-25.8,10.1-60.5,6.1-75.7,29.4c23.7,3.3,47.4,6.5,71,9.8c-4,13-8.1,25.9-12.1,38.9c7.6-1.8,15.1-3.6,22.7-5.4
		c13.2,19.2,42,21.8,63,11.7c20.9-10.2,35.5-29.8,48.1-49.3c12.6-19.5,24.7-40.2,43.1-54.5c16.2-12.6,36.4-19.4,53-31.5
		c30.5-22.2,47.6-61.7,68.2-92c27.2-40,49.5-84,68.4-128.4C1612.1,1076.6,1648.6,933.9,1626.9,811z"/>
	<path class="st5" d="M522,1432.1c-32.6-24.8-74.6-53.5-93.6-89.5c-19.3-36.7-25.8-89-28.8-129.8c-6.3-86.1,17.1-170.8,73.2-237.3
		c59-69.9,131.7-131.7,201.9-189.9c141.2-117,295.4-217.8,454.7-308.3c24.5-13.9,49.8-27.9,77.7-32.3c27.9-4.4,59.2,2.4,77.1,24.2
		c-20.8-61.2-70.1-107.6-117.7-151.4c-36.9-33.9-74-68-116-95.4c-137.2-89.3-318.7-96.9-471.3-37.7S302.4,364.3,219.5,505.4
		c-22.5,38.2-42.2,78.1-57.6,119.7C105.4,778.1,111.1,953,177.6,1102C244,1250.9,370.4,1372,522,1432.1z"/>
	<path class="st1" d="M1211,843.3c-27.4,17.5-38.4,56.7-24,85.8c3.5,7.1,8.5,13.8,15.6,17.2c5.4,2.6,11.5,3.1,17.4,4
		c16.3,2.7,31.9,9.3,45.1,19.3c17.5-29.2,30.1-61.3,37.3-94.5c1.2-5.5,2.2-11.2,0.9-16.7c-2-8.5-9.6-14.9-17.8-17.9
		c-8.2-3-17.2-3.3-26-3.5c-17.6-0.4-36.1-0.6-51.6,7.7L1211,843.3z"/>
	<path class="st1" d="M829.7,639.1c-15.2,14.2-30.4,28.5-45.6,42.7c-8.6,8-17.7,17.2-18.8,28.9c-0.7,7.8,2.3,15.4,5.9,22.2
		c16.1,30.6,44.5,52.5,72.1,73.4c3.7,2.8,7.6,5.7,12.1,6.9c9.5,2.5,19-3.1,27.1-8.5c48.6-32.9,95.6-78.7,100.9-137.2
		c0.3-2.8,0.4-5.6-0.7-8.2c-1.4-3.4-4.6-5.6-7.7-7.6c-26.4-17.4-52.8-34.7-79.3-52.1c-25,20.1-51.3,38.5-78.7,55L829.7,639.1z"/>
	<path class="st1" d="M881.7,1163.8c-20.4,24.2-37.1,51.6-49.1,80.9c28.7,16.6,58.5,31.2,89.2,43.8c3.3,1.3,6.7,2.7,10.2,2.2
		c3.3-0.5,6.2-2.5,8.9-4.5c55.5-42,101.1-104.9,99.8-174.5c-18.1-0.4-35.5,5.8-52.5,11.9c-13.5,4.9-27,9.7-40.4,14.6
		c-24.8,8.9-49.8,18-71.8,32.5L881.7,1163.8z"/>
	<path class="st1" d="M994.6,227.7c-3.2,26.4-3.7,53.1-1.3,79.6c0.2,2.8,0.6,5.7,2.4,7.8c1.6,1.9,4,2.7,6.3,3.5
		c31.2,10.7,62.7,20.7,94.5,29.8c13.8-42.3,6.9-90.9-18.1-127.7c-1.6-2.3-3.3-4.7-5.7-6.1c-6.4-3.9-14.6-0.2-21.4,2.9
		c-17.8,8.2-37.3,12.7-56.9,13c3.4-4.7,9.9-6.8,15.4-4.9L994.6,227.7z"/>
	<path class="st1" d="M787.1,280.1c-8.5,19.2-12.4,40.4-11.2,61.3c0.2,3.6,0.6,7.3,2,10.6c3.1,7.1,10.6,11.5,18.2,13
		c18.8,3.8,39.1-8.1,46.5-25.9c7.4-17.8,2.2-39.5-11-53.4c-6.8-7.1-16-12.5-25.8-12.5c-9.8,0-19.9,6.3-22.2,15.9L787.1,280.1z"/>
	<path class="st1" d="M520,443.8c-14.4,27.4-21.6,58.5-20.8,89.4c0.1,3.5,0.4,7.2,2.4,10.1c1.5,2.1,3.8,3.5,6.1,4.9
		c30.1,17.9,60.2,35.9,90.3,53.8c2.2,1.3,4.6,2.7,7.1,2.5c1.8-0.1,3.5-1,5.1-1.9c42.6-24.1,75.9-64.4,91.7-110.8
		c-46.3-47.6-118-68.9-182.8-54.3c-1.8,0.4-3.8,1-4.6,2.7c-0.8,1.6,1,4.2,2.6,3.2L520,443.8z"/>
	<path class="st1" d="M523.8,1083.3c8-42.1,24.6-82.5,48.4-118.2c1.2-1.8,2.5-3.7,4.5-4.4c2.4-0.9,5,0,7.4,1
		c51.4,20.3,97.4,54.1,132.2,97c-12.2,13.2-24.5,26.4-36.7,39.6c-11.1,12-24,24.8-40.3,25.4c-8.5,0.3-16.7-2.9-24.6-6
		c-30.6-12-61.2-24.1-91.8-36.1c-2.1,1.6-3.3,4.3-3.1,7L523.8,1083.3z"/>
	<path class="st1" d="M245.5,819.9c-7.3,40.9-14.6,81.7-21.9,122.6c-1.4,7.7-2.7,15.7-0.6,23.2c2.5,8.9,9.5,15.8,16.5,21.9
		c15.7,13.6,32.9,25.3,51.3,34.9c3.8,2,8.1,3.9,12.3,3.1c5.1-1.1,8.5-5.8,11.2-10.3c27.4-43.6,51.1-89.4,70.9-136.9
		c3-7.1,5.9-14.6,5.4-22.3c-0.8-11.7-9.7-21.6-20.2-26.8c-10.5-5.2-22.4-6.6-34-7.6c-26.3-2.4-52.7-3.5-79.1-3.5
		c-6.5,0-14.1,0.7-17.5,6.2L245.5,819.9z"/>
	<path class="st6" d="M1078.3,220.7c0,0-14.3,73.5-32.4,82.5s-50.3,11.9-50.3,11.9s35.2,18.3,53.3,21.3c18.1,3,47.5,12,47.5,12
		S1125.9,258.8,1078.3,220.7z"/>
	<path class="st6" d="M774.6,719.3l87.4,36.2l63.3-69.3l-29.6-86.6C895.8,599.5,780.6,644,774.6,719.3z"/>
	<path class="st6" d="M620.8,448l-12.1,66.3l-107.1,29l1.6-59.1l15.8-46.7C519,437.4,602.7,420.9,620.8,448z"/>
	<path class="st6" d="M232.1,933.5c21.7-15.5,44.1-30.3,66.1-45.3l87-9.8c0.2,0-15.4-48.3-20.7-52.4c-23.3-18.1-91.9-11.6-119.5-9.3
		C242.6,855.3,228.9,895,232.1,933.5z"/>
	<path class="st6" d="M539.4,1041.9l66.3-12.1l120.6,27.1L660,993.7l-75.9-32.1C584.1,961.6,559,995.3,539.4,1041.9z"/>
	<path class="st6" d="M843.9,1240.9c0.4,0,84.4-9,84.4-9c13.4-30.3,27.1-52.2,27.3-85.6c0-2.6-0.1-5.6-2.2-7.3
		c-3.7-3-8.7,1.3-12.8,3.9c-8.3,5.3-19.2,3.2-28.9,4.6c-13.7,2-25.3,11.5-33.2,22.9C875,1175.5,842.2,1241.1,843.9,1240.9z"/>
	<path class="st6" d="M1198.9,931.8c17.7,5.6,34.2-10.9,44.9-26.1c6.7-9.6,13.3-19.6,15.7-31.1c2.4-11.4-0.2-24.6-9.2-32.1
		c-10.8-9-27.8-6.8-39.1,1.6c-11.3,8.4-18.1,21.4-23.5,34.4c-5.2,12.4-9.5,26-6.3,39c3.3,13,17,24.1,29.7,19.9L1198.9,931.8z"/>
	<path class="st7" d="M1417,277.4c-9.2,21.8-27,39.9-48.7,49.4c-17.5-26.7-39-50.7-63.7-71c-1.5,33.9,13.3,68.1,38.9,90.3
		c11.1,9.5,23.9,16.9,34.5,27c18.4,17.6,28.5,43.5,27,68.9c-0.9,15.7-6,31-6.4,46.7c-0.4,18,5.3,35.4,10.9,52.5
		c12,36.3,24.1,72.6,36.1,108.8c6.7,20.1,13.4,40.4,25.1,58c5.9,8.9,13,17.2,16.6,27.3c2.9,8.1,3.2,16.9,3.5,25.5
		c1.9,51,3.7,102.1,5.6,153.1c1.5-5.9,5.3-11.2,10.5-14.4c12.6,12.5,21.5,28.8,25.3,46.2c10.2-31.1,20.3-62.2,30.5-93.3
		c10.8,6.8,25.2,7.5,36.6,1.6c0.1,10.3,11.5,18.8,21.4,15.9c2-35.7-1.8-71.5-5.6-107.1c-8.1-75-16.2-150.3-33.5-223.7
		c-24.2-102.2-71.4-206.2-160.9-261.1c-4.3-2.7-10.5-5-13.9-1.2c-3.4,3.8,6.5,8.7,5.6,3.8L1417,277.4z"/>
	<path class="st4" d="M1317.8,290.2c22.5,23.6,44.9,47.2,67.4,70.7c5.5-3,10.9-6.1,16.4-9.1c6.4,40.5,43.2,74.1,84.2,76.8
		c-22.3-10.4-48,13.2-50.5,37.7c-2.4,24.5,9.8,47.6,19.5,70.2c15.1,35.1,24.7,72.5,28.6,110.6c15.8,0.4,31.6,0.9,47.4,1.3
		c-11.1,3.3-22.2,6.7-33.3,10c23.7,76.3,0.6,148.6,14.6,223.4c4.5,23.8,33.8,39.4,56,29.7c27.3-11.9,32.9-47.5,34.6-77.3
		c1.8-31.5,3.6-62.9,5.5-94.4c22.1,99.9,21.2,204.9-2.8,304.4c-3.8-26.3-7.9-53.6-22.4-75.9c-6.8-10.5-17-20.1-29.4-20.9
		c-53.3-3.3-65.6,99.7-77.4,133.4c-20.5,58.4-44.7,115.5-72.6,170.7c-16.2-6.6-18.9-29.4-11.7-45.3c7.2-15.9,20.9-27.8,30.5-42.4
		c19.2-29.3,19.4-69.8,0.6-99.3c37.7-7,52.2-52.5,57.7-90.4c10.9-75.4,15-151.7,12.1-227.8c-0.3-7.1-0.7-14.5-3.9-20.8
		c-4.1-8.1-12.2-13.3-18.5-19.8c-11-11.5-16.5-27-21.7-42.1c-13.4-38.9-26.7-77.8-40.1-116.7c-7.4-21.5-14.9-43.8-13.1-66.4
		c1.6-20.7,10.8-40.8,8.2-61.4c-6.6-53-83.7-74.6-90.4-127.6c12.7-5.2,25.4-10.4,38.1-15.6L1317.8,290.2z"/>
	<path class="st4" d="M784.1,1648.7c21.8-30.4,68.8-14.5,106-18.4c23.6-2.5,45.1-14.2,66.3-24.9c28.2-14.2,57-27.1,86.4-38.5
		c22.1-8.6,45-16.7,63.2-31.9c18.2-15.2,30.9-39.6,25.1-62.6c68.8-11.4,133.2-47.5,178.8-100.2c-20.8,35.5-111.2,89.4-101.9,134.7
		c1.7,8.5,7.9,15.5,15.2,20.1c24.7,15.4,57.2,3.6,81.5-12.4c21.5-14.2,41.1-31.7,55.1-53.4c-33.2,65.6-92.1,117.7-161.3,142.8
		c6.8-14-4.2-31.4-18.6-37.1c-60.4-24-142.4,33.2-196.7,53.5c-63.8,23.9-134,40-199.7,22.4c-7,5.5-14,11.1-21,16.6L784.1,1648.7z"/>
	<path class="st8" d="M413.8,649.6c35.5-5.1,70.4-14.2,103.9-27.1c5.9-2.3,11.9-4.7,18.1-4.5c5.5,0.2,10.8,2.4,15.9,4.6
		c16.5,7,32.9,14,49.4,21c4.5,1.9,9.5,3.8,14.1,2.3c3-1,5.3-3.4,7.5-5.7c49.5-52.5,92.1-111.6,126.2-175.2
		c-19,2.2-34.8,15.9-45.8,31.6c-11,15.7-18.3,33.6-28.5,49.8c-14,22.1-33.4,40.8-56,53.8c-10.4,6-23.7,10.8-33.9,4.4
		c-7-4.4-10.5-13.1-17.5-17.5c-9.8-6.1-22.5-2.1-33.2,2.3c-48.6,20.2-95.1,45.3-138.5,75L413.8,649.6z"/>
	<path class="st8" d="M787.3,781.1c-9.9,4.8-19.8,9.7-29.7,14.5c38.9,28.7,78.5,56.5,118.6,83.3c2.9,1.9,5.9,3.9,9.3,4.2
		c4.3,0.4,8.2-1.9,11.7-4.4c26.1-18.1,42.6-47,55-76.3c17.1-40.5,27.9-83.7,32-127.4c-18.6,44.2-46.2,84.7-80.6,118.2
		c-15.8,15.4-37.8,30.2-58.4,22.2c-17.6-6.9-27.4-28.7-46-31.9c-11.4-2-22.5,3.8-32.6,9.3L787.3,781.1z"/>
	<path class="st8" d="M458.8,1083c65.4,29.1,130.7,58.1,196.1,87.2c3.7,1.6,7.7,3.3,11.5,2.3c3.6-0.9,6.3-3.9,8.7-6.7
		c43.8-50.8,87.7-101.6,131.5-152.4c-40.3,13.6-77.7,36.1-108.6,65.4c-18,17-38.2,38-62.7,34.5c-10.7-1.6-20.1-7.8-30.4-11.1
		c-12.5-4-25.8-3.8-38.9-4.2c-36.2-1.1-72.2-7.9-106.4-20L458.8,1083z"/>
	<path class="st8" d="M300.7,801c34.1-0.9,68.1-1.7,102.2-2.6c7.9-0.2,18.9,2.6,18.1,10.5c-2.4,24.5,10.8,48.7,7.8,73.1
		c-2.6,21.5-17.2,39.3-31.4,55.6c-30.1,34.5-61.4,68-93.7,100.5c23.5-45.4,47-90.8,70.4-136.3c10.7-20.7,21-47.5,6.3-65.6
		c-24.5-7.3-48.4-16.8-71.2-28.4c-2.8-1.4-5.8,1.7-8.8,1.7c-3.1,0.1-0.9-6.3-0.1-3.4L300.7,801z"/>
	<path class="st8" d="M840.9,1260.8c27.9,22.5,56.8,43.7,86.6,63.7c2.8,1.9,5.9,3.8,9.2,3.5c3.2-0.3,5.8-2.5,8.2-4.7
		c67.8-60.9,138.8-127.9,158.9-216.7c-14.8-0.2-29.5-0.5-44.3-0.7c-4.3-0.1-8.8,0-12.3,2.4c-3.2,2.2-4.8,6.1-6.2,9.8
		c-12.6,33.1-19.7,68.6-37.8,99c-15.6,26.3-38.6,47.2-61.2,67.7c-3.9,3.5-8.1,7.2-13.3,7.8c-4.3,0.5-8.5-1.2-12.5-2.9
		c-27.2-11.5-54.3-22.9-81.5-34.4L840.9,1260.8z"/>
	<path class="st8" d="M1237.3,974.3c-21.2-16.4-59.8,10.2-76-11.2c-2.8-3.6-4.1-8.1-5.3-12.5c-6.2-22.8-9.1-47-4.5-70.2
		c4.6-23.2,17.4-45.4,37.4-58c25.1-15.9,57.1-14.8,86.7-12.9c5.2,0.3,10.5,0.7,15.2,2.9c15.1,6.9,16.8,27.3,16.3,43.9
		c-24-27.2-68.8-31-99.2-11.1c-16.5,10.8-29.2,28.1-32,47.7c-2.8,19.5,5.3,40.9,21.9,51.6c12.6,8.2,30,11.1,36.8,24.6
		c1.1,2.3,1.6,5.6-0.7,6.8c-2.3,1.2-3.6-4.2-1.2-3.3L1237.3,974.3z"/>
	<path class="st8" d="M784.9,383c1.7,8.8,10.8,14.1,19.4,16.3c32.6,8.2,69.5-17.4,73.1-50.9c3.6-33.5-26.9-66.4-60.5-65.4
		c19.3,13.9,29.8,41,20.2,62.8c-9.6,21.8-41.5,31.5-59.2,15.7c-0.7,8.2,3,16.6,9.4,21.8L784.9,383z"/>
	<path class="st8" d="M904.9,184.4c34.2,17,48.1,58.7,51.2,96.7c1,12.2,1.4,24.9,6.8,35.9c13.8,28.1,51.2,32,82,37.8
		c62.5,11.8,120.2,47.6,158.4,98.5c-8.8-34.2-31.2-64.2-60.4-84.1c-41.1-27.9-92.3-35.2-139-52c-3.9-1.4-8-3-10.8-6.1
		c-2.9-3.2-4.1-7.7-5-12c-5.4-25.8-4.6-52.8,2.3-78.2c-25-20.5-56.6-32.9-88.9-35c2,3.3,4,6.6,6,9.9L904.9,184.4z"/>
	<path class="st8" d="M170.8,822.7c-21.1-116.4,8.6-241,79.8-335.4c6.6-8.7,13.8-17.8,15-28.7c1.2-10.9-6.8-23.5-17.7-22.6
		c37.2-53.4,86.2-98.5,142.5-131.1c22.6-13.1,50.6-34.7,40.2-58.7c11.8-19.8,39-25.8,61.3-20c22.3,5.8,41,20.8,58.8,35.4
		c-6.2-15.6-12.4-31.2-18.6-46.7c-2.8-7.1-5.6-15.3-2-22.1c2.4-4.6,7.3-7.3,12-9.7c85.6-43.6,187.7-53.8,280.2-27.9
		c-79.4-6.7-160.8,11.7-229.6,52c-7.4,4.3-15,9.2-19.5,16.5c-15.4,24.5,11,57.3,1.7,84.6c-23.2,2.2-40.6-21.6-63.2-27.1
		c-23.2-5.7-46.1,8.7-65.4,22.8c-52.1,37.9-102.4,78.3-150.6,121.2c10.6,6.8,21.2,13.6,31.8,20.4C221,526.5,158.9,662.5,167.6,796
		c1.2,17.8,1.3,39.9-14.4,48.5L170.8,822.7z"/>
	<path class="st9" d="M142,1060.3c0,0,91.7,204.6,155.2,285.7c63.5,81.1,172.8,130.5,222.2,148.2c49.4,17.6,208.1,14.1,208.1,14.1
		s-201.1-21.2-342.2-134C244.3,1261.3,142,1060.3,142,1060.3z"/>
	<path class="st10" d="M197,293.4l-21.8,46l-0.2,37l101.2-89.1c0,0,80.8-69,117.1-88.4c36.3-19.4,94.5-9.7,94.5-9.7l-8.2-39.8
		c10.5-20.6,36.1-28.6,56-35.2C559,106.4,595,87.7,619,86.8c-10.1,0.4-15-14.1-9.8-22.7c5.2-8.7,15.7-12.3,25.5-14.9
		c65.4-17.5,136.6-18.4,199.7,6.2C761.5,2.7,660-7.4,578.2,29.8c-11.3,5.1-23.1,12-27.5,23.6c-3.9,10-1.6,22.2-7.6,31.1
		c-11.7,2.1-35.5-0.8-43.2-11.7c-0.1-0.2-13.7-19.2-13.7-19.2S252.8,162.5,197,293.4z"/>
	<path class="st11" d="M106.3,1175.1c7.6,46.9,25.6,92.1,52.4,131.3c-7.3,5.5-17.8,5-25.8,0.8s-14.2-11.3-19.4-18.8
		c-25.7-36.7-34.5-84.7-23.7-128.1c6.8,6.7,15.2,11.7,24.4,14.4L106.3,1175.1z"/>
	<path class="st12" d="M484.7,56c-74.6,13.1-149.8,75.9-207.3,122.5C218.9,226,172.1,286.9,163.6,363.7c-1,8.8,14.2,10.9,15.5,2.1
		c12.2-81.1,61.4-139.4,124.7-188.1c28.6-22,58.4-42.9,88.8-62.4c30.6-19.6,64.2-33.6,94.7-53.2C490.7,60,488.5,55.3,484.7,56
		L484.7,56z"/>
	<path class="st12" d="M267.5,288.8c-36.2,35.3-77.9,60-105,104.3c-23,37.5-35.8,80.6-37.8,124.4c-0.4,7.8,11.2,7.5,11.9,0
		c4.8-45.8,16.5-89.8,42.9-128.2c25-36.3,60.9-65.5,91.7-96.8C273.7,290.2,270,286.4,267.5,288.8L267.5,288.8z"/>
	<path class="st12" d="M133.3,442.5c-23,19.1-39.1,45.8-54.8,71c-15.4,24.6-35.1,52.4-41.1,81c-1,4.6,5.2,9.5,8.8,5.1
		c17.6-21.8,28-50,42.6-74.1c16.1-26.5,36.8-50.6,50.6-78.4C141.4,443.1,136.7,439.7,133.3,442.5L133.3,442.5z"/>
	<path class="st12" d="M37.4,586.2C14.7,688,9.9,796.8,7.4,900.7c-0.3,11.2,17.2,11.2,17.5,0c2.5-105.1,15.6-208.4,22.8-313.1
		C48.1,581.8,38.7,580.5,37.4,586.2L37.4,586.2z"/>
	<path class="st12" d="M9.9,910.7c11,19.4,21.7,39.1,33.3,58.1c5.3,8.7,18.6,0.9,13.6-8c-10.9-19.5-22.8-38.4-34.3-57.5
		C17.7,895.2,5.2,902.5,9.9,910.7L9.9,910.7z"/>
	<path class="st12" d="M52.9,969.2c-3.1,11.5-5.6,23.2-8.7,34.8c-3.1,11.5-8.5,22.4-11,34c-1.5,7.2,7.8,11.4,11.9,5
		c12.7-19.8,17.2-49.6,15.7-72.7C60.5,965.9,54.1,964.6,52.9,969.2L52.9,969.2z"/>
	<path class="st13" d="M78.7,1168.7c-9,49.1,7.1,107.2,45.9,140.2c5.7,4.8,13.1-2.5,8.2-8.2c-33.7-38.7-46.3-79.6-42.7-130.4
		C90.5,1163.8,79.9,1162.3,78.7,1168.7L78.7,1168.7z"/>
	<path class="st13" d="M132.9,1317c21.2,5.8,44-1,62.3-12.1c6-3.6,0.5-13.1-5.5-9.4c-17.7,11.1-35.3,13.5-55.8,14
		C129.7,1309.7,128.7,1315.8,132.9,1317L132.9,1317z"/>
	<path class="st13" d="M144.5,1215.8c22.9,53.4,54.8,104.3,87.9,151.8c30,42.9,62.5,90.3,102.2,124.5c4.2,3.6,11.9-1.2,8.2-6.3
		c-32.3-44.9-70.8-84.8-102.3-130.7c-32-46.7-58.4-95.9-86.9-144.6C150.2,1204.3,141.9,1209.6,144.5,1215.8L144.5,1215.8z"/>
	<path class="st13" d="M337.3,1503.8c23.5,48.4,86.7,60.1,130.9,32.2c9.2-5.8,1-20-8.5-14.6c-41.6,23.7-85.2,9.9-120-19.4
		C338.4,1500.9,336.6,1502.2,337.3,1503.8L337.3,1503.8z"/>
	<path class="st13" d="M441,1502.2c-6,3.7-5.4,3.2-9.2,9.3c-1.9,3-0.8,7.9,2.5,9.5c57.7,29.3,119.8,52.8,185.2,52.9
		c10.1,0,10-15.2,0-15.6c-34.7-1.5-67.4-7.2-100-18.8c-13-4.6-77.5-22.8-76.7-36.4C442.7,1502.3,441.7,1501.8,441,1502.2L441,1502.2
		z"/>
	<path class="st13" d="M530,1568.4c1.8,15.4,12.7,29.5,21.9,41.5c7.8,10.2,18.8,26.9,32.1,29.6c3.1,0.6,6.8-2.1,5.5-5.5
		c-4.2-12-17.7-20.7-25.7-30.5c-9.7-11.8-16.6-27.2-27.9-37.6C533.9,1564.1,529.6,1565.2,530,1568.4L530,1568.4z"/>
	<path class="st13" d="M585.2,1642.4c69.8,37.5,165.1,34.7,234.4-2.6c7.5-4.1,2.4-17.2-5.9-14.1c-78.4,29-143.9,29.3-223.9,5.8
		C583.4,1629.6,579.2,1639.2,585.2,1642.4L585.2,1642.4z"/>
	<path class="st13" d="M814.4,1630.4c24.2,4.5,53.8,10.1,78.2,6.1c6-1,5.2-9.9,0-11.3c-23.3-6.6-53.2-4.3-77.1-2.5
		C811.3,1622.9,809.7,1629.5,814.4,1630.4L814.4,1630.4z"/>
	<path class="st13" d="M884.7,1645.7c84.9-29.4,166.7-70.2,246.2-111.8c9.2-4.8,1-18.9-8.2-14c-79.2,42.3-161,78-242.1,116.2
		C875.3,1638.6,879.1,1647.6,884.7,1645.7L884.7,1645.7z"/>
	<path class="st13" d="M1128.5,1529.4c5.3-16.1,15.7-35.1,15.7-52.3c0-6.1-8-7.9-11.1-3c-9.1,14.4-10.5,36.1-14.5,52.5
		C1117,1533.2,1126.5,1535.7,1128.5,1529.4L1128.5,1529.4z"/>
	<path class="st13" d="M1135.2,1476.4c129.5,16,198-140.7,269.7-219.5c7.6-8.4-4.8-20.9-12.5-12.5c-74.4,82-130.1,217.3-257.3,221.5
		C1128.2,1466.2,1128.6,1475.6,1135.2,1476.4L1135.2,1476.4z"/>
	<path class="st13" d="M1398.8,1252.9c-1.6-7.4-4.2-14.4-6.6-21.6c-1.9-5.8-2.6-13.1-8.6-16c-2.8-1.4-5.3-0.1-6.5,2.6
		c-2.6,6.2,2.4,13.3,4.8,18.9c2.8,6.6,5.3,13.2,8.8,19.4C1393.3,1260.8,1399.9,1257.6,1398.8,1252.9L1398.8,1252.9z"/>
	<path class="st13" d="M1378.7,1217.8c8.4-5.1,16.4-11,24-17.1c7-5.6,16.6-10.8,19.8-19.4c1.6-4.4-3.1-7.7-7-7
		c-8.3,1.5-15.1,10.4-21.2,15.8c-7.3,6.5-14.5,13.4-21,20.8C1370.2,1214.4,1374.2,1220.5,1378.7,1217.8L1378.7,1217.8z"/>
	<path class="st13" d="M1421.2,1182c5.8-12.7,12-25.2,17.3-38.1c5.3-12.7,12.4-25.6,14.1-39.3c0.7-5.7-7.1-6.3-9.8-2.6
		c-7.5,10.4-10.9,24-15.4,35.9c-5.1,13.4-9.3,27.3-14,40.9C1412,1183.2,1419.2,1186.3,1421.2,1182L1421.2,1182z"/>
	<path class="st13" d="M1446.4,1102.1c-8.8-9.6-12.1-21.5-13.8-34c-1.2-8.5-13.2-5.4-13.9,1.9c-0.8,8,2,16.7,5.6,23.7
		c3.9,7.6,9.2,11.8,16.8,15.3C1445.5,1111.1,1449.9,1105.9,1446.4,1102.1L1446.4,1102.1z"/>
	<path class="st13" d="M1420,1069c50.9,8.8,62.7-55,67.6-92.2c5.7-42.7,9.4-85.7,11.3-128.7c1.8-40.2,6.3-83.5-2.2-123.1
		c-1-4.8-9.3-5.2-10.1,0c-7.4,49.9-1.5,102.9-4.6,153.5c-2.9,46.9,4.1,171.7-60.7,179.7C1415.9,1058.9,1413.2,1067.9,1420,1069
		L1420,1069z"/>
	<path class="st13" d="M1488.5,728.6c-3.4-7.9-8.2-14.9-13.2-21.9c-3.1-4.5-9.1-15.1-16-9.8c-6.7,5.1,1,13.4,4.3,17.9
		c5.3,7,10.3,14,16.9,19.9C1485,738.7,1490.7,733.7,1488.5,728.6L1488.5,728.6z"/>
	<path class="st13" d="M1455.6,790.6c33.7-94.3-20.6-199.7-58.2-285.4c-3-6.9-15-1.9-12.3,5.2c34.9,91.3,80.9,177.7,65.5,278.8
		C1450.2,792.4,1454.5,793.7,1455.6,790.6L1455.6,790.6z"/>
	<path class="st13" d="M1391.4,509.4c10.1-8.3,14-24.3,17.3-36.5c3.2-12,8.7-29.1,4-41c-1.3-3.2-6-4.6-7.9-1
		c-6.2,11.3-5.2,26.1-8.5,38.6c-3.3,12.4-10.8,24.4-11.3,37.3C1384.8,510.3,1389.1,511.4,1391.4,509.4L1391.4,509.4z"/>
	<path class="st13" d="M1411.4,433.8c5.5-18.1-11.3-43.6-21.7-57.6c-12.1-16.3-28-31.1-47-38.8c-7.1-2.9-11,8.1-5,11.9
		c17.6,11.2,32.9,22.6,44.8,40.2c9.5,14,11.9,33.8,23.4,45.7C1407.6,437.1,1410.7,436.1,1411.4,433.8L1411.4,433.8z"/>
	<path class="st13" d="M1347.5,427.3c-3.6-62.5-23.3-123.3-47.5-180.6c-3.2-7.6-16.7-2-13.4,5.7c24,57.3,38.6,116.1,55.1,175.8
		C1342.6,431.2,1347.7,430.7,1347.5,427.3L1347.5,427.3z"/>
	<path class="st13" d="M1278.1,241.3c-2.4,0.8-5.4,0.6-8,1.2c-4.3,1-8.4,1.6-12.9,1.3c-7-0.4-13.3-3.7-20.3-2.8
		c-2.7,0.4-3.7,4-2.5,6.1c4.4,7.4,14.8,8.9,22.8,9c4.5,0,9.1-0.5,13.4-1.7c5-1.3,6.5-3.5,10.5-5.9
		C1284.9,246.3,1282.5,239.8,1278.1,241.3L1278.1,241.3z"/>
	<path class="st13" d="M1238,238.2c-6.7-16.9-15.5-33-23.5-49.4c-7.8-15.8-14-34.7-26.6-47.2c-2.9-2.9-6.8,0.2-6.3,3.7
		c2.4,16.5,13,31.6,20.5,46.3c8.7,16.8,16.7,34.3,26.7,50.4C1231.6,246.7,1240.2,243.7,1238,238.2L1238,238.2z"/>
	<path class="st12" d="M1181.3,141.3c-14.7,5.5-48-20.9-60.4-29.6c-24.6-17.4-46.1-38.8-70.2-56.9c-27-20.3-63-44.7-98.2-35.8
		c-3.8,1-3.5,6.3,0,7.4c32.7,10.5,62.1,17.7,90.5,38.4c24.8,18.1,46.6,40,71.4,58.2c11.3,8.3,60,48.7,70.1,21.5
		C1185.1,142.7,1183.1,140.6,1181.3,141.3L1181.3,141.3z"/>
	<path class="st12" d="M865,61.6c18.2-3.1,32.9-10.4,49.5-18.5c15.5-7.6,33.7-13.6,46.5-25.3c3.6-3.3-0.3-8.3-4.4-7.5
		c-17.1,3-33.1,14.1-48.5,21.9c-16.3,8.2-30.8,15.4-44,27.8C863.2,60.6,864.1,61.7,865,61.6L865,61.6z"/>
	<path class="st12" d="M900.1,74.7C796.5,10.6,659.9-34,547.9,34.1c-9,5.5-0.8,19.6,8.3,14.1C670.9-21,786.4,38.1,896.7,82.8
		C901.4,84.7,904.2,77.3,900.1,74.7L900.1,74.7z"/>
	<path class="st12" d="M483.6,67.7c8.1-2.5,21.7,12.7,29.5,15.5c8.5,3,18.1,3.4,26.1-1.1c13-7.2,17.8-24.8,10.2-37.4
		c-4.3-7.2-14-0.9-11,6.4c3.3,7.8-1.3,16-8.6,18.6c-9.5,3.3-17.7-3.8-24.6-9.1c-8.1-6.2-15.4-10.9-25.8-7.9
		C470,55.6,474.1,70.6,483.6,67.7L483.6,67.7z"/>
	<path class="st12" d="M499,139c71.7-39.7,169.8-51.3,250.5-52.4c86.3-1.2,162.5,19.4,236.3,63.6c4.3,2.6,7.5-3.7,3.8-6.5
		C922,92,832.7,75.6,749.5,76.3c-88.1,0.7-176.1,14.1-252.2,59.9C495.5,137.2,497.1,140,499,139L499,139z"/>
	<path class="st13" d="M615.7,1568.7c23,30.5,57.5,58.4,88.5,80.6c5.4,3.9,12.2-4.9,7.1-9.2c-14.7-12.7-29.8-24.7-44.1-37.8
		c-14.3-13.2-27-28.5-41.9-41C620.5,1557.1,611.2,1562.8,615.7,1568.7L615.7,1568.7z"/>
	<path class="st13" d="M977.7,1526.3c18.2-8.7,38.7-16.5,54.4-29.4c2.4-2-0.2-5.9-3-5.1c-19.5,5.8-37.4,18.6-54.8,28.8
		C970.6,1522.7,973.9,1528.1,977.7,1526.3L977.7,1526.3z"/>
	<path class="st13" d="M1063.4,1474.3c86.5-39.4,157.5-109.7,217.3-182.9c49.2-60.2,109.6-145.7,112.8-226.4c0.1-3-4.7-4.6-6-1.6
		c-16.9,38.8-25.7,79.4-45.7,117.5c-21.2,40.3-47.6,77.6-76.8,112.5c-55.2,65.9-123.8,142.6-202.2,180
		C1062.2,1473.6,1062.8,1474.6,1063.4,1474.3L1063.4,1474.3z"/>
	<path class="st13" d="M1401.6,1046.6c1.8-4,3.6-8,5.4-12.1c1.4-3.2,3.5-6.5,2.7-10.1c-0.3-1.4-2-1.9-3.1-1.3
		c-3.1,1.7-4.2,5.6-5.6,8.7c-1.7,3.8-3.4,7.6-5.1,11.4C1394.2,1047.1,1399.9,1050.5,1401.6,1046.6L1401.6,1046.6z"/>
	<path class="st13" d="M90.3,891.7c26.6,161.8,107,316.1,224.3,430.9c112.6,110.2,277.7,196,438.3,195.4c10,0,9.3-13.9,0-15.1
		c-83.5-10.8-161.7-25.4-238.6-61.6c-73.2-34.4-139.7-81.7-197.1-138.7c-113.7-112.8-183.5-258.3-222.9-412.2
		C93.7,887.9,89.9,889.1,90.3,891.7L90.3,891.7z"/>
	<path class="st4" d="M152.1,643.4c10.1-30.2,22.1-60.3,39.3-87.1c15.4-24.1,36.7-42.2,53.8-64.7c2.3-3-2-6.5-4.9-4.9
		c-50.5,28.7-83.9,100.4-95.3,154.8C144.1,646.1,150.6,647.9,152.1,643.4L152.1,643.4z"/>
	<path class="st0" d="M990.5,238.7c29.7-9.4,56.4-14.6,87.8-13.6c8,0.3,7.8-11.6,0-12.3c-30.4-2.8-64.3,3-91.4,17.3
		C982.2,232.6,985.4,240.3,990.5,238.7L990.5,238.7z"/>
	<path class="st0" d="M1076.6,223.6c11.6,19.7,21.9,37.2,24.4,60.5c2.3,21.5-4.7,39.7-6.7,60.5c-0.3,3.3,4.6,5.3,6.7,2.8
		c27.4-32.8,13.8-103.1-17.1-129.5C1080,214.6,1073.7,218.8,1076.6,223.6L1076.6,223.6z"/>
	<path class="st2" d="M1190.2,407.9c-5.4-8.8-6.6-15.4-14-23.5c-7.2-7.8-15-14.9-23.4-21.3c-12.5-9.5-32.7-26.1-49.2-22.9
		c-3.5,0.7-3.8,5-1.9,7.2c5.5,6.5,12.8,7.5,20.6,11.2c8.4,4,16.5,8.7,24.1,14.1c8,5.7,15.4,12.3,22.3,19.4
		c5.7,5.9,14.3,11.5,19.3,17.6C1189,411,1191.1,409.3,1190.2,407.9L1190.2,407.9z"/>
	<path class="st2" d="M899.4,182.2c15.5,6.4,32.1,8.7,47.6,15.2c17.6,7.3,33.1,17.5,48,29.4c5.2,4.1,12.5-2.8,7.4-7.4
		c-25.6-23.1-67.2-48.1-103-41.2C897.1,178.5,897.7,181.5,899.4,182.2L899.4,182.2z"/>
	<path class="st2" d="M905.3,616.9c12.7,10,26.4,17.5,40.5,25.4c11.9,6.7,25.1,17.7,39,18.2c2.7,0.1,4.8-3.3,3.3-5.7
		c-7.7-11.5-24-16.9-35.9-23.4c-14.1-7.8-27.9-15.5-43.1-21C905.5,609,902.2,614.5,905.3,616.9L905.3,616.9z"/>
	<path class="st13" d="M976.5,656.8c-4.1,40.7-32.5,75.4-58.1,105.9c-19.5,23.4-44.3,35.3-66.3,54.8c-3.2,2.8-0.5,7.9,3.3,8
		c33.5,1.1,62.8-36.8,81.1-60.4c24.3-31.3,51.5-66.8,49.5-108.3C985.8,650.6,977.1,650.7,976.5,656.8L976.5,656.8z"/>
	<path class="st13" d="M860.8,814.9c-17.6-14.7-35.1-29.5-50.8-46.3c-8.5-9.1-16.6-18.7-24.1-28.8c-5.7-7.7-7.8-12.4-16.7-15.5
		c-3.1-1.1-6.1,1.7-6.2,4.7c-0.6,18.1,23.9,38.9,35.6,51c16.4,17,34.6,32.3,55,44.3C859.2,827.7,866.1,819.4,860.8,814.9
		L860.8,814.9z"/>
	<path class="st2" d="M768.1,720.3c38.7-53.7,80.2-94,146.7-109.4c9-2.1,5.2-15.7-3.8-13.8c-62.9,13.3-125.6,58.1-152.5,117.7
		C755.6,721.3,763.9,726.2,768.1,720.3L768.1,720.3z"/>
	<path class="st2" d="M518.1,441.2c-10.7,14.7-18.3,30.8-22.2,48.7c-3.1,14-7.5,33.3,1.1,45.6c2.6,3.7,7.4,2.8,9.1-1.2
		c5.1-12.4,1-28.2,3.1-41.7c2.5-16.6,8.3-32.2,16.7-46.8C528.8,440.6,521.4,436.6,518.1,441.2L518.1,441.2z"/>
	<path class="st13" d="M607.1,616.3c48.8-20.2,84.2-66.9,99-116.9c2.7-9.2-11.1-12.8-14.2-3.9c-16.9,48.3-45.5,84.4-88.3,112.5
		C599.7,610.7,602.2,618.3,607.1,616.3L607.1,616.3z"/>
	<path class="st2" d="M519.3,446.4c71.9-18.1,125.9,3.3,179,52c5.4,5,15.8-1.8,10.8-8.4c-43-56.4-126.6-79.6-192.3-52.7
		C511.4,439.6,513.3,447.9,519.3,446.4L519.3,446.4z"/>
	<path class="st2" d="M792.1,271.2c-11.8,9.1-17.6,22.3-22.2,36.2c-4,12-11,31.6-3.9,43.1c1.3,2.2,5.1,3.2,6.9,0.9
		c7.6-9.7,6.1-23.8,9.5-35.4c4-13.9,11.7-26.5,15.2-40.5C798.3,272.6,794.8,269.1,792.1,271.2L792.1,271.2z"/>
	<path class="st2" d="M762.9,344.3c7.1,27,42.4,38.2,64.9,23.2c11.4-7.6,18.8-20.8,21.4-34.1c2.1-10.4,3.2-28.5-7.4-34.5
		c-2.3-1.3-5.2-0.1-5.9,2.4c-2.2,7.6,1.8,15,1.4,22.9c-0.6,11-4.8,22.5-13.1,30.1c-19.4,17.8-41.6,2.6-54.6-13.9
		C767,337,761.9,340.7,762.9,344.3L762.9,344.3z"/>
	<path class="st2" d="M399.6,657.4c28-12,54.7-26.7,83.2-37.6c25-9.5,51.5-15,76.2-25.3c5.9-2.4,6.1-13.4-1.7-12.5
		c-54.2,6.4-117.9,36.8-160.9,69.8C393,654.4,395.7,659,399.6,657.4L399.6,657.4z"/>
	<path class="st2" d="M525.8,1081.1c14-39.9,30.9-77.1,55.2-111.8c4.5-6.4-6.1-12.5-10.5-6.1c-24.3,35.2-43.4,73.9-54.1,115.4
		C514.8,1084.6,523.7,1087,525.8,1081.1L525.8,1081.1z"/>
	<path class="st2" d="M576.6,964.6c52.4,23.3,99.3,55.2,139.9,95.8c6.6,6.6,16.9-3.6,10.3-10.3c-41.9-42-90.1-75-145.6-96.3
		C575,951.5,570.5,961.9,576.6,964.6L576.6,964.6z"/>
	<path class="st13" d="M832.2,1249.5c26.9,20.9,67.2,50.6,103.5,48.1c3.6-0.3,5.7-5.4,2-7.4c-14.5-7.6-31.8-9.5-47.2-15.6
		c-19.2-7.7-38.1-17.4-54.9-29.4C833.1,1243.3,829.8,1247.5,832.2,1249.5L832.2,1249.5z"/>
	<path class="st13" d="M938,1297.9c59.6-33.3,97.4-101,101.5-168.3c0.5-7.4-12-9.3-13.2-1.8c-10.3,66.5-38.3,121.6-93.2,161.8
		C928.3,1293.2,932.5,1301,938,1297.9L938,1297.9z"/>
	<path class="st2" d="M883.8,1164.4c73.4-26.7,141.9-47.9,221.1-48.3c10.1,0,10.1-15.7,0-15.6c-76.6,0.6-158.1,16.6-223.2,58.8
		C879.2,1160.9,880.8,1165.5,883.8,1164.4L883.8,1164.4z"/>
	<path class="st13" d="M1179.1,875.5c-5.7,15.2-7.6,28.2-3.4,44.2c2.9,11.1,8.4,27.8,20.3,31.6c2.6,0.8,6.2-1.5,5.8-4.4
		c-1.3-10.8-10.4-19.8-13.5-30.7c-3.5-12.3-5.3-27.3-3.8-40C1184.9,873,1180.1,872.8,1179.1,875.5L1179.1,875.5z"/>
	<path class="st13" d="M1192.5,947.3c21.6,9.5,43.6,18.8,66.4,25.5c8.1,2.4,10.9-9.4,3.4-12.4c-21.6-8.5-44.2-14.7-66.7-20.5
		C1191.3,938.8,1188.1,945.4,1192.5,947.3L1192.5,947.3z"/>
	<path class="st13" d="M1273.4,967.4c26.4-35.7,38.6-77.3,40.2-121.4c0.3-9.8-15-9.8-15.3,0c-1.1,41.6-12.7,80.4-33.3,116.5
		C1261.8,968.1,1269.8,972.4,1273.4,967.4L1273.4,967.4z"/>
	<path class="st13" d="M1308.6,852.6c-29.2-29.2-76.1-32.5-110.3-9.6c-8.4,5.6-0.8,18.9,8,13.6c32.4-19.3,65.6-17,97.3,2.5
		C1307.6,861.6,1311.9,855.9,1308.6,852.6L1308.6,852.6z"/>
	<path class="st13" d="M1188.9,883c4.3-7.9,8.8-16,13.8-23.5c4.2-6.2,11.4-11.9,12.1-19.6c0.3-2.7-2.7-4.3-5-3.8
		c-7.6,1.8-12.6,11.8-16.3,18c-5.1,8.3-8.8,16.6-11.5,26C1180.8,884.1,1186.8,886.8,1188.9,883L1188.9,883z"/>
	<path class="st2" d="M236.1,831.2c-17.9,52.3-22.6,101.5-12.8,156.4c1.7,9.6,16.4,5.6,14.7-4.1c-8.8-49.2-8.9-102.2,2.4-151.2
		C241,829.6,237,828.6,236.1,831.2L236.1,831.2z"/>
	<path class="st13" d="M240,1002.4c21.5,6.5,39.7,18.8,59.6,28.8c5.9,3,13.5-5.2,7.6-9.8c-18.9-14.9-42.1-21.2-65.1-26.2
		C237.3,994.1,235.4,1001,240,1002.4L240,1002.4z"/>
	<path class="st13" d="M311.2,1032.3c30.7-49.4,59.1-102.3,83.6-155c3.2-6.9-6.3-12.8-10.3-6c-29.6,50.1-57.1,103.6-80.5,156.9
		C302,1032.9,308.4,1036.9,311.2,1032.3L311.2,1032.3z"/>
	<path class="st2" d="M237.9,822.8c5.1-2.3,20,0.1,26.9,0c14.3-0.2,28.5,0.7,42.8,2.5c25.5,3.2,49.5,9.7,73.8,18
		c9.3,3.1,13-11.2,4-14.5c-21.4-7.9-43.3-13.7-65.9-16.8c-20.3-2.7-56.8-8.9-76.5-1c-8,3.2-21,12.1-7.2,19.1c1.1,0.6,2.5,0.7,3.6,0
		c0.7-0.5,1.4-0.9,2-1.4C245,826.1,241.8,821,237.9,822.8L237.9,822.8z"/>
	<path class="st12" d="M1021.7,39.5c64.4,3.9,124.5,34.8,183.6,58c62.6,24.6,110.6,54.8,161.9,98.3c2.3,2,5.6-1.2,3.4-3.4
		c-45.4-42.8-90.8-73.6-148.9-96.5c-62.3-24.6-131.4-64-200-60.4C1019.1,35.5,1019.1,39.3,1021.7,39.5L1021.7,39.5z"/>
	<path class="st13" d="M1374.6,200.3c-0.3,17.7,4,35.1,12.2,50.8c1.6,3,6,0.4,4.5-2.6c-7.7-15.4-11.8-31-13-48.2
		C1378.2,197.9,1374.6,197.9,1374.6,200.3L1374.6,200.3z"/>
	<path class="st13" d="M1401.1,255.8c52.2,52.8,105.8,102.6,140.1,169.6c33,64.6,49.7,135.7,65.5,206c0.9,3.8,6.7,2.2,5.8-1.6
		c-16-70.8-32.9-142.4-66.1-207.4c-34.1-66.7-86.8-120.4-142.9-169C1401.9,251.8,1399.5,254.1,1401.1,255.8L1401.1,255.8z"/>
	<path class="st14" d="M1599.9,640.2c-9,66.2,21.3,134.1,25.9,200.4c5,71.3-2,142.9-18.5,212.3c-33.1,139.1-104,266-199.8,371.5
		c-4,4.4,2.6,11,6.6,6.6c91.8-102.2,161.3-224.9,196.1-358.1c16.6-63.7,24.9-129.7,23.9-195.5c-0.5-33-3.5-66-9-98.6
		c-7.8-46.1-24.1-90.5-19.8-137.8C1605.5,637.9,1600.3,637.2,1599.9,640.2L1599.9,640.2z"/>
	<path class="st14" d="M1406.9,1434.4c-54.5-0.2-52.8,55.1-82.6,87.6c-40.1,43.7-101.1,68.1-156.1,86.4
		c-48.4,16.1-98.4,28.1-149,35.2c-93,13-186.9,6.6-280.1,14.8c-2.7,0.2-2.8,4.2,0,4.3c137.2,4.9,280.8-1.6,412.8-42.1
		c49.2-15.1,99.1-34.2,141.6-63.8c17.1-11.9,33.3-25.5,45.8-42.3c20.9-28.2,23.6-74.2,67.6-74.8
		C1410.3,1439.7,1410.3,1434.4,1406.9,1434.4L1406.9,1434.4z"/>
	<path class="st13" d="M495.4,549.2c17.3,12.5,34.8,24.3,52.7,35.9c15.4,10,31.4,23.8,49.3,28.3c4.6,1.2,7.2-4.2,4.4-7.5
		c-11.9-14.1-31.5-22.5-47.1-32c-18.2-11-36.5-21.6-55.2-31.7C494.8,539.7,491.3,546.2,495.4,549.2L495.4,549.2z"/>
	<path class="st2" d="M448.6,1076.4c75.2,5.2,141.1,60.6,217.2,52.8c9.7-1,10.1-15.9,0-15.4c-76.4,3.5-141.1-56.2-217.2-46.5
		C442.9,1067.9,442.6,1076,448.6,1076.4L448.6,1076.4z"/>
	<path class="st2" d="M672.9,1120.9c22.4-12.6,39.1-37,59.2-53.3c24.3-19.8,50.6-36,78.4-50.4c9.1-4.7,1.1-18.2-8-13.6
		c-27.7,13.9-53.5,31-77.3,50.7c-20.5,16.9-47.8,37.5-57.2,63C667,1120,670.6,1122.2,672.9,1120.9L672.9,1120.9z"/>
	<path class="st13" d="M984.1,227.5c-4.7,26-4.7,57.3,2.1,82.9c1.6,6.2,11.2,4.9,11.2-1.5c0-26.5-1.4-53.4-2.1-79.9
		C995.1,222.8,985.3,220.9,984.1,227.5L984.1,227.5z"/>
	<path class="st13" d="M990,317.1c25.4,20.3,76.4,41.4,108.4,26.7c3.6-1.6,2.4-7.1-1.1-8.1c-15.8-4.4-33-1.6-49.3-5.4
		c-18.5-4.2-35-12.6-51.8-21.3C991.3,306.5,985.2,313.3,990,317.1L990,317.1z"/>
	<path class="st12" d="M31.8,1045c2.2,69.7,46.2,133.9,106.1,167.7c10.3,5.8,19.6-10.2,9.3-15.9c-59.8-32.9-88.7-89.6-106.6-153.1
		C39.2,1039,31.6,1039.8,31.8,1045L31.8,1045z"/>
</g>
</svg>
