<?xml version="1.0" encoding="utf-8"?>
<!-- Generator: Adobe Illustrator 27.4.0, SVG Export Plug-In . SVG Version: 6.00 Build 0)  -->
<svg version="1.1" id="Modo_de_aislamiento" xmlns="http://www.w3.org/2000/svg" xmlns:xlink="http://www.w3.org/1999/xlink"
	 x="0px" y="0px" viewBox="0 0 2063.4 1843.7" style="enable-background:new 0 0 2063.4 1843.7;" xml:space="preserve">
<style type="text/css">
	.st0{fill:#EC9936;}
	.st1{opacity:0.55;fill:#DB8C36;}
	.st2{fill:#FAC64C;}
	.st3{opacity:0.55;fill:#C2664C;}
	.st4{fill:#F89945;}
	.st5{fill:#E2762E;}
	.st6{fill:#B15631;}
	.st7{opacity:0.55;fill:#F89945;}
	.st8{fill:#FBDF6A;}
	.st9{opacity:0.55;fill:#ECBC49;}
	.st10{opacity:0.55;fill:#F2CC49;}
	.st11{fill:#14B661;}
	.st12{fill:#FF3E4A;}
	.st13{fill:#766974;}
	.st14{opacity:0.65;fill:#6C5F66;}
	.st15{fill:#AAA2A9;}
	.st16{fill:#D12424;}
	.st17{fill:#EA3333;}
	.st18{fill:#C91D1D;}
	.st19{fill:#FF3333;}
	.st20{fill:#FF7E70;}
	.st21{fill:#E7D1CA;}
	.st22{fill:#E65126;}
	.st23{fill:#D93300;}
	.st24{fill:#EA8D70;}
	.st25{fill:#EAC086;}
	.st26{fill:#D59D63;}
	.st27{fill:#DA9F59;}
	.st28{fill:#F6E4CA;}
</style>
<g>
	<path class="st0" d="M1850.9,103c-53,30.5-103.9,64-148.7,104.1c-92.9,83.3-158.3,189-224.5,293.9c-60.3,95.6-106,199.3-169.5,293
		c-57.7,85.3-134.9,157.5-216.9,219.1c-93.8,70.6-194,138-297.5,193.8c-104.4,56.3-212.9,82.1-323.7,121.3
		c-106.5,37.7-211.4,81.6-316.6,123.5c-44.8,112.5-83.5,240.6-65.8,337.3c0,0,42.1,78.9,72.5,56.5s176.5-214.6,499.7-303.3
		c0,0,67.2-24,170-118.4c102.8-94.4,382.7-225.1,457.1-257.8s160.5-80.6,343.6-330.5c183.1-249.9,172.6-359.5,280.5-465.1
		c108-105.6,164.6-201.3,31-252.2C1942.3,118.3,1904.2,112.2,1850.9,103z"/>
	<path class="st1" d="M1764.1,457.6c-24.6-42.5-55.4-124.6-36.9-175.9c23.4-65,82.5-136.1,152.5-173.9c-9-1.5-18.5-3.1-28.9-4.9
		c-53,30.5-103.9,64-148.7,104.1c-92.9,83.3-158.3,189-224.5,293.9c-60.3,95.6-106,199.3-169.5,293
		c-57.7,85.3-134.9,157.5-216.9,219.1c-93.8,70.6-194,138-297.5,193.8c-104.4,56.3-212.9,82.1-323.7,121.3
		c-106.5,37.7-211.4,81.6-316.6,123.5c-44.8,112.5-83.5,240.6-65.8,337.3c0,0,17.8,33.2,38.6,50.4c0.2-0.1,0.4-0.3,0.6-0.4
		c37.2-19.3,56-68.9,79.1-101c23.2-32.3,46.7-61.1,77-87.2c42.4-36.5,93.9-69.9,150.3-74.5c26.6-2.2,43.3,12.1,50.1,31
		c27.8-13.1,57.6-25.6,89.4-37.2c-1.4-60.9,83.3-74.4,123.9-100.6c47.1-30.5,87.2-61.8,128.5-99.6c23.4-21.4,44.7-39.3,74.1-51.8
		c17.6-7.5,39.2,1.5,52.5,12.8c1.5,1.3,3,2.6,4.5,3.8c26.3-15.7,54-31.4,81.9-46.5c-1-4-1.8-8.1-1.9-12.4
		c-1-36.8,31.3-62.9,65.3-68.2c25.3-4,52-2.2,74.1,10.2c48.6-23.6,89.1-42.2,111.3-51.9c15.6-6.9,31.6-14.4,49-24.3
		c8.9-57.5,48.4-77.1,89.8-115.2c48.5-44.7,61.1-122.7,102.8-175.7c26.5-33.7,65.9-19,83.3,10c6.1-8.2,12.3-16.6,18.7-25.3
		c19.7-26.9,37.1-52.1,52.7-75.9c-16.7-8.2-29.7-22.5-33.9-44.4c-4.6-24.1,16.5-45.4,20.1-66.1c4.9-28,16.3-55.6,45.2-53.1
		c19.1,1.7,36.3,8.7,53.8,15.8c16-31.9,29.1-60.3,41.5-86.5C1791.2,498.9,1780.8,486.4,1764.1,457.6z"/>
	<path class="st2" d="M1586.1,739.4c15.8-38.5,46.4-74.3,67.4-107.4c45.6-72.2,58.2-151.3,84-231.1c36-111.3,60.9-238.8,192.7-276.3
		c6.4-1.8,12.4-3,18.1-3.8c-2-0.8-3.9-1.7-6-2.5c0,0-375.4-60.2-420.5-86.2c-45.1-26-315.6-61.3-493.2,54.8
		c-34,22.2-62.9,37.8-84.8,48.3c-37.6,18.1-70.2,45.2-93,80.1c-35.6,54.3-71.2,135.9-30.6,208c0,0-58.8,222.4-105.2,280.8
		c-46.4,58.4-179.6,164.2-244.8,210.4c-65.3,46.3-193.2,220-214.9,298.5c-21.5,77.9-199.2,382.6-168,571.7c0.4-0.4,0.7-0.9,1.1-1.3
		c82.3-76.9,162.3-164.8,267.9-210c117.8-50.4,237-63.4,341.9-145.1c5.8-4.5,11.6-7.4,17.3-9.2c74.3-56.8,145.2-119.1,217.6-178
		c70.4-57.3,144.6-78.1,227.1-112.4c174.8-72.5,310.9-224.8,415.1-377.6C1578.5,746.6,1582.2,742.7,1586.1,739.4z"/>
	<path class="st3" d="M1942.3,118.3c0,0-375.4-60.2-420.5-86.2c-45.1-26-315.6-61.3-493.2,54.8c-33.9,22.2-62.9,37.8-84.8,48.3
		c-37.6,18.1-70.2,45.2-93,80.1c-35.6,54.3-71.2,135.9-30.6,208c0,0-0.3,0.9-0.5,1.8c79.8-7.3,179-29,280.2-64
		c108.8-37.6,249.5-59.1,340.6-47.6c92.4,11.6,271,93.3,291.2,106.2c1.9-6.3,3.7-12.6,5.8-18.8c36-111.3,60.9-238.8,192.7-276.3
		c6.4-1.8,12.4-3,18.1-3.8C1946.3,119.9,1944.4,119.1,1942.3,118.3z"/>
	<path class="st4" d="M1942.3,118.3c0,0-375.4-60.2-420.5-86.2c-45.1-26-315.6-61.3-493.2,54.8c-33.9,22.2-62.9,37.8-84.8,48.3
		c-37.6,18.1-70.2,45.2-93,80.1c-31.2,47.6-62.3,116.1-42.3,180.8c33.8-3.6,67.3-5.8,100.4-17.5c51.1-18,101.4-38.4,153.2-54.5
		c83.5-26,164.9-46.6,252.5-50.9c90.7-4.4,174.4-15.8,261.8,14.9c62,21.7,117.7,56.3,164.9,100.9c34.1-108.4,61.8-228.3,189-264.5
		c6.4-1.8,12.4-3,18.1-3.8C1946.3,119.9,1944.4,119.1,1942.3,118.3z"/>
	<path class="st5" d="M1636,164.4c-48.9,12.3-96.3,27.2-147.3,17.6c-79.5-14.8-152.9-42.8-235.6-35.6c-80.4,7-140.2,56.3-207,95.7
		c-83.1,49-155.7,63.4-235.1,55.6c-9.5,31.6-12.6,65.5-2.4,98.3c33.8-3.6,67.3-5.8,100.4-17.5c51.1-18,101.4-38.4,153.2-54.5
		c83.5-26,164.9-46.6,252.5-50.9c90.7-4.4,174.4-15.8,261.8,14.9c62,21.7,117.7,56.3,164.9,100.9c16.3-51.8,31.3-106.1,56.2-152.8
		C1745.8,204.5,1694.9,149.6,1636,164.4z"/>
	<path class="st6" d="M1843.7,338.2c12.6-2.4,23.1-17.7,32-26.4c10-9.8,19.1-19.8,27.7-30.8c9.8-12.5,33.3-42.7,23.9-60.1
		c-11.4-21.2-43.1-1.9-56.1,6.1c-20.6,12.5-35.7,27.8-47.7,48.9c-8.9,15.7-20,42.5-9.7,59.2c11.2,18.2,37.8-0.2,48.6-12.2
		L1843.7,338.2z"/>
	<path class="st7" d="M1037.3,200.8c14.9-9,36.1-15.3,55.7-20.8c24.3-6.9,45-18.1,67-31c2.3-2.5,4.8-7.2,3.6-10.3
		c2.9-6.3-0.3-15.3-5.2-19.5c-10.8-29.3-48.4-25.9-77-17.2c-20,6.1-39,14.1-58.5,23.5c-15.2,7.3-41.5,19.1-49,33.9
		c-7.5,2.7-22.6,19.7-21.3,27.5c-5.5,7.4,0.9,25.9,8.6,32c9.3,7.3,23.5,3.7,34.3,0.9C1022.8,212.8,1037.3,200.8,1037.3,200.8z"/>
	<path class="st7" d="M1245,118.8c13.4-3.5,43.8-0.6,48.2-18.9c4.6-19.1-20.5-24.3-33.8-22.8c-12.2,1.3-44.3,11.6-41.9,27.8
		C1220.4,124.6,1233.4,127.6,1245,118.8z"/>
	<path class="st7" d="M1508.6,120.2c13.8-2,128,23.2,109.1-18.2c-7.4-16.1-36.7-20.9-51.7-27.3c-20-8.5-40.4-12-62.1-10.6
		c-16.6,1-24.4,7.9-36,18.1c-11.2,9.9-29,16.6-12.9,33.2C1477.4,138.5,1485.4,123.5,1508.6,120.2z"/>
	<path class="st7" d="M1758.7,119c16.1,4.9,38.7,20.1,34.6,39c-10.1,46.9-98-6.8-119.1-22.7c-4.2-3.2-7.5-5.7-9.5-11
		c6-4.1,14.1-10.8,21.9-9.8C1696.5,115.7,1738,112.7,1758.7,119z"/>
	<path class="st8" d="M1566,408.1c-16.6,0.3-24.4-2.3-34.9-13.5c-9.9-10.5-12.2-28.3-29.3-30.2c-15.8-30.7-98.5-22.1-127.8-13.2
		c-41.4,12.6-63,41.5-94.4,68.7c-26.6,23-47.8,21.6-65.2-5.9c-1.4,0.6-2.9,1.2-4.4,1.7c0.3-1.7,0.4-3.4,0.3-5.2
		c-2.1-1.3-3.4-0.2-5.4-1.2c-5.4-10.7-22.6-25.2-35.2-25.3c-25.3-22.5-75.7-5-103.8,5.5c-19.2,7.2-41,19-57.5,31.7
		c-19.4,14.8-21.1,37.9-36.7,53.7c-23.8,24-57.3-36.4-94.8-33.2c-34,2.9-77,30.4-100.7,53.9c-34.3,33.9-48.7,75.4-53,122.7
		c-4.3,48.4-28.2,84.9-77.9,93.4c-44,7.5-69.1,25.6-81.6,70.1c-12.6,45.2-35.1,70.1-77.8,92.6c-34.1,18-71.3,29.3-106.1,48.2
		c-50.8,27.7-69.2,55-83.9,109c-14.8,54.1-19.2,111.1-33.2,165c-12.3,47.3-47.3,72.7-84,99c-53.6,38.5-76,79.8-84.8,145
		c-4.1,30,4.7,52.5,10.8,81.2c7.3,34.9,27.1,61.1,22.2,96.9c-0.5,15.8-34.6,55.9-54.2,78c-10.2,11.6-20.5,24.4-26.4,38.8
		c-3.1,7.5-3.6,13.8-2.9,21.7c0.7,7.2-0.6,14.3,0.3,21.5c1.8,13.8,9.3,33.3,21.9,42.8c7.1,5.4,19,2.9,27.1,0.2
		c11.3-3.7,20.4-12.4,28.4-20.9c14.9-16.1,27.5-34.8,38.2-54c28.3-50.5,41.2-95.2,83.9-137.6c55.4-55,162.4-103.8,232.9-49.3
		c73.2,56.7,17.1,195.9,118.2,227.6c44,13.8,88.7-26.8,72.8-73.4c-15.9-46.7-69.5-45.1-100.8-74.8c-30.8-29.2-51.4-80.1-25.2-116.3
		c25.8-35.7,63.9-40.2,100.8-57.2c45.1-20.9,85.9-63,124.4-94.8c22.5-18.6,45.1-37.5,66.8-57.1c16.1-14.5,34.2-38,54.8-46
		c35.3-13.7,86.2,17.7,85.2,57.8c-1.1,43.8-23.9,91.5,23.2,121.9c48.1,31.1,133.5-28.4,111.6-84.5c-14.8-37.9-80.1-34.4-105.2-68.8
		c-32.2-44.1,20.4-78.3,55.4-97.7c35.1-19.4,75.5-26.8,114.8-14.3c34.6,11,74.2,22.9,81.5,57.8c7.7,37-1.5,116.1,43.6,127.7
		c35,9,76-22.8,86.7-55.4c12.5-38.2-54.8-77.5-75.3-104.8c-29.3-39.1-15.1-62.5,10.3-106.5c20.6-35.7,58.3-59,82.3-93.9
		c24.7-35.9,32.6-78.4,60.4-111.4c26.4-31.4,46.8-69.1,73.5-98.7c24.3-26.8,76.8-44.5,95.1-1.6c12.9,30.2-12,110.4,46.8,84.5
		c39.2-17.2,55.2-64.9,14.2-94.8c-32.7-23.9-64.7-38.9-67.9-84.3c-2.9-42.6,20.3-66.2,31.2-103.6c6.8-23.3,16.1-103.3,61.5-70.2
		c16.4,12,9.3,37.1,24,49.6c16.5,13.9,31.9-0.7,39.8-18.2c19.3-43.1-18.8-66.1-47.1-89.4c-14.3-11.8-28.6-27-36.9-44.3
		c-8.6-17.9-8.8-36.4-33.6-39.1c-17.8-1.9-37,11.6-53.4,15.1c-14.4,3.1-29.2,3.3-44.4,5C1554.4,407.3,1577.8,407.9,1566,408.1z"/>
	<path class="st9" d="M873.7,859.6C768.4,848.7,667,818,564,798.5c-5.8,56.1-44.3,99.3-116.9,125.4c-47.1,16.9-87.4,35.2-102.8,85.6
		c10.2-1.2,20.5-2.3,30.9-3c220-14.5,427.7-0.3,627-115.4c20.9-12.1,39.3-25,56.6-38.4C997.8,863.4,935.5,866.1,873.7,859.6z"/>
	<path class="st9" d="M1423.1,442.2c-80.5-17.4-114.9,22.7-187.8,47c-35.2,11.7-64.6,13.6-99.9,1.4c-76.4-26.4-103-39.4-160.5,25.7
		c-28,31.7-70.9,44.9-111.4,46.4c-27,1-54.3-22.2-80-19c-17,2.1-32.7,7.3-47.5,14.5c-6.9,18.8-11.1,38.9-13,60.2
		c-0.8,8.4-2.3,16.3-4.4,23.8c0.8,1,1.8,2,2.6,3c40.1,8.3,90.1,6.2,115.1,5.9c79.3-1,157.6-7.9,235.7-22.6
		c144.9-27.3,251.7-113.7,376.4-181.8C1440.1,445.4,1431.6,444,1423.1,442.2z"/>
	<path class="st9" d="M570.3,1702.6c-15.7,3.6-29.5,2.1-42.5-2.1c8,39,22.2,73.4,66.3,87.2c44,13.8,88.7-26.8,72.8-73.4
		c-8.9-26.1-29.6-37.1-51.6-47C605.5,1684.3,591,1697.9,570.3,1702.6z"/>
	<path class="st9" d="M1022,1369.2c-15,11.3-37.1,11.1-54.4,3.4c-3.3,28.5-2.1,55.5,28.4,75.2c48.1,31.1,133.5-28.4,111.6-84.5
		c-8.5-21.8-33.7-29.9-58.4-39.4C1048.4,1341.9,1035.5,1359,1022,1369.2z"/>
	<path class="st9" d="M1311.1,1267.1c-16.7,10.2-37.3,9.9-53.8,1.3c2.9,39.4,4.7,90.6,40.3,99.7c35,9,76-22.8,86.7-55.4
		c8.9-27.2-22.6-54.9-49-78.5C1331.9,1247.5,1323.7,1259.5,1311.1,1267.1z"/>
	<path class="st9" d="M1687.7,782.6c-5.2,16.6-17.7,30.3-36.5,35.6c-5.3,1.5-10.8,1.9-16.4,1.6c1.9,35-3.9,80.8,42.6,60.3
		c39.2-17.2,55.2-64.9,14.2-94.8C1690.3,784.4,1689,783.5,1687.7,782.6z"/>
	<path class="st10" d="M650.6,1416.2c-29.6,12.6-54.6,30.5-79.9,47.9c-15.9,16.7-26.6,34.9-27,54.3c5.4-8.1,12-13.7,19.3-17.2
		c23.2-16.8,51.3-22.5,78.7-35.2c43.8-20.3,83.6-60.5,121.1-92C725.7,1389.2,687.4,1400.5,650.6,1416.2z"/>
	<path class="st9" d="M143.4,1734.7c-22.5,12.6-47.6,18-71.8,5.9c-7.8-3.9-14.3-9.7-19.5-16.4c-2.2,3.7-4.3,7.5-5.9,11.5
		c-3.1,7.5-3.6,13.8-2.9,21.7c0.7,7.2-0.6,14.3,0.3,21.5c1.8,13.8,9.3,33.3,21.9,42.8c7.1,5.4,19,2.9,27.1,0.2
		c11.3-3.7,20.4-12.4,28.4-20.9c14.9-16.1,27.5-34.8,38.2-54c7.5-13.3,13.8-26.1,19.9-38.7C167.9,1718.6,155.4,1728,143.4,1734.7z"
		/>
	<path class="st9" d="M337.8,1227.7c-33.1,80-177.8,161.7-165.3,250c4.9,34.5,12.7,63.7,13.4,96c39.9-32.3,74.5-75.7,117.1-102.3
		c33.1-20.7,67.6-33.9,104.6-46.1c48-15.8,80.1-45.2,122.8-69.9c75.2-43.6,163.2-58.5,236.1-105.4c63.2-40.7,92.2-107.7,151-152.2
		c79-59.8,222.2,22.1,278.3-72.8c49-83,94.7-172.2,158.3-245.5c60.5-69.7,198.8-113.5,217.8-212.1c4.5-23.2,6.3-45.8,9.5-68.3
		c-50.9,27.9-98.9,60.3-142.4,98.1c-84.1,73.2-134.9,163.2-204.9,247.5c-61.6,74.1-143.1,129.3-230.9,168.5
		c-190.5,85.1-365.5,90.4-569.8,99.8c-29.9,1.4-58.8,4.6-86.9,9.2C355.9,1151.6,354.7,1186.8,337.8,1227.7z"/>
	<path class="st10" d="M1405,893.3c-39,58.5-110.6,234.9-105.2,245c4.8-11,11.5-22.9,19.6-36.9c20.6-35.7,58.3-59,82.3-93.9
		c24.7-35.9,32.6-78.4,60.4-111.4c26.4-31.4,46.8-69.1,73.5-98.7c11-12.2,27.9-22.5,44.8-26c-0.3-0.6-0.6-1.1-0.9-1.7
		C1576.2,764.3,1446.8,830.5,1405,893.3z"/>
	<path class="st9" d="M1728.1,525.8c-2.9,1.8-5.9,3.1-8.9,4.3c12.6,12.7,7.5,35.3,21.3,46.9c16.5,13.9,31.9-0.7,39.8-18.2
		c14.8-33.1-4.2-54.3-26.6-72.9C1751.5,501.9,1742.5,517,1728.1,525.8z"/>
	<path class="st11" d="M243.5,1462.6c0,0-96.8,83.7-95.8,129.3c1,45.6,56.1,60.2,93.3-6C278.3,1519.8,257,1450.3,243.5,1462.6z"/>
	<path class="st11" d="M412.4,1014.2l20.5,33.8l129.6-50.2l-17-57.3C545.5,940.5,433.6,981.7,412.4,1014.2z"/>
	<path class="st12" d="M781.1,614.7l43.1,19.2l65.9-93c0,0-34.3-32.6-48.5-31.9L781.1,614.7z"/>
	<path class="st11" d="M1023.2,788.3l24.5,40.3c0,0,126.9-61.9,125.7-63.9c-1.2-2-28.4-71.7-28.4-71.7L1023.2,788.3z"/>
	<path class="st12" d="M1156.1,450.6l-7.7,47.3c0,0,67,31.2,94.8,28.7l17.6-55.9C1260.7,470.7,1161.6,459.7,1156.1,450.6z"/>
	<path class="st12" d="M527.1,1359.8l28,46.1l110.2-53.6l-3.2-95.4C662.1,1257,568.4,1322.4,527.1,1359.8z"/>
	<path class="st11" d="M1281.6,890.2c0,0-65.4,5-110.2,50c-44.7,44.9-63,26.7-69.4,49.7c-6.5,23,18.7,92.3,95.9,32
		c77.3-60.2,36.1-66.5,60.7-87.6C1283.1,913.3,1303.2,892.2,1281.6,890.2z"/>
	<path class="st11" d="M1559.4,627.3c0,0-16.7-102.3,40.1-152.2c56.9-49.9,92.3,11.3,52.1,58
		C1611.5,579.7,1561.6,652.5,1559.4,627.3z"/>
	<path class="st13" d="M1095.8,522.8c-50.1-48.2-127.5-9.1-170.2,25.1c-47.1,37.7-98.4,113.5-71.2,174.9
		c18.1,40.9,75.5,40.2,111.5,28.3c40.6-13.4,105.7-42.3,127.2-80.8C1113.8,635.1,1146,571,1095.8,522.8z"/>
	<path class="st14" d="M1095.8,522.8c-50.1-48.2-127.5-9.1-170.2,25.1c-47.1,37.7-98.4,113.5-71.3,174.9
		c18.1,40.9,75.5,40.2,111.5,28.3c40.6-13.4,105.7-42.3,127.2-80.8C1113.8,635.1,1146,571,1095.8,522.8z M1041.4,618.5
		c-15.9,21-30.6,35.3-67.8,60.2c-24.8,16.6-56.3,22.2-77.4,2.3c-22.3-21.1-21.9-55-2.3-77.4c26.9-30.7,55.7-57.4,90.7-78.7
		C1044.9,488.2,1084.1,562.2,1041.4,618.5z"/>
	<path class="st15" d="M1001.1,556.2c-5.3,0.3-10.2,2.2-14.9,5.1c-9.3,5.9-18.4,15.6-24.6,24.7c-4.5,6.6-9.6,15.1-7.7,23.4
		c1.6,7.1,7,11.7,14.5,12c10.2,0.3,20.7-6.9,28.4-12.7c7.1-5.4,13.2-11.8,17.8-19.6c3.2-5.4,6.6-12.1,6.9-18.5
		C1021.7,567.1,1012.8,555.5,1001.1,556.2z"/>
	<path class="st11" d="M622.9,961c0,0,15.1-131.9,59-178.1c44-46.2,125.6-40.7,108.3,23.2S616.7,1000.6,622.9,961z"/>
	<g>
		<path class="st16" d="M290.9,1433.7l53.7,29.8l276.9-329l-23.6-46.2c0,0-127-26.1-223.6,72.6S253.4,1367.4,290.9,1433.7z"/>
		<path class="st17" d="M290.9,1433.7l307-345.4c0,0-127-26.1-223.6,72.6S253.4,1367.4,290.9,1433.7z"/>
		<path class="st18" d="M352.6,1316.3c11-6.7,52.4-17.6,55.6-20.4c3.2-2.8-42.2-10.9-42.2-10.9s12.2-44.3,77.2-83.8
			c0,0-2.9,34.7,17.6,28.9c20.5-5.8,7.1-44.8,4.3-49.3c-2.5-4.1,41.9-34.1,73.2-25.6l59.5-67c0,0-127-26.1-223.6,72.6
			c-96.6,98.7-120.9,206.5-83.4,272.8l60.4-68C348.5,1349.5,344.8,1321.1,352.6,1316.3z"/>
		<path class="st19" d="M371,1231.9c48-56.9,110.3-111.6,187.3-99.1l39.5-44.5c0,0-127-26.1-223.6,72.6
			c-96.6,98.7-120.9,206.5-83.4,272.8l28.7-32.3C294.4,1338.2,329.5,1281.1,371,1231.9z"/>
		
			<ellipse transform="matrix(0.8548 -0.5189 0.5189 0.8548 -636.1927 384.241)" class="st20" cx="368.6" cy="1329.1" rx="8.9" ry="6.3"/>
		<path class="st20" d="M405.4,1264.8c2.1,3.5,0.2,8.5-4.2,11.2c-4.4,2.7-9.8,2-11.9-1.5c-2.1-3.5-0.2-8.5,4.2-11.2
			C397.9,1260.6,403.2,1261.3,405.4,1264.8z"/>
		<path class="st20" d="M436,1247.1c2.4,3.9,0.5,9.4-4.2,12.2c-4.7,2.9-10.4,2-12.8-1.9c-2.4-3.9-0.5-9.4,4.2-12.2
			C427.9,1242.4,433.6,1243.2,436,1247.1z"/>
		
			<ellipse transform="matrix(0.8548 -0.5189 0.5189 0.8548 -542.2863 426.2765)" class="st20" cx="490.7" cy="1182.3" rx="8.3" ry="6.3"/>
	</g>
	<path class="st21" d="M1534.4,548.4l-43-21.6l0,0l-0.4-0.2c0,0-86.1,61.5-115.5,76.6l54.8-125.3c0,0-149.5,57-196.6,133.1
		c-42.8,69.3-10,100.6,4.1,131.5c2.3,5.2,5.8,9.6,10.2,13.2l10.6,54.8c3.8,19.4,21,33.2,40.7,32.7c7.2-0.2,13.9-1,18.7-2.2
		c8.3-2,18.4-4.9,29.9-9.1c34.4-12.6,81.1-37.2,126.2-84.6c16.3-17.2,28.6-34.9,37.9-52.3c3.1-5.8,5.8-11.6,8.3-17.4
		c7.3-17.2,11.8-33.9,14.5-49.3c0.9-5.1,1.6-10.1,2.1-14.9C1541,575.3,1534.4,548.4,1534.4,548.4L1534.4,548.4L1534.4,548.4z"/>
	<g>
		<path class="st22" d="M1228.4,776.5l45.4,37.7c11,9.1,25.6,12.4,39.4,9.1c33.1-7.9,95.9-30.4,156-93.7
			c87-91.5,60.3-199.1,60.3-199.1l-43.4-21.8c0,0-86.1,61.5-115.5,76.6l54.8-125.3c0,0-149.5,57-196.6,133.1
			c-42.8,69.3-24.7,139.1-10.6,170.1C1220.6,768.4,1224.1,772.8,1228.4,776.5z"/>
		<path class="st23" d="M1486.6,508.9c11.6,28.3,15.6,58.5,3.5,89.1c-19.8,49.8-48.9,94.9-90.7,129.3
			c-50.9,41.9-118.8,78.3-173.7,46.3c0.9,0.9,1.7,2,2.7,2.8l45.4,37.7c11,9.1,25.6,12.4,39.4,9.1c33.1-7.9,95.9-30.4,156-93.7
			c87-91.5,60.3-199.1,60.3-199.1L1486.6,508.9z"/>
		<path class="st24" d="M1274.6,679.1c10.4,5.8,12.5,21.9,4.6,35.9c-7.9,14-22.7,20.6-33.1,14.8c-10.4-5.8-12.5-21.9-4.6-35.9
			C1249.4,679.8,1264.2,673.2,1274.6,679.1z"/>
		<path class="st24" d="M1320.5,571.8c10,6.6,10.9,22.7,2.1,36.2c-8.8,13.4-24,19-34,12.4s-10.9-22.7-2.1-36.2
			C1295.3,570.9,1310.5,565.3,1320.5,571.8z"/>
		<path class="st24" d="M1395.7,639.6c9,7.8,7.7,24-2.8,36.1c-10.6,12.1-26.4,15.5-35.4,7.7c-9-7.8-7.7-24,2.8-36.1
			C1370.9,635.2,1386.7,631.8,1395.7,639.6z"/>
		<path class="st24" d="M1468.9,569c9,7.8,7.7,24-2.8,36.1c-10.6,12.1-26.4,15.5-35.4,7.7c-9-7.8-7.7-24,2.8-36.1
			C1444.1,564.6,1459.9,561.1,1468.9,569z"/>
	</g>
	<path class="st21" d="M1046.2,981.9c-0.2-2.4-0.6-4.6-1.1-6.9c-0.2-0.8-0.4-1.7-0.7-2.5c-0.9-2.7-2-5.3-3.4-7.8
		c-0.4-0.8-1-1.5-1.5-2.3c-1.1-1.7-2.4-3.4-3.7-5c-0.8-1-1.7-1.9-2.6-2.9c-1.3-1.4-2.8-2.7-4.3-3.9c-1.8-1.5-3.7-2.9-5.8-4.3
		c-1.4-0.9-2.7-1.8-4.1-2.7c-1.7-1-3.5-1.9-5.3-2.8c-1.1-0.5-2.2-1-3.4-1.5c-6.7-2.9-14-5.2-21.8-6.7c-0.9-0.2-1.8-0.3-2.7-0.5
		c-2.6-0.4-5.3-0.8-8-1.1l0,0l0,0c-21.3-2.1-44.6,1.1-65.3,11.6c-69.4,35.1-71.6,81.3-59.4,102.9c12.2,21.6-2.7,80.5-36.9,66.6
		c-20.2-8.2-16.3-22.2-9.8-32.3c0.5,6.3,3.8,14.3,18.9,6.3c22.7-12,17.2-57.3-29.4-48.4c-44.2,8.4-112,102.2-93.1,164.6
		c1,3.4,4.1,6.4,3.8,10c-5.4,58.4,49.4,82.1,189.4,28.6c43.1-16.4,73.9-45.7,95.3-71c6.1-7.2,11.4-14.4,15.6-21.4
		c6.4-10.5,10.8-20.7,12.8-30.1c2.8-12.5,1.5-23.4-4.1-31.8c-2.1-3.2-4.3-6.1-6.4-8.8c-5.2-6.8-10.5-12.2-15.9-16.4
		c2.6-1.9,5.2-3.9,7.9-6.1c10.7-8.9,22.1-20.7,33.6-37.2c2.6-3.7,4.5-7.3,6.2-10.9c0.5-1,0.9-1.9,1.3-2.9c1.2-2.9,2.2-5.8,2.8-8.6
		c0.1-0.6,0.4-1.3,0.5-1.9c0.7-3.3,0.9-6.5,0.8-9.5C1046.3,983.5,1046.2,982.7,1046.2,981.9z M936.4,1105.6
		c2.9-10.9,10.3-16.8,20.5-22.7c4.3,2.7,6.4,7.1,5.7,12.8c-3.9,1.2-7.9,2.6-11.6,4l0,0c0,0,0,0,0,0c-0.4,0.1-0.8,0.3-1.1,0.4l0,0
		l0,0C942.2,1103,936.4,1105.6,936.4,1105.6z M749.5,1104.4C749.4,1104.4,749.4,1104.4,749.5,1104.4c-1.6,2.2-3.1,4.4-4.6,6.7
		c-0.2,0.2-0.3,0.5-0.5,0.7c-1.3,2-2.6,4.1-3.8,6.2c-0.3,0.4-0.5,0.9-0.7,1.3c-1.1,1.9-2.1,3.8-3.1,5.7c-0.3,0.7-0.6,1.4-1,2.1
		c-0.8,1.7-1.7,3.4-2.4,5.2c-0.2,0.4-0.3,0.7-0.4,1.1c4.7-18.1,17.7-35.8,32.4-47.5C759.8,1091.3,754.4,1097.6,749.5,1104.4z"/>
	<g>
		<path class="st25" d="M801,1033.2c0,0-34.4,31.3,1.3,47.6c35.7,16.4,48.5-46.1,35-69.7c-13.5-23.6-13.2-73.1,56.5-107.6
			c69.7-34.6,173.1,17.1,128.7,86c-44.4,68.9-89.8,56.4-97.1,89.5c0,0,43-18.2,46.4-10.3c6.9,15.8-29.8,66.3-83.6,87.5
			c-25.1,9.9-61.7,24.8-116.8,26.2C647.4,1185.8,744.9,1004.6,801,1033.2z"/>
		<path class="st26" d="M940.2,1073.4c-0.4,0.1-0.8,0.3-1.2,0.4c-19.8,41-72.2,69.9-114.6,62.6c-19.9-3.4-33.2-20.5-39.7-38.2
			c-8.8-24,0-47,15.1-65.5c-56.2-25.6-151.6,153-28.3,149.7c55.1-1.5,91.7-16.3,116.8-26.2c44.9-17.7,77.7-55.7,83.4-77
			C961.2,1079.8,950.5,1077.7,940.2,1073.4z"/>
		<path class="st27" d="M960.4,893.9c-0.2,0.3-0.3,0.6-0.6,0.9c14.2,8.7,25.7,28.9,24.2,44.8c-3.1,33.6-19.2,49.7-47.1,66.5
			c-47.6,28.6-26.2,56.6-22.3,97.4c11-12.8,10.8-24.4,10.8-24.4c7.3-33.1,52.6-20.6,97.1-89.5
			C1053.8,941.1,1012.1,901.4,960.4,893.9z"/>
		<path class="st28" d="M790.8,1039.4c0,0-3,25.8,19.8,14c22.8-11.9,15.2-60.6-32.2-53.1c-47.5,7.5-136,106.6-100.5,175.1
			c35.6,68.5,116.5,92,211.8,46.8C985,1177,1030.3,1099,1005.9,1062c-24.4-37-48.8-49.5-75.9-31.7c0,0-10.8,18.1,7.4,21.7
			s22.7,22.7-4,46.9c-26.7,24.2-105.5,100.7-183.7,61.9C671.6,1122,751.4,1020.7,790.8,1039.4z"/>
		<path class="st28" d="M921.9,1162.9c-51.3,33.3-100,61.5-163,49.1c-38.4-7.5-76.4-16-86.5-51.4c1.3,5,3.1,10,5.6,14.7
			c35.6,68.5,116.5,92,211.8,46.8C985,1177,1030.3,1099,1005.9,1062c-4.2-6.4-8.4-11.7-12.6-16.6
			C1003.7,1089.1,963.8,1135.7,921.9,1162.9z"/>
	</g>
</g>
</svg>
