<?xml version="1.0" encoding="utf-8"?>
<!-- Generator: Adobe Illustrator 27.4.0, SVG Export Plug-In . SVG Version: 6.00 Build 0)  -->
<svg version="1.1" id="Capa_1" xmlns="http://www.w3.org/2000/svg" xmlns:xlink="http://www.w3.org/1999/xlink" x="0px" y="0px"
	 viewBox="0 0 1875.9 1634.6" style="enable-background:new 0 0 1875.9 1634.6;" xml:space="preserve">
<style type="text/css">
	.st0{fill:#242057;}
	.st1{fill:#FAD10A;}
	.st2{fill:#FFFFFF;}
	.st3{opacity:0.3;fill:#81858D;}
	.st4{fill:#EE4267;}
</style>
<g>
	<g>
		<g>
			<path class="st0" d="M1459.8,540.7c-0.5-2.9-1.9-5.7-3.4-7.7c-1.4-1.9-2.8-3.7-4.2-5.2c-2.7-3-5.5-5.2-8-6.9
				c-0.1-0.1-0.1-0.1-0.1-0.1c0,0-0.1-0.1-0.1-0.1c-6.5-6.8-15.6-15.4-27.6-24.7c-23.9-18.7-59.5-39.7-103-58.7
				c-21.8-9.6-45.2-19.4-70.3-29.1c-25.1-9.6-51.7-18.8-79.5-27.2c-55.5-17.1-115.4-30.8-175.7-41.9c-60.3-11-121.4-18.2-179.1-20.7
				c-6.3-0.3-12.5-0.5-18.7-0.6c-50.8-1.2-98.5,1.9-140,7.7c-46.7,6.5-85.6,16.3-113.3,25.7c-6.9,2.4-13.3,4.2-18.8,6.5
				c-5.5,2.2-10.3,4.2-14.5,5.9c-1.6,0.7-3,1.3-4.3,1.9c-0.1,0-0.1,0.1-0.2,0c-4.1,1.3-8.8,3.3-14,6.2c-2.1,1.2-4.2,2.6-6.4,4.4
				c-2.2,1.8-4.3,4.1-6,6.7c-3.5,5.2-5.9,11.9-5.5,19.6c0.2,3.8,1.4,7.8,3.5,11.4c2.1,3.5,4.9,6.5,7.7,9c5.5,5.1,11.1,9.5,12.8,14.9
				c2,5.5,0.9,13.4,0.4,22.1c-0.6,8.6-1,17.4-1.4,26.4c-0.7,18.2-1,37.4-0.8,57.2c0.3,39.7,2.2,81.9,4.8,124.1
				c0.6,11.4,1.4,22.8,2.1,34.1c-0.4,0-0.7,0-1,0.1c-4.1,0.5-10.4,1-17.8,5.5c-3.6,2.4-7.3,6.3-8.9,11.7c-1.7,5.4-1.2,11.3-0.2,16.8
				c1.2,5.6,2.7,10.8,3.6,16.4c0.9,5.6,1.5,11.7,2,18c0.7,12.7,0.6,26.9,1.3,42.1c0.5,15.1,1.5,31,2.7,47.4
				c2.6,32.9,6.6,67.8,11.3,102.5c9.5,69.6,20.5,139,27.2,191.6c1.6,13.1,2.7,25,2.4,35.5c-0.1,2.7-0.2,5-0.4,7.8
				c-0.1,2.7-0.2,6.4,1.7,9.8c1.9,3.4,4.9,5.1,7.1,6.1c2.3,1,4.1,1.7,6.1,2.4c7.6,2.8,13.7,4.9,18.1,6.2l0.1,0.1c1,0.6,2,1.1,3,1.6
				c5.3,35.7,11.2,73,17.3,110.4c7.2,43.7,14.5,87.4,21.5,128.5c1.8,10.2,3.6,20.4,5.3,30.3c0.9,4.9,1.8,9.8,2.6,14.7
				c0.8,4.7,1.7,9.8,3.2,15c1.5,5.1,3.8,10.5,7.7,15.2c3.9,4.8,9.6,7.9,14.3,9.5c4.8,1.8,9,2.7,12.4,4.1c3.4,1.4,5.5,3,7.4,5.4
				c3.8,4.9,5.2,12.6,6.9,20.2c1.8,7.5,3.6,16,9.8,22.5c2.9,3.2,6.8,5.5,10.4,6.6c3.7,1.2,7,1.6,10,2.1c6,0.8,11.5,1.5,16.5,2.1
				c14.1,1.7,24.4,2.6,29.6,2.6c0,0,0,0,0.1,0c14.4,2.7,35.9,6,62.3,9c49.6,5.9,116.3,10.3,183.3,10.6c43,0.3,86-1.3,124.8-3.8
				c21.6-1.4,41.9-3.2,60-5.2c25.3-2.8,46.4-5.9,61.5-8.6c7.6-1.3,14.1-3.6,17.7-6.6c0.4-0.3,0.7-0.7,1-1c0,0.1,0.1,0.1,0.1,0.1
				l0,0.1c0.2,0,0.5-0.2,0.7-0.7l0-0.1c0-0.1,0-0.1,0.1-0.1c2.1-2.4,2.6-4.4,2.3-4.9c-0.3,0.2-0.7,0.5-1.2,0.8c1-3.8,2.8-9.5,7-16
				c3.8-5.8,9.7-12.3,18.4-16.3c4.3-2.1,9.5-3.7,15.3-6.4c2.9-1.3,5.9-2.9,8.8-5.4c2.8-2.3,5.5-5.5,7.3-9c3.5-7.2,4.5-13.9,6-20.7
				c1.5-6.8,2.9-13.9,4.5-21.2c2.5-14.7,5.2-30.1,7.1-46.3c4.1-32.2,6.8-66.7,8.7-101.1c1.7-31.1,2.8-62,4.2-91.5
				c0.4-0.2,0.8-0.4,1.2-0.6c22.4-10.7,32.7-21.9,33-23.7c-0.2,0.1-0.4,0.2-0.7,0.3c0.4-0.4,0.8-0.9,1.2-1.4c2.3-3.1,4.3-7,5.2-11.6
				c0.9-4.5,0.8-9.3,0.5-14c-0.7-9-1.3-18.7-1.4-29.4c-0.4-21.3,1.1-45.7,4-71.6c2.8-25.9,7.2-53.3,11.3-80.8
				c8.2-55.1,15.7-110.1,20.6-152.5c1.2-10.7,2.3-20.5,3.2-29.3c0.2-2.4,0.3-5.1-0.2-7.9c-0.1-0.6-0.4-1.5-0.5-1.9l-0.4-1.4
				c-0.3-1-0.6-2.1-1.1-3.1c-1.5-4.2-3.9-7.9-6.7-10.6c-5.5-5.4-11.4-7.1-15.4-8c6-39.3,11.9-78.4,17.5-115.3
				c2.8-19,5.4-37.4,7.9-54.9c1.3-8.8,2.5-17.3,3.6-25.6c1.1-8.2,2.4-15.8,4.9-22.2c2.5-6.5,6-11.4,11.2-15.4
				c5.1-4.1,11.2-7.5,16.7-12c2.7-2.2,5.3-4.7,7.5-7.6c1.1-1.3,2-2.9,2.8-4.4c0.8-1.5,1.4-2.9,2-4.3
				C1459.5,552.9,1460.9,546.6,1459.8,540.7z M1308.5,1357.7c-1.7,33.2-3.9,66.2-7,97.1c-0.9,7.7-1.7,15.3-2.5,22.8
				c-1,7.4-2,14.7-2.9,21.8c-0.8,7.2-2.3,14-3.3,20.7c-1.1,6.6-2,13.5-3.4,18.9c-1.4,5.5-3.5,8.8-7.4,11.7
				c-3.9,2.9-8.9,5.1-13.8,7.4c-4.9,2.4-9.8,5.4-13.6,8.9c-3.8,3.4-6.8,7.2-9,10.9c-4.4,7.4-6.1,14.3-6.6,19.3
				c-0.2,2.5-0.1,4.6,0.1,6.2c-1.2,0.6-2.6,1.3-4.3,1.8c-4.4,1.4-10.5,1.8-18.6,2.1c-7.9,0.3-17.2,0.8-27.6,1.5
				c-10.4,0.6-21.9,1.2-34.4,1.9c-3.7,0.2-7.4,0.4-11.2,0.6c-5.5,0.2-11.2,0.5-17,0.8c-6.2,0.3-12.7,0.6-19.2,0.8
				c-18.8,0.8-38.8,1.4-59.4,1.9c-3.9,0.1-7.8,0.2-11.8,0.3c-8.5,0.1-17.2,0.3-25.9,0.4c-11.3,0.1-22.6,0.1-33.9,0.1
				c-64.3-0.1-128.4-2.8-177.5-5.6c-40.9-2.3-71.4-4.4-83.5-3.8c-5.4-1.3-11.7-2.9-19.1-4.5c-5-1.2-11-2.3-16.3-3.8
				c-5.4-1.6-9.2-4.5-11.6-9.7c-2.4-5.2-3.3-12.2-4.7-20c-0.7-3.9-1.6-8-3.3-12.4c-1.7-4.3-4.5-8.8-8.7-12.3
				c-8.6-6.8-18.3-7.5-24-11.2c-5.5-3.1-8.4-9.8-10-18.5c-2.9-18.4-5.9-37.7-9-57.5c-6.4-39.9-13.3-82.1-20-124.4
				c-5.6-34.1-11.2-68.1-16.6-100.8c7.8,3.3,16.7,6.5,26.4,9.7c7.7,2.5,16,4.9,24.7,7.3c8.8,2.4,18,5,27.7,7.2
				c38.7,9.6,84.5,18.1,134,24.7c49.4,6.5,102.5,11.1,155.5,14.6c26.5,1.6,53.1,3.2,79.2,4.8c26.1,1.5,52.1,2.7,77.2,3
				c3.1,0,6.3,0.1,9.5,0.1c3.1,0,6.2,0,9.3,0c6.2,0,12.3-0.2,18.4-0.3c3-0.1,6-0.2,9.1-0.3c3-0.1,6-0.3,9-0.4c3-0.2,5.9-0.3,8.8-0.5
				c4.4-0.2,8.8-0.6,13.2-0.9c4.3-0.4,8.5-0.7,12.6-1.1c16.8-1.6,32.9-3.6,48-6c20.1-3.2,38.5-6.7,54.7-10.9
				c8.7-2.2,16.8-4.7,24.1-7.3C1311.2,1301.4,1309.9,1329.7,1308.5,1357.7z M1390.4,830.4c2,2,3.8,4.4,5,7.4
				c0.6,1.5,1.1,3.1,1.5,4.9c0.2,1,0.4,2,0.5,3c0.2,0.9,0.2,1.5,0.2,2.3c0,3.1-1.3,8.1-2.2,12.8c-0.9,4.8-1.8,9.9-2.8,15.2
				c-7.7,42.4-17,99-25.6,156c-4.3,28.4-8.5,57.2-10.8,84.5c-2.4,27.3-2.6,53.2-0.7,75.4c0.6,5.5,1,10.8,1.8,15.9
				c0.8,4.9,1.5,9.5,2.1,13.9c0.5,4.1,0.5,7.7-0.2,10.8c-0.7,3.2-2.1,6-3.7,8.3c-3.3,4.8-7.2,7.6-10.3,9.3c-3,1.8-5.1,2.6-5.4,3.4
				c0.6,0.2,1.7,0.4,3,0.4c-4,1.8-8.4,3.9-13.6,5.8c-2.5,1-5.1,1.9-7.9,2.9c-2.5,0.9-5.1,1.7-7.9,2.6c-22.7,6.8-53.1,11.7-88.2,15.8
				c-4,0.4-8,0.9-12.1,1.3c-3.5,0.3-7.1,0.7-10.7,1c-8.9,0.8-18.2,1.5-27.6,2c-3.3,0.2-6.5,0.4-9.8,0.5c-6.5,0.4-13.1,0.6-19.8,0.7
				c-3.5,0.1-7,0.2-10.6,0.2c-0.3,0-0.5,0-0.8,0c-3.2,0.1-6.4,0.1-9.6,0.1c-3.5,0.1-7,0-10.5,0c-2.7,0-5.4,0-8.1-0.1
				c-4.4-0.1-8.8-0.1-13.2-0.3c-24.1-0.7-48.9-2.2-74.2-3.7c-25.3-1.5-50.9-3.1-76.5-4.7c-51.1-3.3-102.1-7.3-149.8-12.7
				c-47.7-5.5-92.3-12.3-130.5-20.1c-37.3-7.7-69-15.1-91.5-23c-0.6-0.2-1.2-0.4-1.8-0.6c-5.5-1.9-10.4-3.9-14.8-5.7
				c-11.1-4.6-18.7-8.6-22.8-10.3c-1-0.6-1.8-1.3-2.3-1.9c-0.8-1-1-1.9-0.9-3.7c0.1-1.7,0.6-4.4,1-7c0.3-2.7,0.6-5.4,0.8-8.3
				c0.8-11.3,0.2-23.9-0.9-37.1c-4-52.7-13.6-120.1-22.8-187.1c-4.5-33.5-8.9-66.9-12.1-98.4c-1.6-15.8-3-31.1-4.1-45.6
				c-1.2-14.6-1.9-28.3-3-41.6c-1.1-13.1-3.4-25.7-7.1-36.2c-1.7-5.1-3-9.6-3.2-13.4c-0.2-3.9,0.7-7.2,2.6-9.8
				c3.8-5.3,10.2-7.8,14.5-9.5c1.2-0.5,2.3-0.9,3.3-1.3c0.6,8.5,1.2,16.9,1.8,25.4c-2.3-1.2-4-2-5-2.3c-0.3,0.3,1.4,2.3,5.2,5.5
				c3.7,3,9.3,7,17,11.5c2.9,1.7,6.1,3.4,9.7,5.2c11.1,5.6,25.1,11.3,41.4,16.9c16.3,5.5,34.8,11.2,55,17.4
				c40.5,12,88.3,24.1,140.2,34.9c51.8,10.7,107.6,20,163.8,26.9c63.7,8,127.8,13,187,15.7c3.4,0.2,6.8,0.3,10.1,0.5
				c1.7,0.1,3.5,0.2,5.3,0.2c5.3,0.2,10.5,0.4,15.6,0.6c5.4,0.2,10.7,0.3,16,0.5c7.2,0.2,14.3,0.4,21.3,0.5
				c4.1,0.1,8.2,0.2,12.2,0.2c15.4,0.2,30.3,0.3,44.3,0.2c42.9,0.2,79.3-1.5,104.9-5.5c7-1.1,13.2-2.2,18.5-3.4
				c7.6-1.6,13.4-3.3,17.3-4.7c3.4-1.2,5.3-2.2,5.7-2.7c-1.2-0.1-3,0.1-5.4,0.3c1.2-7.9,2.4-15.9,3.7-23.9
				C1384.8,825.9,1387.7,827.7,1390.4,830.4z M1451.5,549.5c-1.5,4.6-4.2,9.8-8,13.5c-4,3.9-9.6,7.1-15.9,10.9
				c-3.1,1.9-6.4,4-9.7,6.8c-3.2,2.7-6.3,6.2-8.7,10c-4.9,7.6-7.3,16.4-9.1,25c-1.7,8.7-3,17.2-4.6,26.2c-3,17.8-6.2,36.7-9.5,56.1
				c-6.5,39-13.2,80.7-19.8,122.5c-1.6,10-3.1,19.9-4.6,29.8c-7.4,0.8-16.4,1.5-26.9,2.1c-26.6,1.5-62.5,1-104.8-0.5
				c-11.9-0.3-24.4-0.8-37.2-1.3c-6.7-0.3-13.6-0.5-20.6-0.8c-73.6-3.3-158.8-9.3-243.5-19.9C820.8,816.8,714.3,796,633.8,775
				c-40.2-10.5-74.6-19.3-98.6-28.2c-7.7-2.9-14.4-5.7-20.1-8.3c-1.6-23.4-3.1-47.3-4.5-71.1c-2.4-40.7-4.8-81.3-5.8-119.5
				c-0.6-19.1-0.9-37.6-0.8-55.2c0.1-8.8,0.2-17.4,0.3-25.7c0.1-4.2,0.2-8.2,0.3-12.3c0.1-4.1,0.3-8.3-0.3-12.9
				c-0.5-4.5-2-9.4-4.6-13.5c-2.6-4-5.8-6.9-8.7-9.3c-5.9-4.7-10.8-8.4-12.9-12.7c-2.2-4.3-2.1-9.6-0.8-14.3c1.4-4.6,4-8.6,7-11.4
				c6.8-6.1,13.8-9.7,18.9-12.4c1.1-0.6,2.1-1.1,3-1.5c0,0,0.1-0.1,0.1-0.1l0.1,0c24.2-6.9,71.5-20.4,134.8-28.1
				c5.7-0.7,11.6-1.4,17.5-2c3.1-0.3,6.2-0.6,9.4-0.9c4.8-0.4,9.7-0.8,14.6-1.2c1.4-0.1,2.8-0.2,4.3-0.3c3.2-0.2,6.4-0.4,9.7-0.6
				c17.3-1,35.3-1.6,53.9-1.6c2.4,0,4.8,0,7.2,0c7,0,14.2,0.1,21.3,0.3c3.6,0.1,7.2,0.2,10.8,0.3c2.8,0.1,5.6,0.2,8.5,0.3l2.5,0.1
				c58.6,2.8,120.9,10.5,182.7,21.7c61.8,11.4,123.3,25.2,179.9,42.2c56.7,16.6,108.4,36.7,152.5,55c22,9.2,41.7,18.6,58.9,27.8
				c17.2,9.2,31.5,18.4,43.1,26.6c10.1,7.1,17.9,13.3,24,18.1c3,3.1,6.4,7.1,9.2,12.5C1452.9,540.5,1453.1,544.8,1451.5,549.5z"/>
			<path class="st1" d="M1451.3,537.2c-2.8-5.4-6.2-9.4-9.2-12.5c-6-4.8-13.8-11-24-18.1c-11.6-8.2-26-17.4-43.1-26.6
				c-17.1-9.3-36.9-18.6-58.9-27.8c-44.1-18.3-95.8-38.4-152.5-55c-56.6-17-118.1-30.8-179.9-42.2c-61.8-11.2-124.1-18.9-182.7-21.7
				l-2.5-0.1c-2.8-0.1-5.6-0.2-8.5-0.3c-3.6-0.1-7.2-0.3-10.8-0.3c-7.2-0.2-14.3-0.3-21.3-0.3c-2.4,0-4.8,0-7.2,0
				c-18.6,0-36.6,0.6-53.9,1.6c-3.2,0.2-6.5,0.4-9.7,0.6c-1.5,0.1-2.9,0.2-4.3,0.3c-4.9,0.3-9.8,0.7-14.6,1.2
				c-3.2,0.3-6.4,0.6-9.4,0.9c-5.9,0.6-11.8,1.3-17.5,2c-63.2,7.7-110.6,21.2-134.8,28.1l-0.1,0c-0.1,0-0.1,0.1-0.1,0.1
				c-0.9,0.4-1.9,0.9-3,1.5c-5.1,2.6-12.1,6.3-18.9,12.4c-3,2.8-5.6,6.7-7,11.4c-1.3,4.6-1.4,9.9,0.8,14.3c2.2,4.3,7,8,12.9,12.7
				c2.9,2.4,6.1,5.3,8.7,9.3c2.7,4,4.2,9,4.6,13.5c0.5,4.6,0.4,8.8,0.3,12.9c-0.1,4.1-0.2,8.1-0.3,12.3c-0.1,8.3-0.2,16.9-0.3,25.7
				c-0.1,17.6,0.2,36.1,0.8,55.2c1.1,38.2,3.4,78.8,5.8,119.5c1.4,23.8,3,47.7,4.5,71.1c5.7,2.6,12.4,5.4,20.1,8.3
				c24,8.9,58.3,17.7,98.6,28.2c80.5,21,187,41.8,294.9,54.9c84.6,10.5,169.9,16.5,243.5,19.9c6.9,0.3,13.8,0.5,20.6,0.8
				c12.9,0.5,25.3,0.9,37.2,1.3c42.3,1.5,78.2,2,104.8,0.5c10.5-0.6,19.5-1.3,26.9-2.1c1.5-9.9,3-19.9,4.6-29.8
				c6.6-41.8,13.3-83.5,19.8-122.5c3.3-19.4,6.5-38.3,9.5-56.1c1.6-9,2.9-17.5,4.6-26.2c1.8-8.6,4.2-17.4,9.1-25
				c2.4-3.8,5.5-7.3,8.7-10c3.3-2.7,6.6-4.8,9.7-6.8c6.3-3.8,12-7,15.9-10.9c3.8-3.7,6.5-8.9,8-13.5
				C1453.1,544.8,1452.9,540.5,1451.3,537.2z M553.3,614.1c-6.2,0.8-13.5-22.3-13.9-46.1c-0.8-23.8,5.2-46.8,10.2-46.1
				c5.2,2.4,5.3,24,6.2,45.6C556.4,589.1,557.9,611,553.3,614.1z M833.3,591.2c-30.2-4.2-69.6-12.4-108.2-23.4
				c-38.5-11-76.1-24.8-103.5-36.9c-13.6-6-25-11.4-32.5-16.3c-7.5-4.9-11-8.7-10.3-9.8c1.9-0.4,7.3,1.8,15.8,4.7
				c8.5,3,20.4,6.6,34.3,11.3c27.8,9.1,64.1,20.9,101,31.2c36.8,10.4,74.1,19.5,103,26.3c28.9,6.8,49.6,11.5,52.8,14.7
				C884.3,595.9,863.5,595.4,833.3,591.2z M1070.4,623.3c-29.3-2.3-58.2-7-79.4-12.1c-21.3-5.2-34.9-10.3-34.4-12.7
				c5.2-4.4,59.9,4.8,115.3,8.5c6.8,0.5,13.5,0.9,20.2,1.3c20.7,1.2,40.6,2.1,57,2.7c21.7,0.9,37.1,1.6,39.9,4
				c-0.6,3.1-15.4,6.5-37.6,8.5c-10.8,1-23.3,1.5-36.7,1.5C1100.5,625,1085.5,624.5,1070.4,623.3z M1329.3,795.3
				c-1.6,6.8-4.9,13.6-10,14c-6.2-0.5-8.2-9.3-6-17.5c2.1-8.3,7.9-15.1,12.5-13.3C1330.8,781.1,1330.8,788.5,1329.3,795.3z
				 M1326.9,756.3c-12.4-3.2,1.7-138.5,11.7-137.9C1349.2,623.9,1337.5,751.1,1326.9,756.3z M1386.1,532.5
				c-2.6,7.5-11.1,15.6-23.3,20.9c-6.1,2.8-13.4,4.7-20.7,6.2c-7.5,1.5-15.6,3-24.4,4.1c-17.5,2.2-37.2,3.3-58.6,3.1
				c-85.1-1.6-196.6-11.1-307.2-26.4c-24.2-3.3-48.3-6.9-72.1-10.8c-30.6-4.9-60.6-10.1-89.4-15.5c-25.6-4.7-50.3-9.7-73.7-14.5
				c-23.4-4.8-45.6-9.7-65.7-15.8c-20.2-6.1-38.2-13.6-53.3-22.1c-15.1-8.4-27.1-17.6-36-26.1c-17.9-17.3-23.6-30.6-22.8-30.9
				c3.4,2.3,13,15.7,33.3,30.5c7.8,5.8,17.2,11.6,28.1,17.1c2-0.8,4.6-1.7,7.9-2.7c3.1-0.9,6.8-2.1,11.1-3.3c4.3-1,9.2-2.1,14.4-3.4
				c21.3-4.6,50.8-9,85.9-10.4c17.5-0.9,36.4-0.7,56.2-0.1c19.8,0.8,40.6,2.1,62,4.3c3.9,0.4,7.7,0.7,11.6,1.2
				c39.2,4.2,80.1,10.3,120.9,16.8c89.8,14.2,179.4,32.4,247.1,53.3c33.9,10.3,62.1,21.2,82.5,30.7c11.5,5.5,20.4,10.3,26.5,14.1
				c10.1-1,19.5-2.4,27.6-4.2c12.3-3.1,21.7-8.5,26.6-14.4c5-6,5.1-11.7,5.4-14.2C1386.4,520.5,1388.8,525,1386.1,532.5z"/>
			<path class="st0" d="M1397.5,845.7c-0.2-1-0.4-2-0.5-3c-0.4-1.8-0.9-3.4-1.5-4.9c-1.2-3-3-5.4-5-7.4c-2.8-2.7-5.7-4.5-8.2-5.8
				c-1.3,7.9-2.5,15.9-3.7,23.9c2.4-0.2,4.1-0.4,5.4-0.3c-0.4,0.6-2.3,1.6-5.7,2.7c-3.9,1.4-9.7,3-17.3,4.7
				c-5.3,1.2-11.5,2.3-18.5,3.4c-25.6,4-62.1,5.7-104.9,5.5c-14,0.1-28.9,0-44.3-0.2c-4,0-8.1-0.1-12.2-0.2c-7-0.1-14-0.3-21.3-0.5
				c-5.3-0.2-10.6-0.3-16-0.5c-5.2-0.2-10.4-0.4-15.6-0.6c-1.8,0-3.5-0.1-5.3-0.2c-3.4-0.1-6.7-0.3-10.1-0.5
				c-59.2-2.7-123.4-7.7-187-15.7c-56.2-6.9-112-16.2-163.8-26.9c-51.8-10.8-99.7-22.9-140.2-34.9c-20.2-6.1-38.7-11.9-55-17.4
				c-16.2-5.6-30.3-11.2-41.4-16.9c-3.6-1.7-6.8-3.5-9.7-5.2c-7.7-4.5-13.3-8.5-17-11.5c-3.8-3.2-5.5-5.2-5.2-5.5
				c1,0.3,2.7,1.1,5,2.3c-0.6-8.4-1.2-16.9-1.8-25.4c-1,0.4-2.1,0.8-3.3,1.3c-4.3,1.8-10.7,4.2-14.5,9.5c-1.9,2.6-2.8,5.9-2.6,9.8
				c0.2,3.9,1.5,8.4,3.2,13.4c3.6,10.5,6,23,7.1,36.2c1.1,13.2,1.8,27,3,41.6c1.1,14.6,2.5,29.8,4.1,45.6c3.3,31.5,7.6,65,12.1,98.4
				c9.2,67,18.7,134.5,22.8,187.1c1.1,13.2,1.7,25.7,0.9,37.1c-0.1,2.8-0.5,5.6-0.8,8.3c-0.4,2.7-0.9,5.3-1,7
				c-0.1,1.9,0.1,2.7,0.9,3.7c0.5,0.7,1.3,1.3,2.3,1.9c4.1,1.7,11.7,5.7,22.8,10.3c4.4,1.8,9.3,3.8,14.8,5.7
				c0.6,0.2,1.2,0.4,1.8,0.6c22.6,7.9,54.2,15.4,91.5,23c38.3,7.8,82.9,14.6,130.5,20.1c47.8,5.4,98.7,9.4,149.8,12.7
				c25.6,1.6,51.2,3.2,76.5,4.7c25.3,1.6,50.1,3.1,74.2,3.7c4.4,0.2,8.8,0.2,13.2,0.3c2.7,0.1,5.4,0.1,8.1,0.1c3.5,0.1,7,0.1,10.5,0
				c3.2,0,6.4,0,9.6-0.1c0.3,0,0.5,0,0.8,0c3.5,0,7.1-0.1,10.6-0.2c6.7-0.1,13.3-0.4,19.8-0.7c3.3-0.2,6.6-0.4,9.8-0.5
				c9.4-0.5,18.7-1.2,27.6-2c3.6-0.3,7.2-0.7,10.7-1c4.1-0.4,8.1-0.9,12.1-1.3c35.1-4.1,65.4-8.9,88.2-15.8c2.8-0.8,5.4-1.7,7.9-2.6
				c2.8-1,5.4-1.9,7.9-2.9c5.1-1.9,9.6-4,13.6-5.8c-1.3,0-2.4-0.2-3-0.4c0.3-0.9,2.4-1.7,5.4-3.4c3-1.7,7-4.6,10.3-9.3
				c1.6-2.4,3.1-5.2,3.7-8.3c0.7-3.1,0.7-6.6,0.2-10.8c-0.6-4.4-1.3-9.1-2.1-13.9c-0.8-5.1-1.2-10.4-1.8-15.9
				c-1.9-22.2-1.7-48.1,0.7-75.4c2.3-27.3,6.5-56.1,10.8-84.5c8.6-56.9,17.8-113.6,25.6-156c1-5.3,1.9-10.3,2.8-15.2
				c0.8-4.7,2.1-9.7,2.2-12.8C1397.7,847.2,1397.7,846.7,1397.5,845.7z M536.9,792.2c5.5-6.9,72.1,15.7,73.3,24.1
				C606.6,825.1,534.2,799.2,536.9,792.2z M641.4,824.2c2-8.2,44.9-5.4,46.6,2.4C686.9,836,641,831.7,641.4,824.2z M1177.7,1258.4
				c-5.5,0.5-11.2,0.9-16.9,1.1c-26.9,1.2-53.6-0.9-53.5-4.7c1.8-4.1,27.4-6.3,53.1-7.5c6.3-0.3,12.6-0.5,18.5-0.7
				c18.4-0.4,33.7,0,35.8,2.7C1214.5,1253.1,1197.9,1256.6,1177.7,1258.4z M1245.4,1247.6c0-8.4,31.7-12.3,34.3-5
				C1280.6,1252,1246.5,1255,1245.4,1247.6z"/>
			<path class="st1" d="M1313,1274.4c-7.3,2.6-15.4,5.1-24.1,7.3c-16.3,4.2-34.7,7.7-54.7,10.9c-15.1,2.4-31.2,4.4-48,6
				c-4.1,0.4-8.4,0.8-12.6,1.1c-4.3,0.4-8.7,0.7-13.2,0.9c-2.9,0.2-5.9,0.3-8.8,0.5c-3,0.1-5.9,0.3-9,0.4c-3,0.1-6,0.2-9.1,0.3
				c-6.1,0.2-12.3,0.3-18.4,0.3c-3.1,0.1-6.2,0-9.3,0c-3.1,0-6.3,0-9.5-0.1c-2.8,0-5.7-0.1-8.6-0.1c-22.4-0.5-45.5-1.6-68.7-2.9
				c-26.1-1.6-52.7-3.2-79.2-4.8c-53-3.5-106-8.1-155.5-14.6c-49.4-6.5-95.2-15-134-24.7c-9.7-2.2-18.9-4.8-27.7-7.2
				c-8.8-2.4-17-4.8-24.7-7.3c-9.8-3.1-18.6-6.3-26.4-9.7c2.1,12.6,4.2,25.4,6.3,38.3c3.4,20.6,6.9,41.5,10.3,62.4
				c6.8,42.2,13.6,84.5,20,124.4c3.1,19.8,6.1,39.1,9,57.5c1.6,8.7,4.5,15.4,10,18.5c5.7,3.7,15.4,4.4,24,11.2c4.2,3.5,7,8,8.7,12.3
				c1.7,4.4,2.6,8.5,3.3,12.4c1.4,7.7,2.3,14.7,4.7,20c2.4,5.2,6.1,8.1,11.6,9.7c5.3,1.5,11.3,2.6,16.3,3.8
				c7.3,1.7,13.7,3.2,19.1,4.5c12.1-0.7,42.6,1.4,83.5,3.8c49.1,2.9,113.2,5.5,177.5,5.6c11.3,0.1,22.6,0.1,33.9-0.1
				c8.7-0.1,17.4-0.2,25.9-0.4c3.9-0.1,7.9-0.2,11.8-0.3c20.6-0.5,40.6-1.1,59.4-1.9c6.6-0.2,13-0.5,19.2-0.8
				c5.8-0.2,11.5-0.5,17-0.8c3.8-0.2,7.6-0.4,11.2-0.6c12.5-0.7,24-1.3,34.4-1.9c10.4-0.7,19.7-1.1,27.6-1.5
				c8-0.2,14.2-0.7,18.6-2.1c1.7-0.6,3.1-1.2,4.3-1.8c-0.2-1.6-0.3-3.7-0.1-6.2c0.5-5,2.1-11.9,6.6-19.3c2.2-3.7,5.1-7.5,9-10.9
				c3.8-3.5,8.7-6.5,13.6-8.9c4.9-2.4,9.9-4.5,13.8-7.4c4-2.9,6.1-6.2,7.4-11.7c1.4-5.4,2.3-12.4,3.4-18.9c1-6.7,2.4-13.5,3.3-20.7
				c0.9-7.1,2-14.3,2.9-21.8c0.8-7.4,1.6-15.1,2.5-22.8c3.2-30.9,5.3-64,7-97.1C1309.9,1329.7,1311.2,1301.4,1313,1274.4z
				 M640.6,1415.4c-6.3,0.5-13.4-25.3-16-51.5c-2.8-26.2-1.1-52.5,3.9-52.7c5.6,1.6,9.6,26.2,12.4,51
				C643.7,1387,645.2,1412.2,640.6,1415.4z M698.2,1589.8c-9.4,1.3-9.9-14.2-2.5-15.4C703.9,1573.6,705.6,1587.9,698.2,1589.8z
				 M737.9,1596.6c-4.6,1-7.5-3.3-7.5-8.2c-0.1-4.9,2.7-9.3,6.5-8.9c4.1,0.8,5.6,4.5,5.8,8.1
				C742.7,1591.2,741.5,1595.3,737.9,1596.6z M804.7,1604.8c-9.4-0.7-6.6-16.5,0.8-16.1C813.8,1589.7,812.4,1604.4,804.7,1604.8z
				 M881.4,1605.8c-4.6,1-7.5-3.5-7-8.4c0.3-4.9,3.9-8.8,7.4-7.7c3.9,1.4,5,5,4.9,8.1C886.5,1601,885,1604.6,881.4,1605.8z
				 M931.5,1611.2c-4.6,1-7.8-3.8-8.2-9.1c-0.5-5.4,1.6-10.8,5.3-10.9c4.2,0.2,6.3,4.7,6.8,9.2C936,1604.9,935,1609.8,931.5,1611.2z
				 M1009.4,1607.6c-4.6,0.9-7.5-3.6-7.5-8.7c-0.1-5.1,2.8-9.7,6.5-9.3c4.1,0.7,5.6,4.8,5.8,8.6
				C1014.3,1602.1,1013.1,1606.4,1009.4,1607.6z M1069.1,1603.2c-4.5,1.5-7.8-2.5-7.8-7.2c0-4.8,3.3-8.8,6.9-7.9
				c4,1.2,5.3,4.3,5.4,7.2C1073.7,1598.2,1072.5,1601.6,1069.1,1603.2z M1122.3,1604c-4.7,0.7-7.2-3.3-6.9-7.6
				c0.2-4.3,3.1-8.1,6.8-7.5c4,0.9,5.5,4.3,5.5,7.5C1127.6,1599.5,1126,1603,1122.3,1604z M1171.3,1605.6c-9.4,1.5-11.8-21.5-4.4-23
				C1175.2,1581.8,1178.6,1603.1,1171.3,1605.6z M1212.7,1598.2c-9.4-0.7-6.5-18.4,0.9-18
				C1221.9,1581.3,1220.3,1597.8,1212.7,1598.2z M1145.9,1578.5c-8.5,0.7-17.5,1.4-26.8,1.9c-48.5,3.2-107.1,5.2-165.5,5
				c-69.6-0.6-139.1-2.7-190.9-10.1c-25.9-3.6-47.1-8.4-61.8-12.6c-14.5-4.2-22.5-7.5-22.4-8.4c5.3-0.7,40,8.2,91,12.7
				c50.9,4.7,117.9,5.7,184.9,6.1c59.5,0.2,119.1-1.3,168.1-3c6.2-0.2,12.3-0.5,18.2-0.7c52-2.1,88.9-4.1,95.3-2.7
				C1234.3,1569.1,1198.7,1574.2,1145.9,1578.5z M1270,1499.7c-12.6-1.3-7.5-47.8,2.4-47.3C1283.3,1454.7,1280.2,1498.1,1270,1499.7
				z M1276.8,1432.9c-6.1-1.7-5.2-23.8-5.1-45.6c0.4-21.8-0.1-43.8,4.8-44.7c5.7,0.5,11.8,22.3,11.6,44.7
				C1288.2,1409.8,1282.2,1431.7,1276.8,1432.9z"/>
			<path class="st0" d="M1385.9,520c-0.4,2.5-0.4,8.2-5.4,14.2c-4.9,5.9-14.3,11.3-26.6,14.4c-8.1,1.8-17.5,3.2-27.6,4.2
				c-6.2-3.7-15-8.6-26.5-14.1c-20.4-9.5-48.7-20.4-82.5-30.7c-67.7-21-157.4-39.1-247.1-53.3c-40.8-6.4-81.7-12.6-120.9-16.8
				c-3.9-0.5-7.7-0.9-11.6-1.2c-21.4-2.2-42.2-3.4-62-4.3c-19.8-0.6-38.7-0.8-56.2,0.1c-35.1,1.4-64.6,5.8-85.9,10.4
				c-5.3,1.3-10.1,2.4-14.4,3.4c-4.2,1.2-8,2.4-11.1,3.3c-3.2,1.1-5.8,2-7.9,2.7c-10.9-5.5-20.3-11.3-28.1-17.1
				c-20.3-14.8-29.9-28.2-33.3-30.5c-0.8,0.4,4.9,13.7,22.8,30.9c9,8.5,21,17.7,36,26.1c15.1,8.5,33.1,15.9,53.3,22.1
				c20.2,6.1,42.4,11,65.7,15.8c23.4,4.9,48.1,9.8,73.7,14.5c28.8,5.4,58.8,10.6,89.4,15.5c23.8,3.8,47.9,7.4,72.1,10.8
				c110.6,15.3,222.1,24.7,307.2,26.4c21.3,0.2,41.1-0.9,58.6-3.1c8.8-1.1,16.9-2.6,24.4-4.1c7.4-1.5,14.7-3.4,20.7-6.2
				c12.2-5.2,20.6-13.4,23.3-20.9C1388.8,525,1386.4,520.5,1385.9,520z M1251.9,554c-83-4.8-190.3-15.1-296.7-29.7
				c-26.6-3.6-53-7.5-79.1-11.5c-26.2-4.1-51.9-8.2-76.8-12.5c-24.9-4.2-49-8.5-71.9-12.7c-22.9-4.2-44.6-8.1-64.4-13
				c-19.7-4.8-37.5-10.7-52.8-17.4c-2.1-1-4.1-1.9-6.1-2.9c0.2,0,0.4,0,0.7-0.1c5.4-0.6,13.3-2,23.4-3.2c20.1-2.7,48.9-5.8,83.7-6.2
				c34.8-0.4,75.3,1.6,118.7,6.6c8.3,0.9,16.8,1.9,25.3,3c35.8,4.5,73.1,10.5,110.5,16.4c92.5,14.7,184.9,32.3,253.2,51.1
				c34.3,9.2,62.5,18.7,82.4,26c5,1.9,9.5,3.5,13.4,5c0.7,0.3,1.4,0.5,2,0.8C1298.3,555,1276.1,555.2,1251.9,554z"/>
			<path class="st0" d="M1317.6,553.5c-19.3,1.4-41.5,1.7-65.8,0.5c-83-4.8-190.3-15.1-296.7-29.7c-53.2-7.3-106.2-15.5-155.9-24.1
				c-24.9-4.2-49-8.5-71.9-12.7c-22.9-4.2-44.6-8.1-64.4-13c-19.7-4.8-37.5-10.7-52.8-17.4c-2.1-1-4.1-1.9-6.1-2.9
				c0.2,0,0.4,0,0.7-0.1c5.4-0.6,13.3-2,23.4-3.2c20.1-2.7,48.9-5.8,83.7-6.2c34.8-0.4,75.3,1.6,118.7,6.6
				c43.3,4.7,89.5,12.1,135.8,19.4c92.5,14.7,184.9,32.3,253.2,51.1c34.3,9.2,62.5,18.7,82.4,26c5,1.9,9.5,3.5,13.4,5
				C1316.3,553,1316.9,553.2,1317.6,553.5z"/>
			<path class="st2" d="M1326.9,756.3c-12.4-3.2,1.7-138.5,11.7-137.9C1349.2,623.9,1337.5,751.1,1326.9,756.3z"/>
			<path class="st2" d="M1329.3,795.3c-1.6,6.8-4.9,13.6-10,14c-6.2-0.5-8.2-9.3-6-17.5c2.1-8.3,7.9-15.1,12.5-13.3
				C1330.8,781.1,1330.8,788.5,1329.3,795.3z"/>
			<path class="st2" d="M553.3,614.1c-6.2,0.8-13.5-22.3-13.9-46.1c-0.8-23.8,5.2-46.8,10.2-46.1c5.2,2.4,5.3,24,6.2,45.6
				C556.4,589.1,557.9,611,553.3,614.1z"/>
			<path class="st2" d="M640.6,1415.4c-6.3,0.5-13.4-25.3-16-51.5c-2.8-26.2-1.1-52.5,3.9-52.7c5.6,1.6,9.6,26.2,12.4,51
				C643.7,1387,645.2,1412.2,640.6,1415.4z"/>
			<path class="st0" d="M885.8,593c-1.5,2.9-22.3,2.4-52.5-1.8c-30.2-4.2-69.6-12.4-108.2-23.4c-38.5-11-76.1-24.8-103.5-36.9
				c-13.6-6-25-11.4-32.5-16.3c-7.5-4.9-11-8.7-10.3-9.8c1.9-0.4,7.3,1.8,15.8,4.7c8.5,3,20.4,6.6,34.3,11.3
				c27.8,9.1,64.1,20.9,101,31.2c36.8,10.4,74.1,19.5,103,26.3C861.9,585.1,882.6,589.8,885.8,593z"/>
			<path class="st2" d="M1189,615c-0.6,3.1-15.4,6.5-37.6,8.5c-22.2,2-51.7,2.1-80.9-0.1c-29.3-2.3-58.2-7-79.4-12.1
				c-21.3-5.2-34.9-10.3-34.4-12.7c5.2-4.4,59.9,4.8,115.3,8.5c27.7,2,55.5,3.3,77.2,4C1170.8,611.9,1186.2,612.6,1189,615z"/>
			<path class="st2" d="M1276.8,1432.9c-6.1-1.7-5.2-23.8-5.1-45.6c0.4-21.8-0.1-43.8,4.8-44.7c5.7,0.5,11.8,22.3,11.6,44.7
				C1288.2,1409.8,1282.2,1431.7,1276.8,1432.9z"/>
			<path class="st2" d="M1270,1499.7c-12.6-1.3-7.5-47.8,2.4-47.3C1283.3,1454.7,1280.2,1498.1,1270,1499.7z"/>
			<path class="st0" d="M1236,1566.6c-1.7,2.5-37.3,7.6-90.1,11.9c-52.8,4.3-122.7,7.2-192.3,6.9c-69.6-0.6-139.1-2.7-190.9-10.1
				c-25.9-3.6-47.1-8.4-61.8-12.6c-14.5-4.2-22.5-7.5-22.4-8.4c5.3-0.7,40,8.2,91,12.7c50.9,4.7,117.9,5.7,184.9,6.1
				c67.1,0.2,134.3-1.6,186.3-3.7C1192.7,1567.3,1229.5,1565.3,1236,1566.6z"/>
			<path class="st2" d="M1171.3,1605.6c-9.4,1.5-11.8-21.5-4.4-23C1175.2,1581.8,1178.6,1603.1,1171.3,1605.6z"/>
			<path class="st0" d="M1127.7,1596.4c-0.1,3.2-1.7,6.6-5.4,7.6c-4.7,0.7-7.2-3.3-6.9-7.6c0.2-4.3,3.1-8.1,6.8-7.5
				C1126.2,1589.7,1127.7,1593.2,1127.7,1596.4z"/>
			<path class="st2" d="M1073.7,1595.3c0,2.9-1.1,6.3-4.6,7.9c-4.5,1.5-7.8-2.5-7.8-7.2c0-4.8,3.3-8.8,6.9-7.9
				C1072.2,1589.2,1073.5,1592.4,1073.7,1595.3z"/>
			<path class="st0" d="M1014.2,1598.2c0.1,3.9-1.1,8.1-4.8,9.4c-4.6,0.9-7.5-3.6-7.5-8.7c-0.1-5.1,2.8-9.7,6.5-9.3
				C1012.4,1590.4,1014,1594.4,1014.2,1598.2z"/>
			<path class="st2" d="M931.5,1611.2c-4.6,1-7.8-3.8-8.2-9.1c-0.5-5.4,1.6-10.8,5.3-10.9c4.2,0.2,6.3,4.7,6.8,9.2
				C936,1604.9,935,1609.8,931.5,1611.2z"/>
			<path class="st0" d="M886.7,1597.9c-0.2,3.2-1.7,6.8-5.3,8c-4.6,1-7.5-3.5-7-8.4c0.3-4.9,3.9-8.8,7.4-7.7
				C885.8,1591.1,886.8,1594.7,886.7,1597.9z"/>
			<path class="st2" d="M804.7,1604.8c-9.4-0.7-6.6-16.5,0.8-16.1C813.8,1589.7,812.4,1604.4,804.7,1604.8z"/>
			<path class="st0" d="M742.6,1587.6c0.1,3.6-1.1,7.7-4.8,8.9c-4.6,1-7.5-3.3-7.5-8.2c-0.1-4.9,2.7-9.3,6.5-8.9
				C740.9,1580.3,742.5,1584,742.6,1587.6z"/>
			<path class="st2" d="M698.2,1589.8c-9.4,1.3-9.9-14.2-2.5-15.4C703.9,1573.6,705.6,1587.9,698.2,1589.8z"/>
			<path class="st0" d="M1212.7,1598.2c-9.4-0.7-6.5-18.4,0.9-18C1221.9,1581.3,1220.3,1597.8,1212.7,1598.2z"/>
			<path class="st0" d="M610.2,816.4c-3.6,8.8-76-17.1-73.3-24.1C542.4,785.3,609,807.9,610.2,816.4z"/>
			<path class="st0" d="M688,826.6c-1.1,9.4-47,5.1-46.6-2.4C643.4,816,686.3,818.9,688,826.6z"/>
			<path class="st0" d="M1214.7,1249.3c-0.2,4.8-27,9.2-53.9,10.2c-26.9,1.2-53.6-0.9-53.5-4.7c1.8-4.1,27.4-6.3,53.1-7.5
				C1186,1246.1,1211.9,1245.7,1214.7,1249.3z"/>
			<path class="st0" d="M1279.7,1242.6c0.9,9.4-33.2,12.4-34.3,5C1245.4,1239.2,1277.1,1235.3,1279.7,1242.6z"/>
			<path class="st0" d="M431,434.9c4.2,6.5,8.4,10,11.3,8.9c4-3.8-2.2-21.5-4.8-38.1c-1.3-8.3-1.6-16.5-1.5-22.9
				c0-6.4,0.4-11.4-1.8-13.3c-2.1-1.1-6.5,2.4-9.8,9.9c-3.3,7.4-4.7,18.4-3.1,28.9C422.9,418.8,426.9,428.5,431,434.9z"/>
			<path class="st0" d="M403.2,453.6c-4.6,2,0.7,20.4,12.5,35.4c11.5,15.2,28.2,25.3,32.3,20.5c1.8-5-9.4-17.6-19.4-30.7
				C418.2,466,408.7,452.4,403.2,453.6z"/>
			<path class="st0" d="M557.1,1481.5c-8.2-25.1-12-53-18-54.4c-2.5,0.2-3.9,7.6-3.9,18.7c0,11.1,1.6,26.1,6.3,40.8
				c4.6,14.7,12.9,28.4,21.5,36.7c8.5,8.4,16.5,11.3,18.6,9.1c0.6-2.9-4.2-8.9-9.4-17.7C566.9,1506,561.3,1494.1,557.1,1481.5z"/>
			<path class="st0" d="M557.2,1543.5c-10.8-5.1-21.4-11.1-25.8-7.7c-1.6,1.8-0.5,5.7,3,10.1c3.4,4.4,9.2,9.1,15.7,12.4
				c6.5,3.3,13.8,5.3,19.4,5.3c5.7,0.1,9.6-1.6,10.3-4.6C579.2,1553.7,567.8,1548.9,557.2,1543.5z"/>
			<path class="st3" d="M1087.7,1302.1c-225.4,39.1-431.9-10-509.9-32.8c-2.1-12.9-4.2-25.7-6.3-38.3c7.8,3.3,16.7,6.5,26.4,9.7
				c7.7,2.5,16,4.9,24.7,7.3c8.8,2.4,18,5,27.7,7.2c38.7,9.6,84.5,18.1,134,24.7c49.4,6.5,102.5,11.1,155.5,14.6
				c26.5,1.6,53.1,3.2,79.2,4.8C1042.2,1300.5,1065.2,1301.6,1087.7,1302.1z"/>
		</g>
		<g>
			<g>
				<g>
					<path class="st2" d="M769.2,1061.9c3.3,0.5,4.4,4.6,3.2,12.2s-3.7,14.2-7.8,19.8c-4.1,5.6-8.7,9.7-13.7,12.3
						c-5.1,2.6-10.6,4.5-16.7,5.6c-20.4,4.2-38.4,0.6-53.3-10.4c-7.5-5.6-12.9-11.7-16.1-18.1c-3.2-6.4-5.2-13.7-6.2-21.7
						c-1.4-12.2-0.7-24.5,2.1-36.9c2.8-12.4,6.7-23.7,11.7-34c4.9-10.3,11-19.7,18.1-28.5c7.2-8.7,15.9-15.1,26.2-19.3
						c10.3-4.2,21.3-5.1,33.3-3c5.1,0.9,10.2,2.7,15.5,5.3c5.2,2.6,9.4,5.4,12.6,8.4c3.1,3,5.7,7.3,7.7,12.8
						c2,5.5,2.5,11.7,1.5,18.5c-1.1,7.3-3.9,13.7-8.4,19c-2.1,2.5-5.1,4.5-9.1,6c-4,1.6-8.5,1.9-13.5,1.1
						c-7.7-1.3-12.6-5.5-14.6-12.5c-0.9-2.8-1-5.7-0.5-8.7c0.5-3,2-4.5,4.1-4.7c2.4-0.2,4.9-1.6,7.3-4.1c2.5-2.5,4-5.7,4.6-9.5
						c0.5-3,0.1-5.8-1.1-8.3c-2.4-4.5-6.5-7.2-12.3-8.3c-5.8-1.1-11.5,0.6-17.3,4.9c-5.8,4.3-10.7,10.1-14.7,17.5
						c-8.1,14.8-13.6,28.8-16.3,42c-2.7,13.2-2.9,24.3-0.6,33.1c2.8,10.9,7.7,18.8,14.6,23.5c4.3,2.9,9.6,5,15.7,6.1
						c10.3,1.8,20.4-0.8,29.9-7.9c4-2.8,7.5-6.3,10.5-10.6C766.6,1062.3,767.8,1061.7,769.2,1061.9z"/>
					<path class="st2" d="M818.2,1032.6c-4.3-0.5-7.6-0.7-9.6-0.8c-2-0.2-2.9-0.7-2.7-1.7c0.1-1,0.8-1.8,1.9-2.7
						c12-8,30.6-10.4,56.1-8c8.7,0.8,15.5,2.1,20.5,4c1,0.4,1.5,0.6,2.5,0.9c2,1,2.9,1.9,2.8,2.9c-0.1,0.8-0.7,1.4-1.9,1.8
						c-4.7,0.9-9.2,2.6-13.7,5.1c-4.5,2.4-6.8,4.2-6.9,5.3c0.6,0.7,0.8,1.1,1.4,1.8c5.2,3.4,9,8.3,11.5,14.8
						c2.5,6.5,3.8,12.2,3.7,17c0,3,0,4.5-0.1,7.5c-1.2,15.9-7.1,28.6-17.8,38c-10.7,9.4-24.8,13.3-41.9,11.3c-8.6-1-16-3.2-21.9-6.7
						c-5.9-3.5-10.1-7.2-12.6-11c-2.5-3.8-4.4-8.1-5.5-12.6c-1.4-6-1.5-12.4-0.6-18.7c0.9-6.3,3-12.5,6.2-18.5
						c3.2-6,6.5-10.4,9.9-13c3.4-2.6,7.1-4.7,11.1-6.1c5.1-1.8,9-2.5,11.9-2.2c2.9,0.3,4.3,1.1,4.1,2.2c-0.7,0.9-1.1,1.3-1.8,2.2
						c-4.2,3.7-7.6,8.8-10.1,15.3c-2.5,6.5-4,12.4-4.7,17.5c-0.6,5.2-0.6,10.4,0.2,15.7c0.8,5.3,1.9,9.3,3.4,12
						c1.5,2.7,3.3,4.8,5.5,6.4c3.2,2.3,6.6,3.7,10.4,4.1c3.8,0.4,7.6-0.5,11.4-2.8c3.8-2.3,6.8-5.5,8.8-9.7c4-7.7,6.3-15.8,7.1-24.3
						c1.3-13.5-1.4-24.2-7.9-32.3C842.5,1039.2,832,1034.1,818.2,1032.6z"/>
					<path class="st2" d="M932,1073c-0.4,19.3-0.6,29-0.9,48.3c-0.5,10.1-2.4,19-5.8,26.7c-3.4,7.6-7.4,13.3-12,16.9
						c-9.5,7.7-17.8,11.8-24.7,12.5c-1.9,0.3-2.9,0.4-4.8,0.6c-2.8-0.2-4.1-1-4-2.5c0.7-1.4,1-2.1,1.7-3.5
						c14.7-15.2,23.7-54.6,27.7-118.1c0.4-5.8,0.5-10.1,0.6-13c-3.6-0.2-7.2-0.2-10.8,0c-0.1,0-0.2,0-0.3,0
						c-1.9-0.1-2.7-1.1-2.6-2.8c0.6-3.6,0.9-5.5,1.4-9.1c0.3-1.4,1.5-2.1,3.7-1.9c3.6,0.3,5.5,0.4,9.1,0.6c0.4-6.5,0.6-9.7,1-16.1
						c0.8-9.1,1.2-13.7,1.9-22.8c0.1-1.1,0.4-2.4,0.8-3.7c0.5-1.3,2.4-3.3,5.7-5.9c3.3-2.6,8-4.9,14.1-7c6.1-2,11.3-3,15.6-2.8
						c4.3,0.2,6.4,1.5,6.3,4.1c0,1-0.8,1.7-2.3,2.3c-4.8,1.3-8.8,5.3-12.1,12c-3.3,6.7-5.4,18.2-6.2,34.6c-0.1,2.7-0.2,4-0.3,6.7
						c8.6,0.1,14.3-0.1,17-0.5c1.2,0,1.7,1,1.7,3c-0.1,1.9-1,4.3-2.9,7c-1.9,2.8-4.2,4.1-6.8,4.1c-2.6,0-5.9-0.2-9.8-0.5
						C933,1054.2,932.4,1064.5,932,1073z"/>
					<path class="st2" d="M993.5,1074.7c0.4,19.3,0.6,29,1,48.3c-0.1,10.1-1.6,19.1-4.7,26.9c-3.1,7.8-6.9,13.6-11.4,17.3
						c-9.2,8.1-17.3,12.5-24.2,13.4c-1.9,0.3-2.9,0.5-4.8,0.8c-2.8-0.1-4.2-0.9-4.1-2.3c0.6-1.4,0.9-2.1,1.5-3.6
						c14.1-15.8,21.6-55.5,23-119.1c0.1-5.8,0.1-10.1,0-13c-3.6-0.1-7.2,0.1-10.8,0.4c-0.1,0-0.2,0-0.3,0c-1.9-0.1-2.8-1-2.7-2.7
						c0.4-3.7,0.6-5.5,1.1-9.1c0.2-1.4,1.4-2.1,3.6-2.1c3.6,0.1,5.5,0.2,9.1,0.2c0.2-6.5,0.2-9.7,0.4-16.2c0.4-9.2,0.6-13.7,1-22.9
						c0-1.1,0.3-2.4,0.7-3.7c0.4-1.4,2.3-3.4,5.4-6.2c3.2-2.8,7.8-5.2,13.8-7.5c6-2.3,11.2-3.4,15.5-3.4c4.3,0,6.5,1.3,6.5,3.8
						c0,1-0.7,1.8-2.2,2.4c-4.7,1.5-8.6,5.6-11.7,12.4c-3.1,6.8-4.7,18.4-4.8,34.8c0,2.7,0,4.1,0,6.8c8.6-0.3,14.3-0.7,17-1.2
						c1.2,0,1.8,1,1.8,2.9c0,1.9-0.9,4.3-2.6,7.1c-1.8,2.8-4,4.3-6.6,4.4c-2.6,0.1-5.9,0-9.8-0.2
						C993.8,1055.8,993.6,1066.2,993.5,1074.7z"/>
					<path class="st2" d="M1098.4,1103.2c0.4,6.1-0.7,11.5-3.2,16.3c-2.5,4.7-5.5,8.3-8.9,10.6c-3.4,2.3-7.4,4.3-12.1,5.7
						c-5.9,1.9-11.6,2.9-17,3c-15.2,0.5-26.6-4.4-33.9-14.5c-7.3-10.1-10.9-23-10.9-38.6c-0.1-15.7,4.2-29.6,12.5-42
						c8.3-12.3,20.6-18.7,37.3-19.3c15.2-0.6,25.7,3.9,31.7,13.7c2.4,3.7,3.8,7.3,4,10.8c0.2,3.5,0.2,6.2,0,8.2
						c-0.2,2-1.2,5.1-3.1,9.2c-1.9,4.1-4.4,7.9-7.8,11.3c-3.3,3.4-8.7,6.7-16.1,9.9c-7.4,3.2-16.3,5.5-26.5,6.7
						c-1.4,0-2.1,0.6-2.1,1.7c0,1.4,0.7,3.6,1.9,6.4c1.2,2.8,2.6,5.1,4,7c4,4.4,9.9,6.5,17.6,6.2c7.7-0.3,14.1-2.8,19.2-7.6
						c2.7-2.6,4.9-5.6,6.5-9.3c0.6-1.3,1.5-2,2.7-2.1c1.1-0.1,2.1,0.8,2.9,2.5C1097.9,1100.9,1098.4,1102.2,1098.4,1103.2z
						 M1039.7,1073.4c0.2,2.4,0.2,3.6,0.4,6c0,1,0.7,1.4,2.1,1.4c5.6-0.6,10.4-2.1,14.5-4.4c4.1-2.3,7.2-4.9,9.1-7.7
						c3.9-6.1,5.9-11.4,6.1-15.7c0.1-1.2,0.1-1.7,0.1-2.9c-0.4-8.7-4.2-12.8-11.5-12.6c-5.4,0.2-9.8,2.6-13.1,7.2
						C1042.1,1052,1039.4,1061.5,1039.7,1073.4z"/>
					<path class="st2" d="M1196.2,1094.5c0.7,6.1,0,11.5-2.2,16.4c-2.2,4.9-5,8.6-8.3,11.2c-3.3,2.5-7.2,4.7-11.7,6.5
						c-5.8,2.2-11.4,3.6-16.8,4.1c-15.2,1.4-26.9-2.8-34.8-12.4c-7.9-9.6-12.3-22.2-13.3-37.9c-1-15.7,2.4-29.8,9.9-42.7
						c7.5-12.8,19.5-19.9,36.1-21.5c15.1-1.5,25.9,2.3,32.6,11.7c2.7,3.6,4.2,7.1,4.6,10.5c0.4,3.4,0.6,6.2,0.5,8.2
						c-0.1,2-0.9,5.2-2.5,9.4c-1.6,4.2-3.9,8.2-7.1,11.8c-3.1,3.6-8.3,7.3-15.5,10.9c-7.2,3.7-15.9,6.4-26,8.3
						c-1.4,0.1-2.1,0.7-2,1.9c0.1,1.4,0.9,3.5,2.3,6.2c1.4,2.7,2.9,5,4.5,6.8c4.3,4.1,10.3,5.9,18,5.1c7.7-0.8,13.9-3.7,18.8-8.8
						c2.6-2.7,4.5-5.9,5.9-9.7c0.6-1.4,1.4-2.1,2.6-2.2c1.1-0.1,2.2,0.6,3.1,2.3C1195.6,1092.2,1196.1,1093.5,1196.2,1094.5z
						 M1135.6,1068.4c0.3,2.4,0.5,3.6,0.8,6c0.1,1,0.8,1.4,2.2,1.3c5.5-1,10.3-2.7,14.3-5.3c4-2.6,6.9-5.3,8.7-8.2
						c3.6-6.3,5.2-11.7,5.1-16.1c0-1.2,0-1.7,0-2.9c-0.9-8.6-5-12.6-12.3-11.8c-5.4,0.5-9.6,3.2-12.6,8
						C1136.7,1046.8,1134.7,1056.5,1135.6,1068.4z"/>
				</g>
			</g>
			<circle class="st2" cx="1253.7" cy="1085.3" r="15.7"/>
			<circle class="st2" cx="602.5" cy="1025.5" r="15.7"/>
		</g>
		<path class="st3" d="M1457.1,558.6c-0.6,1.4-1.2,2.8-2,4.3c-0.8,1.5-1.8,3-2.8,4.4c-2.2,2.8-4.8,5.4-7.5,7.6
			c-5.5,4.5-11.5,7.9-16.7,12c-5.2,4-8.7,8.8-11.2,15.4c-2.5,6.4-3.7,14-4.9,22.2c-1.2,8.3-2.4,16.8-3.6,25.6
			c-2.5,17.5-5.2,35.9-7.9,54.9c-5.6,36.9-11.6,76-17.5,115.3c4.1,0.8,9.9,2.6,15.4,8c2.7,2.7,5.1,6.4,6.7,10.6
			c0.4,1,0.8,2.1,1.1,3.1l0.4,1.4c0.1,0.4,0.3,1.3,0.5,1.9c0.6,2.8,0.5,5.5,0.2,7.9c-0.9,8.8-2,18.6-3.2,29.3
			c-4.9,42.3-12.4,97.4-20.6,152.5c-4.1,27.5-8.4,54.9-11.3,80.8c-2.9,25.9-4.4,50.3-4,71.6c0.1,10.7,0.7,20.4,1.4,29.4
			c0.3,4.7,0.4,9.4-0.5,14c-0.9,4.6-2.9,8.6-5.2,11.6c-0.4,0.5-0.7,1-1.2,1.4c0.3-0.1,0.5-0.2,0.7-0.3c-0.2,1.8-10.5,13-33,23.7
			c-0.4,0.2-0.8,0.4-1.2,0.6c-1.3,29.5-2.5,60.4-4.2,91.5c-1.9,34.5-4.6,69-8.7,101.1c-1.9,16.1-4.6,31.6-7.1,46.3
			c-1.5,7.3-3,14.4-4.5,21.2c-1.5,6.8-2.5,13.5-6,20.7c-1.7,3.5-4.4,6.7-7.3,9c-2.9,2.4-6,4-8.8,5.4c-5.8,2.7-11,4.3-15.3,6.4
			c-8.6,4-14.5,10.5-18.4,16.3c-4.2,6.5-6,12.2-7,16c0.5-0.3,0.9-0.6,1.2-0.8c0.3,0.5-0.2,2.5-2.3,4.9c-0.1,0-0.1,0.1-0.1,0.1l0,0.1
			c-0.2,0.5-0.4,0.7-0.7,0.7l0-0.1c0,0-0.1-0.1-0.1-0.1c-0.3,0.3-0.6,0.7-1,1c-3.6,3.1-10.1,5.3-17.7,6.6c-15,2.7-36.2,5.8-61.5,8.6
			c-18.1,2-38.4,3.8-60,5.2c2.4-4.8,4.7-9.9,7-15.2c4.3-10,8.4-20.8,12.3-32.3c1.2-3.4,2.3-6.8,3.4-10.4
			c23.1-71.7,39.7-168,51-270.4c0.5-4.7,1.1-9.5,1.5-14.3c0.9-8.9,1.8-17.9,2.7-27c0.4-3.9,0.8-7.9,1.1-11.8
			c12.6-136.2,16.4-277.5,14.2-382.3c-0.1-4.6-0.2-9.2-0.3-13.7c-1.1-41-3.1-75.8-6-101.5c-5.8-52.7-34.5-93.2-72.1-124.1
			c-7.2-5.9-14.7-11.4-22.5-16.6c-90.3-60.8-212.1-76.5-212.1-76.5s-0.1-0.8-0.3-2.3c-0.4-2.9-1.4-8.3-3.7-16.8
			c-3.2-12.5-9.2-31.6-20-58.5c-2.1-5.2-4.3-10.7-6.8-16.4c-11.8-27.7-28.2-62.3-50.7-104.7c-2.7-5-5.5-10.1-8.4-15.4
			c6.2,0.1,12.5,0.3,18.7,0.6c57.7,2.5,118.8,9.7,179.1,20.7c60.3,11.1,120.2,24.8,175.7,41.9c27.8,8.4,54.4,17.6,79.5,27.2
			c25.1,9.7,48.5,19.5,70.3,29.1c43.6,19.1,79.2,40,103,58.7c11.9,9.4,21.1,17.9,27.6,24.7c0.1,0,0.1,0.1,0.1,0.1
			c0.1,0.1,0.1,0.1,0.1,0.1c2.5,1.7,5.3,3.9,8,6.9c1.4,1.5,2.8,3.3,4.2,5.2c1.5,2,2.8,4.8,3.4,7.7
			C1460.9,546.6,1459.5,552.9,1457.1,558.6z"/>
	</g>
	<g>
		<g>
			<path class="st2" d="M1607,834.2c-0.2,0.4-0.2,0.5-0.5,0.9c-0.3,0.3-0.8,0.8-1.6,1.2l-5.5,3.2c-3.8,2.1-7.6,4.1-11.4,6.2
				c-7.6,4.1-15.1,8-22.4,11.6c-7.4,3.7-14.5,7.1-21.4,10.3c-6.9,3.1-13.4,6.5-19,7.8c-5.6,1.4-11,0.3-14-2.6
				c-3-2.7-3.2-7.3-1.7-9.8l0,0c1.1-0.4,3.3-2.2,6.7-5c0.2-0.1,0.4-0.2,0.6-0.5c5.9-4.7,15.1-12.1,27.2-19.8
				c10.9-6.8,24.2-13.9,39.3-19.5c3.7-1.4,7.6-2.7,11.5-3.9c2.1-0.7,3.8-1.2,5.2-1.3c1.5-0.1,1.9,0.2,2.1,0.4c0.3,0.2,1,2.2,1.6,4.2
				c0.6,2,1.2,4,1.7,6C1606.4,827.6,1607.6,832.6,1607,834.2z"/>
			<path class="st0" d="M1616.3,828.7c-0.4-2.3-0.9-4.3-1.4-6.5c-0.5-2.1-1.1-4.2-1.8-6.3c-0.7-2.1-1.1-4-2.8-6.9
				c-0.8-1.4-2.3-2.9-4-3.8c-1.7-0.9-3.5-1.2-5-1.3c-3-0.1-5.5,0.7-7.6,1.3c-4,1.3-7.9,2.6-11.7,4.1c-15.2,5.9-28.6,13.4-39.4,21
				c-14.5,10.2-24.3,20.1-29.5,26.5l0,0c-1,0.3-2.2,0.6-3.5,1.2c-1.8,0.8-3.8,2.6-4.8,5c-1,2.3-1.4,5.1-0.7,8.1
				c0.6,2.9,2.5,5.9,5.1,7.9c5.3,4.2,13.1,5,20.1,3.1c7-1.8,13.3-4.8,20.2-7.6c6.9-2.9,14-6.1,21.3-9.5c7.3-3.5,14.8-7.2,22.2-11.1
				c3.7-2,7.5-4,11.2-6.1l5.7-3.2c1.1-0.7,2.3-1.5,3.4-2.6c1.2-1.1,2.2-2.8,2.8-4.5C1617.1,833.9,1616.6,831,1616.3,828.7z
				 M1607,834.2c-0.2,0.4-0.2,0.5-0.5,0.9c-0.3,0.3-0.8,0.8-1.6,1.2l-5.5,3.2c-3.8,2.1-7.6,4.1-11.4,6.2c-7.6,4.1-15.1,8-22.4,11.6
				c-7.4,3.7-14.5,7.1-21.4,10.3c-6.9,3.1-13.4,6.5-19,7.8c-5.6,1.4-11,0.3-14-2.6c-3-2.7-3.2-7.3-1.7-9.8l0,0
				c1.1-0.4,3.3-2.2,6.7-5c0.2-0.1,0.4-0.2,0.6-0.5c5.9-4.7,15.1-12.1,27.2-19.8c10.9-6.8,24.2-13.9,39.3-19.5
				c3.7-1.4,7.6-2.7,11.5-3.9c2.1-0.7,3.8-1.2,5.2-1.3c1.5-0.1,1.9,0.2,2.1,0.4c0.3,0.2,1,2.2,1.6,4.2c0.6,2,1.2,4,1.7,6
				C1606.4,827.6,1607.6,832.6,1607,834.2z"/>
		</g>
		<g>
			<path class="st2" d="M1630.6,1018.8c-0.6,4.4-3.6,8.6-6.9,9.6c-1.5,0.5-3.8,0.3-6.8,0l-8.7-1.2c-5.8-0.8-11.5-1.7-17.2-2.6
				c-22.8-3.6-44.6-8.2-63.6-12.8c-4.8-1.1-9.4-2.1-13-3.7c-3.6-1.5-6.4-3.7-7.9-6.5c-1.5-2.8-1.5-5.5-0.1-7.9
				c1.3-2.4,3.8-4.2,6.1-5.2c3.9-1.7,8-1.7,11.1-1.7c6.1,1.3,14.5,2.7,24.6,4.4c11.1,1.8,24.2,3.8,38.7,5.8c7.2,1,14.8,2.1,22.6,3.2
				c3.9,0.6,7.6,1.2,11.4,2.2c1.9,0.5,3.6,1,5.4,1.7c0.9,0.3,1.8,0.7,2.6,1.1c0.6,0.3,0.6,0.3,0.6,0.3l0.1,0l0,0.1l0.4,1.9
				c0.2,1.4,0.5,2.7,0.6,4C1630.9,1013.9,1630.9,1016.5,1630.6,1018.8z"/>
			<path class="st0" d="M1639.7,1009.9c-0.2-1.5-0.5-3-0.8-4.4l-1.4-6.4l-2.6-1.3c-0.8-0.4-1.9-0.9-2.3-1.1c-1-0.4-2-0.8-3-1.2
				c-2-0.7-4-1.3-6.1-1.7c-4-1-8-1.6-11.8-2.1c-7.6-0.8-14.9-1.7-21.9-2.5c-14-1.5-26.9-2.8-38-3.8c-14.5-1.3-25.9-2.1-32.7-2.3
				c-0.7,0-1.3-0.1-2-0.1c-0.5,0-1,0-1.6,0.1c-0.2,0-0.4,0-0.6,0c-1.3,0.1-2.2,0.2-2.6,0.4l0,0c-1.5,0.3-3,0.9-4.5,1.7
				c-3.1,1.7-6.5,4.4-7.9,9c-1.5,4.5-0.1,9.8,2.8,13.7c3,4,7.5,6.6,12,8.3c4.6,1.7,9.1,2.8,13.8,4.1c18.8,5.2,40.4,10.1,62.8,13.8
				c5.6,0.9,11.3,1.8,17,2.6l8.6,1.2c2.9,0.3,7,0.7,10.9-1c7.6-3.3,11.2-10.5,12.1-17.4C1640.4,1016.2,1640.2,1012.9,1639.7,1009.9z
				 M1630.6,1018.8c-0.6,4.4-3.6,8.6-6.9,9.6c-1.5,0.5-3.8,0.3-6.8,0l-8.7-1.2c-5.8-0.8-11.5-1.7-17.2-2.6
				c-22.8-3.6-44.6-8.2-63.6-12.8c-4.8-1.1-9.4-2.1-13-3.7c-3.6-1.5-6.4-3.7-7.9-6.5c-1.5-2.8-1.5-5.5-0.1-7.9
				c1.3-2.4,3.8-4.2,6.1-5.2c3.9-1.7,8-1.7,11.1-1.7c6.1,1.3,14.5,2.7,24.6,4.4c11.1,1.8,24.2,3.8,38.7,5.8c7.2,1,14.8,2.1,22.6,3.2
				c3.9,0.6,7.6,1.2,11.4,2.2c1.9,0.5,3.6,1,5.4,1.7c0.9,0.3,1.8,0.7,2.6,1.1c0.6,0.3,0.6,0.3,0.6,0.3l0.1,0l0,0.1l0.4,1.9
				c0.2,1.4,0.5,2.7,0.6,4C1630.9,1013.9,1630.9,1016.5,1630.6,1018.8z"/>
		</g>
		<g>
			<path class="st2" d="M1591.2,1202.4c-0.5,2.8-2.6,5.9-5.4,8.6c-1.4,1.4-2.7,2.2-3.3,2.3c-0.6,0.2-1.9,0-3.5-0.8
				c-15.8-8.1-31.5-16.2-46.3-23.8c-7.5-3.8-14.5-7.6-21-11.5c-3.3-2-6.3-4-9.2-6c-2.9-2-5.4-3.9-7.1-6s-2.1-4.2-1.8-6.3
				c0.4-2,1.3-3,3.1-3.5c1.8-0.4,4.3-0.1,6.5,0.4c2.4,0.4,4.6,0.9,6.6,1.3c1.8,0.3,3.4,0.6,4.8,0.8c6.5,2.8,14.8,6.2,24.2,10.3
				c12.1,5.3,26.4,11.8,40.8,19.2c3.4,1.9,6.6,4.1,8.9,6.7C1590.7,1196.9,1591.7,1199.6,1591.2,1202.4z"/>
			<path class="st0" d="M1600.1,1197c-0.7-2.8-2.1-5.3-3.6-7.3c-3.2-4.1-7.1-6.7-10.9-8.9c-3.9-2.2-7.6-3.7-11.1-5.4
				c-3.6-1.6-7.1-3.1-10.6-4.6c-6.9-3-13.6-5.6-19.8-7.9c-19.7-7.3-35.2-11.6-42.1-12.7c0,0-0.1,0-0.2-0.1c-2.5-0.6-5.8-1.2-9.4,0.5
				c-3.8,1.8-5.8,6.1-5.8,10c0,2,0.4,4.1,1.3,6c0.8,1.8,2,3.5,3.3,5c2.6,2.9,5.5,5,8.4,7.2c2.9,2.2,6.1,4.3,9.3,6.4
				c6.5,4.1,13.4,8.1,20.6,12c14.5,7.7,29.4,15.7,45.2,23.8c2.3,1,5.2,2.1,8.9,1.6c3.7-0.5,6.4-2.7,8.1-4.3
				c3.4-3.3,6.8-7.3,8.3-12.8C1600.8,1202.8,1600.8,1199.8,1600.1,1197z M1585.8,1211c-1.4,1.4-2.7,2.2-3.3,2.3
				c-0.6,0.2-1.9,0-3.5-0.8c-15.8-8.1-31.5-16.2-46.3-23.8c-7.5-3.8-14.5-7.6-21-11.5c-3.3-2-6.3-4-9.2-6c-2.9-2-5.4-3.9-7.1-6
				s-2.1-4.2-1.8-6.3c0.4-2,1.3-3,3.1-3.5c1.8-0.4,4.3-0.1,6.5,0.4c2.4,0.4,4.6,0.9,6.6,1.3c1.8,0.3,3.4,0.6,4.8,0.8
				c6.5,2.8,14.8,6.2,24.2,10.3c12.1,5.3,26.4,11.8,40.8,19.2c3.4,1.9,6.6,4.1,8.9,6.7c2.3,2.6,3.3,5.4,2.8,8.2
				C1590.8,1205.2,1588.6,1208.3,1585.8,1211z"/>
		</g>
	</g>
	<g>
		<g>
			<path class="st0" d="M372,783c-2-1.9-3.9-2.9-5.6-3.5c-5.9-4.7-17.1-12.2-32-20.6c-11.6-6.5-25.7-13.6-41.1-20.2
				c-3.9-1.6-7.8-3.3-11.8-4.9c-1.9-0.7-4-1.8-7-2.3c-1.5-0.3-3.2-0.3-5.1,0.1c-1.8,0.5-3.5,1.4-4.8,2.5c-2.6,2.3-3.8,4.8-4.9,7
				c-1,2.2-2,4.3-2.8,6.6c-1.6,4.6-2.9,10-1.4,15.9c1.5,5.9,5.9,10.4,10.2,13.1c4.3,2.8,8.7,4.5,12.8,6.1c8.3,3.3,16.5,6.3,24.6,8.8
				c8.1,2.6,16,4.8,23.6,6.6c7.6,1.8,14.8,3.6,22,4.2c3.6,0.3,7.1,0.3,10.4-0.1c3.4-0.4,6.9-1.4,9.7-3.1c2.8-1.7,5.4-4.5,6-8
				C375.2,787.9,373.8,784.7,372,783z M368.8,791.5c-0.9,1.3-2.8,2.5-5.1,3.2c-4.3,1.4-10.5,1-16.7,0c-6.2-1.1-13.1-3.1-20.3-5.2
				c-7.1-2.1-14.6-4.5-22.2-7.1c-7.6-2.6-15.4-5.6-23.1-8.8c-7.7-3.1-15.2-6.7-16.6-12.3c-0.8-2.7-0.4-6.2,0.8-9.8
				c1.2-3.4,3.1-8,4.6-9.8c0.8-0.9,1-0.9,1.9-1c0.9,0,2.5,0.5,4.4,1.1c3.9,1.5,7.7,3,11.4,4.4c14.9,5.9,28.7,12,40.5,17.6
				c12.3,5.9,22.5,11.1,29.9,14.8c0.7,0.6,2.4,1.3,4.6,2.4c2.1,1.1,5.4,3,6.5,5.9C369.9,788.5,369.8,790.2,368.8,791.5z"/>
			<path class="st2" d="M368.8,791.5c-0.9,1.3-2.8,2.5-5.1,3.2c-4.3,1.4-10.5,1-16.7,0c-6.2-1.1-13.1-3.1-20.3-5.2
				c-7.1-2.1-14.6-4.5-22.2-7.1c-7.6-2.6-15.4-5.6-23.1-8.8c-7.7-3.1-15.2-6.7-16.6-12.3c-0.8-2.7-0.4-6.2,0.8-9.8
				c1.2-3.4,3.1-8,4.6-9.8c0.8-0.9,1-0.9,1.9-1c0.9,0,2.5,0.5,4.4,1.1c3.9,1.5,7.7,3,11.4,4.4c14.9,5.9,28.7,12,40.5,17.6
				c12.3,5.9,22.5,11.1,29.9,14.8c0.7,0.6,2.4,1.3,4.6,2.4c2.1,1.1,5.4,3,6.5,5.9C369.9,788.5,369.8,790.2,368.8,791.5z"/>
		</g>
		<g>
			<path class="st0" d="M360.3,937.8c-0.6-1.7-1.9-3.1-3.3-3.9c-1.4-0.7-2.7-1-3.8-1.1c-2.8-0.2-5.2-0.2-7.1,0
				c-7.5-1.2-19.5-2.4-34.3-2.7c-6.5-0.2-13.5-0.4-21-0.6c-7.3-0.2-15.3-0.7-23.6-0.5c-4.2,0.1-8.5,0.3-13,1.1
				c-2.3,0.4-4.8,0.9-7.4,2.2c-2.5,1.3-4.7,3.1-6.4,5.3c-3.4,4.4-4.9,9.9-4.6,15.3c0.1,2.4,0.8,6,2.7,8.6c1.8,2.7,4.2,4.4,6.6,5.7
				c4.8,2.5,9.5,3.4,13.9,4.2c4.4,0.7,8.9,1.3,13.5,1.4c9,0.3,17.8-0.6,26-1.9c8.3-1.4,16.1-3.2,23.5-5.1c7.4-2.1,14.2-3.9,20.8-6.5
				c6.5-2.6,12.5-6.5,16-11.8c0.9-1.4,1.7-3,2-4.8C361,940.9,360.9,939.6,360.3,937.8z M352.6,945.7c-3.4,3.4-8.5,5.7-14.4,7.5
				c-12.2,3.3-26.9,6.8-42.3,8.8c-7.7,1-15.6,1.6-23.5,1.2c-3.9-0.2-7.8-0.7-11.9-1.4c-3.9-0.7-7.7-1.6-10.6-3.1
				c-1.4-0.8-2.6-1.6-3.3-2.5c-0.7-1-1-1.7-1.2-3.3c-0.3-3.1,0.4-6.4,2-8.8c0.8-1.2,1.8-2.3,2.9-3c1.2-0.8,2.4-1.2,4.1-1.7
				c3.4-0.8,7.3-1.1,11.1-1.4c7.6-0.5,15.1-0.4,22.6-0.4c7.3,0,14.3-0.2,20.7-0.5c17.9-0.7,32.1-0.7,39.8-1.1c0.1,0,0.3,0.1,0.5,0.1
				c1.5,0.3,3.5,0.6,4.8,1.3c1.3,0.8,1.6,1.5,1.5,3.4C355.4,942.5,354.4,944,352.6,945.7z"/>
			<path class="st2" d="M355.5,941c-0.1,1.6-1.1,3-2.9,4.8c-3.4,3.4-8.5,5.7-14.4,7.5c-12.2,3.3-26.9,6.8-42.3,8.8
				c-7.7,1-15.6,1.6-23.5,1.2c-3.9-0.2-7.8-0.7-11.9-1.4c-3.9-0.7-7.7-1.6-10.6-3.1c-1.4-0.8-2.6-1.6-3.3-2.5c-0.7-1-1-1.7-1.2-3.3
				c-0.3-3.1,0.4-6.4,2-8.8c0.8-1.2,1.8-2.3,2.9-3c1.2-0.8,2.4-1.2,4.1-1.7c3.4-0.8,7.3-1.1,11.1-1.4c7.6-0.5,15.1-0.4,22.6-0.4
				c7.3,0,14.3-0.2,20.7-0.5c17.9-0.7,32.1-0.7,39.8-1.1c0.1,0,0.3,0.1,0.5,0.1c1.5,0.3,3.5,0.6,4.8,1.3
				C355.3,938.3,355.6,939.1,355.5,941z"/>
		</g>
		<g>
			<path class="st0" d="M409.4,1092.1c-0.8-2-2-3.5-3.4-4.7c-2.7-2.3-5.9-3.3-9-3.3c-3.2,0.1-5.4,1.2-7.4,2.3
				c-1.2,0.7-2.2,1.5-3.1,2.3l0,0c-0.8,0.2-1.7,0.5-2.7,0.8c-3.8,1.2-8.1,3.4-12.9,5.7c-4.8,2.4-10.1,5.1-16,8
				c-5.8,3.1-12.1,6.4-18.8,9.8c-3.3,1.8-6.7,3.6-10.3,5.4c-3.5,1.8-7.2,3.8-10.9,6.4c-7.2,4.9-14.9,14.2-12.9,25.9
				c1.1,5.8,4.9,10.4,8.8,13.4c2,1.6,4,2.9,6,4.1c1.9,1.1,4,2.7,8.1,3.2c2,0.2,4.3-0.3,5.8-1.2c1.6-0.8,2.7-1.7,3.7-2.5l5-4.3
				c3.3-2.9,6.6-5.8,9.9-8.6c6.5-5.7,12.9-11.4,19.1-16.9c12.4-11,24-21.4,33.8-30.5c1.2-1.1,2.4-2.2,3.7-3.5
				c1.3-1.3,2.7-2.9,3.5-5.1C410.2,1096.7,410.2,1094.1,409.4,1092.1z M402.3,1097.6c-1.4,1.6-4.3,3.7-6.8,5.8
				c-10.2,8.4-21.8,18.1-34.1,28.5c-6.1,5.2-12.4,10.6-18.8,16c-3.2,2.7-6.4,5.5-9.6,8.3l-4.8,4.2c-1.5,1.3-2.3,1.6-2.3,1.5
				c-0.3,0-1.8-0.6-3.6-1.6c-1.7-1-3.3-2.1-4.8-3.1c-3-2.2-5.1-4.7-5.9-7.4c-0.8-2.6-0.4-5.8,1-8.7c1.3-3,3.5-5.5,6.3-7.8
				c5.5-4.4,12.7-7.9,19-11.7c6.3-3.7,12.4-7.3,18-10.6c10-5.9,18.7-11.4,25.2-15.4c-0.4,0.7-0.5,1.3-0.4,1.5c0.8-0.3,2.2-1.4,4.3-3
				c1.1-0.8,2.4-1.8,4-2.7c3.2-1.3,5.6-1.8,6.7-2.2c1,0,1.9,0.1,2.9,0.4c1.8,0.6,3.6,1.9,4.4,3.5
				C403.8,1094.8,403.7,1095.9,402.3,1097.6z"/>
			<path class="st2" d="M402.3,1097.6c-1.4,1.6-4.3,3.7-6.8,5.8c-10.2,8.4-21.8,18.1-34.1,28.5c-6.1,5.2-12.4,10.6-18.8,16
				c-3.2,2.7-6.4,5.5-9.6,8.3l-4.8,4.2c-1.5,1.3-2.3,1.6-2.3,1.5c-0.3,0-1.8-0.6-3.6-1.6c-1.7-1-3.3-2.1-4.8-3.1
				c-3-2.2-5.1-4.7-5.9-7.4c-0.8-2.6-0.4-5.8,1-8.7c1.3-3,3.5-5.5,6.3-7.8c5.5-4.4,12.7-7.9,19-11.7c6.3-3.7,12.4-7.3,18-10.6
				c10-5.9,18.7-11.4,25.2-15.4c-0.4,0.7-0.5,1.3-0.4,1.5c0.8-0.3,2.2-1.4,4.3-3c1.1-0.8,2.4-1.8,4-2.7c3.2-1.3,5.6-1.8,6.7-2.2
				c1,0,1.9,0.1,2.9,0.4c1.8,0.6,3.6,1.9,4.4,3.5C403.8,1094.8,403.7,1095.9,402.3,1097.6z"/>
		</g>
	</g>
	<g>
		<g>
			<path class="st2" d="M335.5,91.7c-0.6,1-2.1,1.8-2.9,3.9c-0.9,2-1.6,5.5-1.7,9.9c-0.3,9.8-1.2,22.3-0.5,34.6
				c0.6,12.2,3.2,24,6.7,32.8c3.4,8.8,7.3,14.5,6.8,16.7c-1.7,1.3-8.3-2.6-14.3-11.8c-6-9-10.4-23.2-10.9-37.2
				c-0.7-14,1.5-27.4,3.8-37.3c1.3-5.4,3.8-10,7.3-11.9C333.5,89.4,335.7,91,335.5,91.7z"/>
			<path class="st2" d="M366,225c-1.1,1.9-3.5,2.5-6.3,1.6c-2.8-0.9-6-3.2-8.2-6.2c-2.3-3-3.6-6.6-3.8-9.5c-0.2-2.9,0.8-5,2.4-5.5
				c3.9-0.6,7.2,3.7,10.5,7.7C363.7,217.2,367.1,221.5,366,225z"/>
		</g>
	</g>
	<g>
		<g>
			<path class="st0" d="M1548.8,454.4c-4.8-6-9.5-11.9-14.1-17.6c-4.3-5.6-8.6-11-12.6-16.2c-2-2.5-3.8-5-5.6-7.4l-1.3-1.7l-0.9-1.3
				c-0.3-0.7-0.7-1.4-0.9-2.4c-1-3.6,0.1-8.9,0.9-13.5c0.8-4.6,1.7-9.1,1.8-13.2c0.2-4-0.6-7.6-2-9.9c-0.9-1.8-2-2.7-2.9-3.1
				c-1-2.9-2.6-7-5.4-12.2c-3.9-7.4-9.9-16.7-18.8-26.7c-8.9-10-20.5-20.5-33.6-31.8c-12.9-11.4-28-23.5-44-36.7
				c-32.7-25.6-71.6-53.1-114.9-79.4c-24.8-15.1-51-29.8-78.2-43.6c-20.1-10.4-40.7-20.3-61.5-29.7c-48.9-22-99-40.9-146.9-56
				c-48-15.2-93.7-26.8-133.8-35.4c-20-4-38.4-8.2-55.5-10.4c-17.1-2.3-32.4-3-45.4-1.9c-13,1-23.5,3.8-30.8,7.1
				c-2.1,1-3.9,2-5.6,2.9c0.1-0.4,0.3-0.8,0.3-1.1c-0.6-1-4.4,0-9.1,4.4c-2.3,2-4.8,4.9-7.5,7.9c-2.7,2.9-5.7,6.1-9.1,7.9
				c-3.3,1.9-7.4,2.3-12.7,1.9c-5.1-0.5-11.5-1.6-17.9-2.5c-6.4-1-13.7-1.6-20.5-2l-5.2-0.3c-2.1-0.2-4.2-0.1-6.2,0
				c-1.9,0.1-3.9,0.3-5.9,0.6c-2.1,0.4-3.8,0.5-7.3,1.9c-3.5,1.7-5.8,4.2-7.4,6.3c-1.6,2.2-2.7,4.3-3.7,5.9c-2,3.5-3.9,7-5.8,10.5
				c-3.8,7-7.3,14-10.6,21c-6.5,13.9-12,27.1-16.1,39.4c-2,6.3-3.1,13-2.3,19.1c0.7,6.3,3.4,11.3,6.4,14.6c1.5,1.6,3.1,2.8,4.6,3.6
				c3.2,6.8,8.4,16.4,16.1,28c7.9,11.7,18.5,25.4,32.4,39.5c6.9,7,15,14.1,23.4,21.1c8.3,7,17.3,14.5,26.8,21.9
				c9.5,7.5,19.6,15.1,30.7,22.3c11.2,7.1,22.6,13.7,34.4,21c23.6,14.2,48.8,28.8,75.1,43.5c52.6,29.5,109.9,59.1,168.8,85.6
				c29.5,13.2,59.1,25.9,88.8,37.5c27.3,10.8,54.9,20.7,81.3,30.2c2.1,0.7,4.2,1.5,6.2,2.2c28.4,10.4,55.8,20.9,82.3,30
				c26.5,9.2,51.9,17.1,75.7,23.4c23.8,6.1,45.4,11.8,65.2,16.1c19.8,4.3,37.6,6.6,52.5,7c11.6,0.4,21.4-0.4,29-1.6
				c2.1,1.2,5.2,2.1,8.7,2c4.4,0,9.8-1.5,14.6-5.4c4.6-3.7,8.2-9.1,11-14.8c2.8-5.8,5-11.6,7.5-17.7c2.5-6.3,5-12.7,7.7-19.4
				c2.6-6.7,5.2-13.6,7.8-20.6c2.7-7.1,5.4-14.9,6.6-23.5C1555.1,473.5,1554.6,463.1,1548.8,454.4z M1532,500.3
				c-2.5,7.4-5.1,14.5-7.5,21.6c-2.4,7-4.6,13.8-6.7,20.3c-2.2,6.5-3.9,12.8-5.8,17.8c-1.8,5-4.3,8.9-7,11.6c-2.5,2.5-5.9,4-8.7,4.6
				c-5.7,1.3-9.4-1-10.8-0.2c0,0.3,0.1,0.7,0.2,1.1c-8.7,0.1-19.4-0.3-31.9-2c-15-2-32.3-5.8-51.5-11.1c-19.2-5.3-41-11.7-63.9-18.5
				c-23-6.9-47.2-15.2-72.7-24.7c-25.3-9.7-52-19.8-79.4-30.3c-0.2-0.1-0.4-0.2-0.6-0.2c-55.1-20.1-112.5-42.6-168.7-68
				c-56.5-25.4-111.7-53.3-163-81c-25.7-13.9-50.3-27.6-73.7-40.9c-11.7-6.7-23-13.3-34.1-19.6c-10.9-6.2-20.9-12.9-30.5-19.7
				c-19-13.8-36.5-27.4-51.4-39.8c-14.8-12.6-26.6-25.2-36-36.5c-9.7-11.8-16.8-21.9-21.9-29.4c2,0.1,3.2-0.5,3.5-1.1
				c-1.1-1.5-5.5-3.8-7.8-10.1c-1.2-3-1.8-6.7-1.3-11c0.6-4.3,2.3-9,4.7-14.3c5-10.8,11.2-23.3,17.8-36.2c3.4-6.5,6.9-13,10.6-19.6
				c1.8-3.2,3.7-6.5,5.6-9.8c1.8-3.4,3.3-5.3,3.6-5.3c0,0,1.6-0.5,2.7-0.6c1.4-0.3,3-0.4,4.4-0.6c1.5-0.1,3.1-0.3,4.1-0.3l4.9,0.1
				c6.7,0.2,12.8,0.3,18.9,0.8c6.3,0.5,12.1,1.1,18.5,1.2c6.2,0.1,13.2-0.7,19-4.2c5.7-3.3,9-7.9,11.3-11.7c2.4-3.8,4-7,5.5-9.7
				c1-2,1.9-3.6,2.7-5c5.5-2.1,15.7-5.8,31.1-6.5c11.7-0.7,26,0.2,42.2,2.8c8.1,1.2,16.8,2.9,25.8,4.9c9.1,2.1,18.6,4.5,28.6,6.8
				c39.8,9.8,86,22.1,134.7,38.2c48.7,16,99.9,35.6,149.8,58c28.3,12.7,56.1,26.3,82.9,40.5c20.7,10.9,40.8,22.2,60.1,33.7
				c44.3,26.4,84.2,53.7,117.6,78.6c16.5,12.7,31.9,24.3,45.2,35c13.4,10.6,24.8,20.1,33.3,29c13.7,14.1,20.6,25.8,24,30
				c-0.1,0.5,0,1.1,0,1.8c0,1.8,0,4-0.8,7c-0.8,3-2.2,6.6-3.9,11.1c-1.6,4.5-4,9.6-4.5,17c-0.1,1.8,0.1,3.9,0.5,5.9
				c0.3,1.1,0.5,2.1,1,3.1c0.5,1.2,0.9,2.1,1.3,2.8c1.8,3.1,3.5,5.9,5.4,8.9c3.7,5.7,7.7,11.7,12,17.7c2.2,3,4.4,6.1,6.6,9.1
				c2.2,3,4.5,6,6.8,9c2.9,4.1,3.6,10,2.7,16.7C1536.8,486.1,1534.5,493.1,1532,500.3z"/>
			<path class="st4" d="M1535,462.7c-2.3-3-4.6-6-6.8-9c-2.3-3-4.5-6.1-6.6-9.1c-4.3-6.1-8.3-12-12-17.7c-1.9-2.9-3.6-5.8-5.4-8.9
				c-0.4-0.6-0.8-1.6-1.3-2.8c-0.5-1-0.7-2.1-1-3.1c-0.4-2-0.7-4.1-0.5-5.9c0.5-7.4,2.9-12.5,4.5-17c1.7-4.4,3.1-8.1,3.9-11.1
				c0.7-3,0.8-5.3,0.8-7c0-0.7-0.1-1.3,0-1.8c-3.4-4.3-10.3-15.9-24-30c-8.5-8.9-19.9-18.4-33.3-29c-13.4-10.7-28.7-22.3-45.2-35
				c-33.4-24.9-73.3-52.3-117.6-78.6c-19.3-11.5-39.4-22.8-60.1-33.7c-26.8-14.2-54.6-27.8-82.9-40.5c-49.9-22.5-101.1-42-149.8-58
				c-48.7-16-94.9-28.4-134.7-38.2c-10-2.4-19.5-4.7-28.6-6.8c-9-2-17.7-3.7-25.8-4.9c-16.2-2.6-30.5-3.5-42.2-2.8
				c-15.4,0.8-25.5,4.5-31.1,6.5c-0.8,1.4-1.7,3-2.7,5c-1.5,2.6-3.1,5.9-5.5,9.7c-2.3,3.7-5.6,8.3-11.3,11.7
				c-5.7,3.5-12.8,4.3-19,4.2c-6.3-0.2-12.2-0.7-18.5-1.2c-6.1-0.5-12.2-0.6-18.9-0.8l-4.9-0.1c-1,0-2.6,0.1-4.1,0.3
				c-1.4,0.1-2.9,0.3-4.4,0.6c-1.2,0.2-2.7,0.6-2.7,0.6c-0.3,0-1.8,1.9-3.6,5.3c-1.9,3.3-3.7,6.6-5.6,9.8
				c-3.6,6.6-7.2,13.2-10.6,19.6c-6.6,12.9-12.8,25.4-17.8,36.2c-2.5,5.3-4.1,10-4.7,14.3c-0.6,4.3,0,7.9,1.3,11
				c2.4,6.3,6.8,8.5,7.8,10.1c-0.3,0.7-1.5,1.2-3.5,1.1c5.1,7.4,12.2,17.6,21.9,29.4c9.4,11.3,21.2,23.9,36,36.5
				c14.9,12.3,32.4,26,51.4,39.8c9.6,6.8,19.6,13.5,30.5,19.7c11,6.3,22.4,12.9,34.1,19.6c23.4,13.3,48,27,73.7,40.9
				c51.3,27.7,106.5,55.6,163,81c56.2,25.4,113.6,47.9,168.7,68c0.2,0.1,0.4,0.2,0.6,0.2c27.4,10.5,54.1,20.6,79.4,30.3
				c25.4,9.5,49.7,17.8,72.7,24.7c22.9,6.8,44.6,13.2,63.9,18.5c19.2,5.3,36.5,9.1,51.5,11.1c12.5,1.6,23.2,2,31.9,2
				c-0.1-0.4-0.3-0.8-0.2-1.1c1.4-0.8,5.1,1.5,10.8,0.2c2.8-0.6,6.2-2.1,8.7-4.6c2.7-2.7,5.1-6.6,7-11.6c1.9-5,3.7-11.3,5.8-17.8
				c2.1-6.5,4.3-13.3,6.7-20.3c2.4-7,4.9-14.2,7.5-21.6c2.5-7.2,4.8-14.2,5.7-20.9C1538.6,472.7,1537.9,466.8,1535,462.7z
				 M692.5,98.5c-3.3,7.2-8.1,16.5-13.1,25.7c-4.9,9.2-10,18.4-14.2,25.3c-4.3,6.9-7.4,11.6-9.6,12.1c-2.2-0.9-1.9-7.1,0.7-15.3
				c2.5-8.2,7-18.3,12.4-28c5.3-9.7,11.3-18.9,16.6-25.4c5.2-6.5,10.1-9.9,11.5-8.8C697.9,86.1,695.8,91.2,692.5,98.5z M868.1,82.8
				c0.5-0.3,0.7-0.5,1.2-0.7c0.6-0.3,1.3-0.4,1.7-0.4c0.9-0.1,1.6-0.1,2.4,0c1.5,0,3,0.2,4.3,0.3c2.1,0.2,3.9,0.5,5.6,0.8
				c9.2,0.5,22.9,1.9,40.5,4.6c29.1,4.6,68.5,13.4,113.9,28.8c45.3,15.2,96.2,37,149.4,63.5c20.8,10.5,42.3,21.3,63.8,33.3
				c5.9,3.3,11.7,6.6,17.6,10.1c13.7,8.2,26.8,17.4,39.7,27c12.9,9.7,25.6,20.1,37.5,31.4c6,5.6,11.8,11.4,17.5,17.3
				c2.7,3,5.7,5.8,8.5,10.1c1.4,2.1,2.8,4.7,3.3,8.2c0.5,3.5-0.4,7.4-2.6,10.2c-2.1,3-5.4,4.9-8.2,5.6c-2.9,0.9-5.5,0.9-8,0.9
				c-5-0.1-9.5-1.5-13.3-2.5c-7.9-2.1-15.8-4.3-23.6-6.6c-18.7-5.6-37.1-12-55-18.8c-12.2-4.6-24.2-9.4-36.1-14.4
				c-29.3-12.1-57.8-25-85.4-37.4c-27.5-12.4-54.2-24.4-79.6-35.9c-50.8-22.7-96.8-44.5-131.9-67.6c-17.7-11.3-32.7-22.8-45-33.4
				c-6.2-5.3-11.7-10.6-16-16c-2-2.7-4.2-5.5-5.2-8.9c-0.4-1.6-0.7-3.6-0.2-5.4C865.3,85.1,866.7,83.7,868.1,82.8z M777.1,56.4
				c2.3,1.6,1.6,6.5,1.5,11.2c-0.5,4.8-0.3,9.9-2.5,11.3c-3,1-6.3-5.1-5.7-11.7C770.7,60.6,774.9,55.2,777.1,56.4z M753.2,46.7
				c1.4-5.1,4.2-9.9,6.9-12.7c2.8-2.9,5.2-4,6.1-3.2c1.5,2.4-3.1,9.6-5.1,18c-2.4,8.2-2.1,17-4.3,18.4c-1.5,0.2-3.2-2.1-4.2-6
				C751.7,57.2,751.8,51.7,753.2,46.7z M743.5,198.9c-7.7,11.6-14.2,24.3-18.2,24.6c-4.5-1.7-1.3-18,7.8-31.3
				c8.9-13.6,22.4-22.6,24.8-19.8C759.9,176.3,751,187.2,743.5,198.9z M864.5,232.3c-3.8,6.9-9,15.8-14.1,24.7
				c-5.2,8.8-10.4,17.7-14.4,24.7c-4.2,6.9-7.1,11.8-9.2,12.2c-2.1-0.9-2.2-7.1,0.4-15.2c2.3-8.2,7.1-18.4,12.7-27.9
				c5.6-9.5,12.2-18.4,17.9-24.5c5.8-6.1,10.6-9.2,12-8C870.7,220.2,868.2,225.2,864.5,232.3z M957,315.8c-5.6,11.2-11,22.8-15.1,23
				c-4.5-1.5-2.4-15.8,4-28.4c6.2-12.7,16.2-22.8,19.2-20.5C968,293.1,962.4,304.4,957,315.8z M1081,374
				c-3.8,9.4-8.2,18.6-12.5,25.3c-4.2,6.8-8.3,10.9-10.5,10.8c-1.9-1.4-0.7-6.8,1.6-14.2c2.4-7.4,6-17,10-26.5
				c7.7-19,17-37.7,20.5-36.3C1093.4,335.9,1088.4,355.3,1081,374z M1188.9,446.5c-3.4-3.2,2.7-14.5,7.5-26.1
				c5.1-11.4,9.1-23.6,12.9-23.2c4,1.4,3.9,15.3-1.5,27.9C1202.6,438,1192.7,447.9,1188.9,446.5z M1319.6,510
				c-8.3-4.7,23.8-85.5,30.9-83.3C1357.3,432.2,1328,509.3,1319.6,510z M1453.1,503.1c-5.9,18.4-17.6,34.2-21.7,33.5
				c-3.8-3,4.3-19.9,10.1-37.5c6.2-17.4,10.3-35.7,14.1-35.4C1459.6,465.4,1459.4,484.9,1453.1,503.1z M1454.3,421.7
				c-3.2-0.2-7.1-0.2-11.6-0.8c-4.5-0.7-9.5-1.4-15.1-2.2c-22.5-3.8-53.5-11.3-89.7-22.5c-27.5-8.5-57.9-18.9-90.2-30.8
				c-52.6-19.4-109.9-42.6-166.4-67.3c-45.7-19.7-90.5-41.2-131.7-62.9c-41.1-21.8-78.5-44-109.5-64.5c-31-20.6-55.5-39.7-71.7-54.1
				c-8.3-7.1-14.3-13.1-18.3-17.4c-4-4.2-5.9-6.7-5.5-7.1c3.7,1.1,15,10.2,33.5,23.4c18.5,13.1,44.2,30.5,75.4,49.3
				c62.4,37.9,147.5,81,235.3,118.7c56.3,24.4,113.1,47.9,165,68.2c29,11.3,56.5,21.6,81.6,30.4c34.9,12.3,65.1,21.7,87.7,28.1
				c22.6,6.1,37.6,8.7,42,10.7C1464.5,421.7,1460.7,421.9,1454.3,421.7z M1475.8,368.1c-3.7,7.6-10.2,13.2-12.6,12.1
				c-2.2-2.3,1.8-9,5.3-15.7c3.6-6.7,6.6-13.9,9.1-13.5C1480.1,352.1,1479.5,360.6,1475.8,368.1z M1488.8,382.4
				c-1.6,4.7-5.6,8-7.9,6.8c-2.4-2-1.2-5.9,0.2-9.5c1.5-3.6,3.3-7.5,5.8-7.4C1489.7,372.7,1490.6,377.8,1488.8,382.4z"/>
			<path class="st0" d="M1465.2,421c-0.7,0.7-4.5,0.9-10.9,0.7c-3.2-0.1-7.2-0.3-11.6-0.8c-4.5-0.6-9.5-1.4-15.2-2.2
				c-22.5-3.8-53.5-11.2-89.7-22.5c-72.3-22.3-165.5-58.4-256.5-98.1c-45.7-19.7-90.5-41.2-131.7-62.9
				c-41.1-21.8-78.5-44-109.5-64.6c-31-20.6-55.5-39.7-71.7-54.1c-8.2-7-14.3-13.1-18.3-17.4c-4-4.2-5.9-6.7-5.5-7.1
				c3.7,1.1,15,10.2,33.5,23.4c18.5,13.2,44.2,30.5,75.4,49.3c62.4,37.8,147.5,81,235.3,118.7c87.8,38.1,176.7,74,246.6,98.7
				c34.9,12.3,65.1,21.7,87.7,28.1C1445.8,416.4,1460.8,418.9,1465.2,421z"/>
			<path class="st0" d="M1375,317.1c-0.5-3.4-1.9-6-3.3-8.2c-2.9-4.3-5.8-7-8.5-10.1c-5.7-6-11.5-11.7-17.5-17.3
				c-11.9-11.3-24.5-21.6-37.5-31.4c-13-9.6-26.1-18.8-39.7-27c-5.9-3.5-11.7-6.9-17.6-10.1c-21.5-12-42.9-22.8-63.8-33.3
				c-53.2-26.5-104.2-48.3-149.4-63.5C992.4,100.8,953,92,923.9,87.4c-17.5-2.7-31.3-4.1-40.5-4.6c-1.7-0.3-3.5-0.6-5.6-0.8
				c-1.3-0.1-2.8-0.3-4.3-0.3c-0.8,0-1.5,0-2.4,0c-0.4,0-1.1,0.1-1.7,0.4c-0.6,0.3-0.7,0.4-1.2,0.7c-1.4,0.8-2.7,2.2-3.1,4
				c-0.5,1.8-0.2,3.8,0.2,5.4c0.9,3.4,3.1,6.3,5.2,8.9c4.3,5.4,9.8,10.7,16,16c12.3,10.6,27.3,22.1,45,33.4
				c35.2,23,81.1,44.8,131.9,67.6c25.4,11.5,52.1,23.5,79.6,35.9c27.6,12.4,56,25.2,85.4,37.4c11.9,5,23.9,9.8,36.1,14.4
				c18,6.8,36.3,13.2,55,18.8c7.8,2.3,15.7,4.5,23.6,6.6c3.7,1,8.3,2.3,13.3,2.5c2.5,0,5.1,0,8-0.9c2.8-0.7,6.1-2.6,8.2-5.6
				C1374.5,324.4,1375.5,320.6,1375,317.1z M1334.3,316.2c-23.5-6.6-46.7-14.5-69.4-23.1c-7.7-2.9-15.4-5.9-23.1-9
				c-30-12.1-59.1-25-87.5-37.5c-28.4-12.4-55.9-24.5-82.1-36c-52.5-22.7-99.5-43.7-135.6-65.9c-18.1-10.9-33.6-21.8-46.3-31.8
				c-6.4-5-11.9-9.8-16.3-14.8c-2.2-2.4-4.1-5-4.9-7.2c2.6,1.2,10.5,3.5,21.7,7.1c14,4.5,34,10.9,57.8,19.4
				c47.6,16.7,109.6,42.8,171.1,70.9c30.7,14.1,61.7,27.8,90,42c18.8,9.5,36.6,19.2,52.5,28.8c8.1,4.8,15.7,9.7,22.9,14.4
				c28.2,18.4,48.2,35.6,59.4,45.5C1341.1,318.1,1337.7,317.2,1334.3,316.2z M1362.5,319.9c-0.2,0.4-0.5,0.7-1.5,1.1
				c-1,0.3-2.4,0.5-4.1,0.4c-2.4,0-5-0.7-7.9-1.4c-9.9-11-31.7-32.3-64.1-54.4c-7.6-5.2-15.7-10.4-24.3-15.7
				c-15.2-9.3-31.9-18.7-49.6-27.7c-27.7-14.2-57.6-27.5-87.3-41.1c-59.6-27.1-120.2-51.9-167.9-67.6C910.2,98.3,876,91,869,90.4
				c-0.5-2-0.3-3.6,1.2-4.7l0.9-0.5c0-0.1,0.3-0.1,0.7-0.2c0.8-0.1,1.7-0.2,2.5-0.2c1.6-0.1,3.2-0.1,4.6,0c0.9,0,1.7,0.1,2.6,0.1
				l0.6,0.1c3.5,0.6,7.8,1.3,12.9,2.1c5,1,10.9,2.1,17.5,3.3c26.2,5.1,63.7,13.7,107.6,28.9c44,14.9,94.4,36.4,147.6,63
				c26.6,13.4,54.2,27.7,81.6,43.1c2.2,1.3,4.5,2.6,6.7,3.9c11.3,6.7,22.5,13.8,33.3,21.8c13.1,9.3,25.8,19.2,38,29.9
				c6.1,5.4,12,10.9,17.8,16.7c2.9,2.8,5.7,5.7,8.5,8.7c2.8,3,5.8,6.1,7.6,8.6c0.9,1.3,1.5,2.6,1.7,3.3
				C1362.9,319.2,1362.8,319.4,1362.5,319.9z"/>
			<path class="st0" d="M1362.5,319.9c-0.2,0.4-0.6,0.7-1.5,1.1c-1,0.3-2.5,0.5-4.1,0.5c-2.4,0-5-0.6-7.9-1.4
				c-9.9-11.1-31.7-32.3-64.1-54.4c-21.1-14.4-46.2-29.4-73.9-43.5c-27.6-14.2-57.6-27.5-87.3-41.2
				c-59.6-27.1-120.2-51.9-167.9-67.5C910.2,98.3,876,91,869,90.4c-0.5-1.9-0.3-3.6,1.2-4.7l0.8-0.6c0-0.1,0.3-0.1,0.7-0.2
				c0.9-0.1,1.6-0.1,2.5-0.2c1.6-0.1,3.1-0.1,4.6,0c0.9,0.1,1.7,0.1,2.5,0.1l0.6,0.1c3.5,0.6,7.8,1.3,12.9,2.1
				c5.1,0.9,10.9,2,17.5,3.3c26.2,5.1,63.7,13.7,107.6,28.9c44,14.9,94.4,36.4,147.6,63c26.6,13.4,54.2,27.7,81.6,43.2
				c13.8,7.8,27,16.2,40.1,25.7c13.1,9.4,25.8,19.2,38,30c6.1,5.4,12,10.9,17.8,16.7c2.9,2.9,5.7,5.8,8.5,8.7c2.7,3,5.8,6.1,7.6,8.6
				c0.9,1.3,1.5,2.6,1.7,3.3C1362.9,319.2,1362.8,319.4,1362.5,319.9z"/>
			<path class="st1" d="M1344.6,318.9c-3.5-0.9-6.9-1.8-10.3-2.8c-31.6-8.9-62.5-20-92.4-32c-30-12.1-59.2-25-87.5-37.5
				c-28.4-12.4-55.8-24.5-82.1-36c-52.5-22.7-99.5-43.8-135.6-65.9C918.6,133.8,903,123,890.3,113c-6.4-5-11.9-9.8-16.3-14.8
				c-2.3-2.4-4.1-5-4.9-7.2c2.6,1.1,10.4,3.5,21.7,7.1c14,4.5,34,10.9,57.8,19.4c47.5,16.7,109.6,42.8,171.1,70.9
				c30.7,14.1,61.8,27.8,90.1,42c28.3,14.3,54.1,29.1,75.4,43.2C1313.4,291.9,1333.4,309.1,1344.6,318.9z"/>
			<path class="st0" d="M1453.1,503.2c-6,18.3-17.6,34.1-21.7,33.5c-3.8-3,4.3-19.9,10.1-37.5c6.2-17.4,10.4-35.7,14.1-35.4
				C1459.6,465.4,1459.4,484.9,1453.1,503.2z"/>
			<path class="st2" d="M1319.6,510.1c-8.3-4.8,23.8-85.6,30.9-83.3C1357.3,432.2,1328,509.3,1319.6,510.1z"/>
			<path class="st0" d="M1207.8,425.1c-5.2,12.8-15.1,22.8-18.8,21.3c-3.5-3.2,2.7-14.5,7.5-26.1c5.2-11.4,9.1-23.7,12.9-23.2
				C1213.3,398.5,1213.2,412.5,1207.8,425.1z"/>
			<path class="st2" d="M1081,374.1c-3.8,9.4-8.2,18.6-12.5,25.3c-4.2,6.8-8.4,10.9-10.5,10.8c-1.9-1.5-0.7-6.8,1.7-14.2
				c2.4-7.4,6-17,9.9-26.6c7.7-19,17-37.7,20.6-36.3C1093.4,335.9,1088.4,355.3,1081,374.1z"/>
			<path class="st0" d="M957,315.8c-5.5,11.2-11,22.8-15.1,23c-4.5-1.5-2.4-15.8,4-28.4c6.2-12.7,16.2-22.8,19.2-20.5
				C968,293.1,962.4,304.4,957,315.8z"/>
			<path class="st2" d="M864.5,232.3c-3.8,7-9,15.8-14.2,24.7c-5.2,8.9-10.4,17.7-14.5,24.7c-4.2,6.9-7.1,11.8-9.2,12.2
				c-2.1-0.9-2.1-7,0.3-15.2c2.4-8.2,7.1-18.3,12.8-27.9c5.7-9.5,12.2-18.4,17.9-24.5c5.8-6.1,10.6-9.2,12-8
				C870.7,220.2,868.2,225.2,864.5,232.3z"/>
			<path class="st0" d="M743.5,198.9c-7.7,11.6-14.1,24.3-18.2,24.6c-4.5-1.6-1.3-18,7.9-31.3c8.8-13.6,22.4-22.6,24.8-19.7
				C759.9,176.3,751,187.2,743.5,198.9z"/>
			<path class="st2" d="M692.5,98.5c-3.3,7.2-8.1,16.5-13.1,25.7c-4.9,9.2-10.1,18.4-14.2,25.3c-4.3,6.9-7.4,11.7-9.6,12.1
				c-2.2-0.9-1.9-7.2,0.6-15.3c2.5-8.2,7-18.3,12.4-28c5.3-9.7,11.3-18.9,16.6-25.4c5.3-6.5,10.1-10,11.5-8.8
				C697.9,86.1,695.8,91.2,692.5,98.5z"/>
			<path class="st2" d="M756.8,67.2c-1.5,0.2-3.2-2.1-4.2-6.1c-1-3.9-0.8-9.4,0.6-14.5c1.4-5.1,4.2-9.8,6.9-12.6
				c2.7-2.9,5.2-4.1,6.1-3.2c1.5,2.4-3.1,9.7-5.1,18C758.7,57,759,65.7,756.8,67.2z"/>
			<path class="st2" d="M776.1,78.8c-3,1-6.3-5.1-5.7-11.7c0.4-6.6,4.5-12,6.8-10.8c2.3,1.6,1.6,6.5,1.4,11.3
				C778.2,72.4,778.3,77.5,776.1,78.8z"/>
			<path class="st2" d="M1475.7,368.1c-3.7,7.6-10.2,13.3-12.6,12.1c-2.2-2.3,1.9-8.9,5.2-15.7c3.6-6.7,6.6-13.9,9.1-13.5
				C1480.1,352.1,1479.5,360.6,1475.7,368.1z"/>
			<path class="st2" d="M1488.8,382.4c-1.6,4.7-5.6,8-7.9,6.8c-2.4-2-1.3-5.9,0.2-9.6c1.5-3.6,3.3-7.5,5.8-7.4
				C1489.7,372.7,1490.6,377.8,1488.8,382.4z"/>
			<path class="st0" d="M1599.5,493.2c-2.5,7.3-6.1,11.7-8.7,11.8c-3-1.3-3.5-6.3-3.8-13.1c-0.1-6.8-0.3-15.5-1.1-24.1
				c-0.8-8.6-2.3-17.1-3.5-23.8c-1.1-6.7-1.8-11.6,0.5-12.9c2.6-0.8,7.1,2.6,11,9.1c4.1,6.4,7.3,15.9,8.3,25.8
				C1603.3,475.9,1602.1,486,1599.5,493.2z"/>
		</g>
		<path class="st3" d="M1548.8,454.4c5.8,8.7,6.3,19,5.1,27.4c-1.2,8.6-3.9,16.4-6.6,23.5c-2.6,7-5.2,13.9-7.8,20.6
			c-2.7,6.8-5.2,13.2-7.7,19.4c-2.5,6.1-4.7,11.9-7.5,17.7c-2.8,5.7-6.4,11.1-11,14.8c-4.8,3.9-10.2,5.4-14.6,5.4
			c-3.5,0.1-6.6-0.8-8.7-2c-7.6,1.3-17.4,2-29,1.6c-14.9-0.4-32.7-2.7-52.5-7c-19.8-4.2-41.4-10-65.2-16.1
			c-23.8-6.3-49.2-14.2-75.7-23.4c-26.5-9.1-53.9-19.6-82.3-30c-2.1-0.7-4.2-1.5-6.2-2.2c1.8-4.2,4-9,6.5-14.2
			c13-26.7,35.3-67.1,62-124.7c1.2-2.7,2.5-5.3,3.7-8c0.8-1.9,1.7-3.8,2.4-5.7c6.1-14.8,9.3-30.3,10.5-45.8
			c0.3-4.3,0.5-8.6,0.6-12.8c0.1-11.5-0.9-22.8-2.6-34c-0.5-3.1-1-6.1-1.6-9.2c-1.3-7-3-13.8-4.8-20.6c-1.6-5.6-3.2-11-4.9-16.3
			c-6.2-18.7-13.7-35.7-20.8-50c-4.9-9.9-9.6-18.5-13.6-25.3c27.1,13.9,53.3,28.5,78.2,43.6c43.3,26.3,82.2,53.8,114.9,79.4
			c16,13.2,31.1,25.3,44,36.7c13.1,11.3,24.6,21.8,33.6,31.8c8.9,10,14.9,19.4,18.8,26.7c2.8,5.3,4.4,9.3,5.4,12.2
			c0.8,0.4,2,1.3,2.9,3.1c1.3,2.3,2.2,5.9,2,9.9c-0.1,4-0.9,8.5-1.8,13.2c-0.8,4.6-1.9,9.9-0.9,13.5c0.1,1,0.5,1.6,0.9,2.4l0.9,1.3
			l1.3,1.7c1.8,2.5,3.6,4.9,5.6,7.4c4,5.2,8.2,10.6,12.6,16.2C1539.3,442.6,1544.1,448.5,1548.8,454.4z"/>
	</g>
</g>
</svg>
